<?xml version="1.0" encoding="UTF-8"?>
<svg xmlns="http://www.w3.org/2000/svg" width="30" height="30" viewBox="0 0 30 30" fill="none">
  <g id="IG">
    <circle id="Ellipse 12" cx="15" cy="15" r="15" fill="#2B2C2C"></circle>
    <path id="Shape" fill-rule="evenodd" clip-rule="evenodd" d="M22.5764 11.7011C22.5171 10.4194 22.2312 9.28406 21.314 8.34866C20.4004 7.41326 19.2915 7.1205 18.0396 7.05623C16.7493 6.98126 12.882 6.98126 11.5918 7.05623C10.3433 7.11693 9.23442 7.40969 8.31729 8.34509C7.40016 9.28049 7.11769 10.4158 7.05492 11.6975C6.98169 13.0185 6.98169 16.9779 7.05492 18.2989C7.11421 19.5806 7.40016 20.7159 8.31729 21.6513C9.23442 22.5867 10.3399 22.8795 11.5918 22.9438C12.882 23.0187 16.7493 23.0187 18.0396 22.9438C19.2915 22.8831 20.4004 22.5903 21.314 21.6513C22.2277 20.7159 22.5136 19.5806 22.5764 18.2989C22.6496 16.9779 22.6496 13.0221 22.5764 11.7011ZM18.9885 11.6871C19.5046 11.6871 19.9231 11.2622 19.9231 10.7303C19.9231 10.2019 19.5046 9.77344 18.9885 9.77344C18.4724 9.77344 18.054 10.2019 18.054 10.7303C18.054 11.2587 18.4689 11.6871 18.9885 11.6871ZM14.8179 10.8977C12.6 10.8977 10.8111 12.7293 10.8111 14.9999C10.8111 17.2706 12.6 19.1021 14.8179 19.1021C17.0357 19.1021 18.8247 17.2706 18.8247 14.9999C18.8247 12.7293 17.0357 10.8977 14.8179 10.8977ZM14.8173 17.667C13.384 17.667 12.2123 16.471 12.2123 15.0001C12.2123 13.5291 13.3806 12.3331 14.8173 12.3331C16.254 12.3331 17.4222 13.5291 17.4222 15.0001C17.4222 16.471 16.2505 17.667 14.8173 17.667ZM19.4239 21.2372C20.1109 20.9551 20.6375 20.416 20.9095 19.7162C21.2594 18.8159 21.2399 16.8466 21.2273 15.57C21.2252 15.3582 21.2233 15.1656 21.2233 15C21.2233 14.8343 21.2252 14.6417 21.2273 14.43C21.2399 13.1541 21.2594 11.187 20.9095 10.2837C20.634 9.58034 20.1074 9.04124 19.4239 8.76276C18.5418 8.40642 16.6089 8.4254 15.3624 8.43764C15.1602 8.43963 14.976 8.44144 14.8173 8.44144C14.6556 8.44144 14.4674 8.43949 14.2606 8.43734C13.0144 8.42441 11.0931 8.40448 10.2108 8.76276C9.52378 9.04481 8.99722 9.58391 8.72521 10.2837C8.37716 11.1868 8.3957 13.1657 8.40766 14.4419C8.4096 14.649 8.41137 14.8375 8.41137 15C8.41137 15.1656 8.40946 15.3582 8.40737 15.5699C8.39474 16.8458 8.37527 18.8129 8.72521 19.7162C9.0007 20.4196 9.52727 20.9587 10.2108 21.2372C11.0929 21.5935 13.0257 21.5745 14.2723 21.5623C14.4745 21.5603 14.6587 21.5585 14.8173 21.5585C14.9791 21.5585 15.1673 21.5604 15.3741 21.5626C16.6203 21.5755 18.5416 21.5954 19.4239 21.2372Z" fill="white"></path>
  </g>
</svg>
