<?xml version="1.0" encoding="UTF-8"?>
<svg xmlns="http://www.w3.org/2000/svg" width="30" height="30" viewBox="0 0 30 30" fill="none">
  <g id="IN">
    <circle id="Ellipse 11" cx="15" cy="15" r="15" fill="#2B2C2C"></circle>
    <g id="linkedin-in-brands">
      <path id="Shape" fill-rule="evenodd" clip-rule="evenodd" d="M8.92107 10.8604C7.86036 10.8604 7 9.98179 7 8.92107C7 7.86009 7.86009 7 8.92107 7C9.98205 7 10.8421 7.86009 10.8421 8.92107C10.8421 9.98179 9.98143 10.8604 8.92107 10.8604ZM10.5806 22.9999H7.26349V12.3177H10.5806V22.9999ZM19.687 22.999H22.997H23.0006V17.1311C23.0006 14.2597 22.3834 12.049 19.0263 12.049C17.4124 12.049 16.3306 12.9347 15.8877 13.774H15.8413V12.3168H12.6599V22.999H15.9734V17.7097C15.9734 16.3168 16.2377 14.9704 17.9624 14.9704C19.662 14.9704 19.687 16.5597 19.687 17.799V22.999Z" fill="white"></path>
    </g>
  </g>
</svg>
