<?xml version="1.0" encoding="UTF-8"?>
<svg xmlns="http://www.w3.org/2000/svg" width="192" height="50" viewBox="0 0 192 50" fill="none">
  <g id="Logo">
    <g id="Logo_00000072992693527452643690000005886302759030511508_">
      <g id="Logotipo_00000093874965004304405050000002026204473863285918_">
        <path id="Vector" d="M119.947 6.43896V43.2792H115.381V39.1126C114.321 40.5721 112.98 41.6785 111.355 42.4318C109.731 43.185 107.942 43.5852 105.988 43.5852C103.446 43.5852 101.162 43.0203 99.138 41.8903C97.1135 40.7604 95.5363 39.1832 94.4064 37.1588C93.253 35.1343 92.688 32.7803 92.688 30.1438C92.688 27.5073 93.253 25.1533 94.4064 23.1524C95.5599 21.128 97.1371 19.5508 99.138 18.4444C101.162 17.3145 103.446 16.7495 105.988 16.7495C107.871 16.7495 109.613 17.1026 111.191 17.8088C112.768 18.515 114.109 19.5743 115.169 20.9632V6.46251H119.947V6.43896ZM110.908 38.2416C112.273 37.4648 113.333 36.382 114.086 34.9696C114.839 33.5571 115.239 31.9564 115.239 30.1203C115.239 28.3077 114.863 26.6834 114.086 25.271C113.333 23.8586 112.273 22.7758 110.908 22.0225C109.543 21.2692 108.036 20.869 106.388 20.869C104.693 20.869 103.187 21.2457 101.845 22.0225C100.503 22.7758 99.444 23.8586 98.6672 25.271C97.8904 26.6834 97.4902 28.2842 97.4902 30.1203C97.4902 31.9329 97.8904 33.5571 98.6672 34.9696C99.444 36.382 100.503 37.4648 101.845 38.2416C103.187 39.0184 104.693 39.4186 106.388 39.4186C108.036 39.3951 109.543 39.0184 110.908 38.2416Z" fill="#2B2C2C"></path>
        <path id="Vector_2" d="M150.691 31.6968H129.34C129.646 34.0037 130.658 35.8869 132.4 37.2758C134.142 38.6882 136.308 39.3944 138.874 39.3944C142.028 39.3944 144.547 38.3351 146.477 36.2165L149.114 39.3003C147.913 40.6891 146.43 41.7484 144.665 42.4782C142.899 43.2079 140.922 43.561 138.733 43.561C135.955 43.561 133.483 42.9961 131.341 41.8426C129.199 40.6891 127.527 39.1119 126.35 37.0404C125.173 34.9924 124.585 32.6619 124.585 30.0961C124.585 27.5537 125.15 25.2468 126.303 23.1988C127.457 21.1508 129.01 19.5501 131.011 18.3967C133.012 17.2432 135.272 16.6782 137.791 16.6782C140.31 16.6782 142.546 17.2432 144.523 18.3967C146.501 19.5501 148.031 21.1273 149.137 23.1988C150.244 25.2468 150.809 27.6008 150.809 30.2609C150.785 30.6375 150.738 31.1083 150.691 31.6968ZM132.047 22.8222C130.517 24.2111 129.599 26.0236 129.34 28.2835H146.218C145.959 26.0707 145.041 24.2581 143.511 22.8457C141.981 21.4333 140.051 20.7271 137.767 20.7271C135.484 20.7271 133.577 21.4333 132.047 22.8222Z" fill="#2B2C2C"></path>
        <path id="Vector_3" d="M155.397 6.43896H160.153V43.2792H155.397V6.43896Z" fill="#2B2C2C"></path>
        <path id="Vector_4" d="M190.946 31.6968H169.595C169.901 34.0037 170.914 35.8869 172.656 37.2758C174.398 38.6882 176.563 39.3944 179.129 39.3944C182.284 39.3944 184.802 38.3351 186.733 36.2165L189.369 39.3003C188.169 40.6891 186.686 41.7484 184.92 42.4782C183.155 43.2079 181.177 43.561 178.988 43.561C176.21 43.561 173.738 42.9961 171.596 41.8426C169.454 40.6891 167.783 39.1119 166.606 37.0404C165.429 34.9924 164.84 32.6619 164.84 30.0961C164.84 27.5537 165.405 25.2468 166.559 23.1988C167.712 21.1508 169.266 19.5501 171.267 18.3967C173.268 17.2432 175.528 16.6782 178.046 16.6782C180.565 16.6782 182.801 17.2432 184.779 18.3967C186.756 19.5501 188.286 21.1273 189.393 23.1988C190.499 25.2468 191.064 27.6008 191.064 30.2609C191.064 30.6375 191.017 31.1083 190.946 31.6968ZM172.303 22.8222C170.772 24.2111 169.854 26.0236 169.595 28.2835H186.474C186.215 26.0707 185.297 24.2581 183.767 22.8457C182.236 21.4333 180.306 20.7271 178.023 20.7271C175.739 20.7271 173.856 21.4333 172.303 22.8222Z" fill="#2B2C2C"></path>
        <path id="Vector_5" d="M88.1222 16.7251V43.3019H83.5554V39.1117C82.4961 40.5712 81.1544 41.6776 79.5301 42.4309C77.9058 43.1842 76.1168 43.5843 74.1629 43.5843C71.6206 43.5843 69.3372 43.0194 67.3128 41.8895C65.2883 40.7595 63.7111 39.1823 62.5812 37.1579C61.4278 35.1334 60.8628 32.7794 60.8628 30.1429C60.8628 27.5065 61.4278 25.1525 62.5812 23.1515C63.7347 21.1271 65.3119 19.5499 67.3128 18.4435C69.3372 17.3136 71.6206 16.7486 74.1629 16.7486C76.0462 16.7486 77.7881 17.1017 79.3653 17.8079C80.9425 18.5141 82.2843 19.5734 83.3436 20.9623V16.7486H88.1222V16.7251ZM79.0828 38.2407C80.4481 37.4639 81.5075 36.3811 82.2607 34.9687C83.014 33.5563 83.4142 31.9555 83.4142 30.1194C83.4142 28.3068 83.0376 26.6826 82.2607 25.2702C81.5075 23.8577 80.4481 22.7749 79.0828 22.0216C77.7175 21.2683 76.2109 20.8682 74.5631 20.8682C72.8682 20.8682 71.3617 21.2448 70.0199 22.0216C68.6781 22.7749 67.6188 23.8577 66.842 25.2702C66.0652 26.6826 65.665 28.2833 65.665 30.1194C65.665 31.932 66.0652 33.5563 66.842 34.9687C67.6188 36.3811 68.6781 37.4639 70.0199 38.2407C71.3617 39.0176 72.8682 39.4177 74.5631 39.4177C76.2345 39.4177 77.741 39.0176 79.0828 38.2407Z" fill="#2B2C2C"></path>
      </g>
      <g id="Group">
        <g id="Omino_rosso_00000067211726076461735800000015347431530535206535_">
          <path id="Vector_6" d="M8.46294 8.25C8.98082 7.68504 8.81604 6.60219 8.5571 6.13139L7.66258 4.38943C6.88576 3.0241 5.84999 1.91772 4.57883 1.11735C4.39051 0.999652 4.17865 1.02319 3.94324 1.16443C3.89616 1.21151 3.82554 1.25859 3.77846 1.30567L2.5073 2.671L1.25967 4.03632C1.21259 4.0834 1.16551 4.13048 1.11843 4.2011C0.977193 4.43651 0.953651 4.64837 1.09489 4.83669C1.96588 6.06077 3.11934 7.00238 4.55529 7.70858L6.34433 8.4854C6.83868 8.69726 7.94506 8.81496 8.46294 8.25Z" fill="#DC2D2E" stroke="#DC2D2E" stroke-width="0.623748" stroke-miterlimit="10"></path>
          <path id="Vector_7" d="M30.9689 12.9817C29.533 13.2878 28.5207 13.2407 27.0142 12.6522C25.6489 12.1108 24.5189 10.9102 23.2948 9.7332C22.6357 9.09762 21.9766 8.43849 21.2233 7.80291C17.9277 5.0958 13.7611 4.57792 10.489 7.00255C10.5597 8.03831 10.1595 8.95638 9.71221 9.42718C9.26495 9.89798 8.34689 10.3923 7.33466 10.3688C4.79233 14.2294 6.01642 18.9609 9.66513 21.9505L10.0418 19.9731C7.87609 17.7368 7.1228 13.3584 9.71221 10.1805C12.3016 7.00255 16.9861 6.53175 20.164 9.12116C20.8702 9.70966 21.5058 10.3452 22.1414 10.9573C23.4596 12.252 24.7308 13.4761 26.3551 14.2058C28.2147 15.0533 30.1921 15.0768 32.6167 14.3235L30.9689 12.9817Z" fill="#DC2D2E" stroke="#DC2D2E" stroke-width="2.44426" stroke-miterlimit="10"></path>
        </g>
        <g id="Omino_rosso_00000047776094432382093620000006330430596125617065_">
          <path id="Vector_8" d="M41.7011 8.48648C42.266 9.00436 43.3489 8.83958 43.8197 8.58064L45.5616 7.68612C46.927 6.9093 48.0333 5.87353 48.8337 4.60237C48.9514 4.41405 48.9279 4.20218 48.7866 3.96678C48.7395 3.9197 48.6925 3.84908 48.6454 3.802L47.2801 2.53084L45.9147 1.25967C45.8677 1.21259 45.8206 1.16551 45.75 1.11843C45.5146 0.977192 45.3027 0.953652 45.1144 1.09489C43.8903 1.96588 42.9487 3.11934 42.2425 4.55529L41.4657 6.34433C41.2538 6.88576 41.1596 7.9686 41.7011 8.48648Z" fill="#3BAF7C" stroke="#3BAF7C" stroke-width="0.623748" stroke-miterlimit="10"></path>
          <path id="Vector_9" d="M36.9698 30.9899C36.6637 29.554 36.7108 28.5417 37.2993 27.0352C37.8407 25.6699 39.0413 24.5399 40.2183 23.3158C40.8539 22.6567 41.513 21.9976 42.1486 21.2443C44.8557 17.9487 45.3736 13.7821 42.9489 10.51C41.9132 10.5807 40.9951 10.1805 40.5243 9.73321C40.0535 9.28595 39.5592 8.36788 39.5827 7.35566C35.7221 4.81333 30.9906 6.03741 28.001 9.68613L29.9783 10.0628C32.2147 7.89708 36.5931 7.1438 39.771 9.73321C42.9489 12.3226 43.4197 17.0071 40.8303 20.185C40.2418 20.8912 39.6062 21.5268 38.9942 22.1624C37.6995 23.4806 36.4754 24.7518 35.7457 26.3761C34.8982 28.2357 34.8747 30.2131 35.628 32.6377L36.9698 30.9899Z" fill="#3BAF7C" stroke="#3BAF7C" stroke-width="2.44426" stroke-miterlimit="10"></path>
        </g>
        <g id="Omino_rosso_00000092443628983300620380000011697465776858790548_">
          <path id="Vector_10" d="M41.4679 41.7725C40.95 42.3375 41.1148 43.4203 41.3737 43.8911L42.2683 45.6331C43.0451 46.9984 44.0808 48.1048 45.352 48.9052C45.5403 49.0229 45.7522 48.9993 45.9876 48.8581C46.0347 48.811 46.1053 48.7639 46.1524 48.7169L47.4235 47.3515L48.6947 45.9862C48.7418 45.9391 48.7889 45.892 48.8359 45.8214C48.9772 45.586 49.0007 45.3742 48.8595 45.1858C47.9885 43.9618 46.835 43.0202 45.3991 42.314L43.61 41.5371C43.0922 41.3253 41.9858 41.2076 41.4679 41.7725Z" fill="#2A8CCC" stroke="#2A8CCC" stroke-width="0.623748" stroke-miterlimit="10"></path>
          <path id="Vector_11" d="M18.9632 37.0406C20.3992 36.7345 21.4114 36.7816 22.918 37.3701C24.2833 37.9115 25.4132 39.1121 26.6373 40.2891C27.2964 40.9247 27.9556 41.5838 28.7088 42.2194C32.0044 44.9265 36.171 45.4444 39.4431 43.0197C39.3725 41.984 39.7727 41.0659 40.2199 40.5951C40.6672 40.1243 41.5853 39.63 42.5975 39.6535C45.1398 35.7929 43.9157 31.0614 40.267 28.0718L39.8904 30.0491C42.0561 32.2855 42.8093 36.6639 40.2199 39.8418C37.6305 43.0197 32.946 43.4905 29.7681 40.9011C29.0619 40.3126 28.4264 39.677 27.7908 39.065C26.4725 37.7703 25.2014 36.5462 23.5771 35.8165C21.7174 34.969 19.7401 34.9455 17.3154 35.6988L18.9632 37.0406Z" fill="#2A8CCC" stroke="#2A8CCC" stroke-width="2.44426" stroke-miterlimit="10"></path>
        </g>
        <g id="Omino_rosso_00000039096490035440379750000017960798921419734413_">
          <path id="Vector_12" d="M8.22656 41.5138C7.6616 40.9959 6.57876 41.1607 6.10796 41.4196L4.36599 42.3142C3.00066 43.091 1.89428 44.1267 1.09392 45.3979C0.976215 45.5862 0.999756 45.7981 1.141 46.0335C1.18808 46.0806 1.23516 46.1512 1.28224 46.1983L2.64756 47.4694L4.01289 48.7406C4.05997 48.7877 4.10705 48.8348 4.17767 48.8818C4.41307 49.0231 4.62493 49.0466 4.81325 48.9054C6.03734 48.0344 6.97894 46.8809 7.68514 45.445L8.46197 43.6559C8.67383 43.1381 8.76799 42.0317 8.22656 41.5138Z" fill="#F5BF2F" stroke="#F5BF2F" stroke-width="0.623748" stroke-miterlimit="10"></path>
          <path id="Vector_13" d="M12.9568 19.0326C13.2629 20.4685 13.2158 21.4807 12.6273 22.9873C12.0858 24.3526 10.8853 25.4826 9.7083 26.7066C9.07272 27.3658 8.41359 28.0249 7.77801 28.7782C5.0709 32.0738 4.55302 36.2404 6.97765 39.5125C8.01341 39.4418 8.93147 39.842 9.40228 40.2893C9.87308 40.7365 10.3674 41.6546 10.3439 42.6668C14.2045 45.2092 18.936 43.9851 21.9256 40.3364L19.9482 39.9597C17.7119 42.1254 13.3335 42.8787 10.1556 40.2893C6.97765 37.6999 6.50684 33.0154 9.09625 29.8375C9.68476 29.1313 10.3203 28.4957 10.9324 27.8601C12.2271 26.5419 13.4512 25.2707 14.1809 23.6464C15.0284 21.7868 15.0519 19.8094 14.2986 17.3848L12.9568 19.0326Z" fill="#F5BF2F" stroke="#F5BF2F" stroke-width="2.44426" stroke-miterlimit="10"></path>
        </g>
      </g>
    </g>
  </g>
</svg>
