<?xml version="1.0" encoding="UTF-8"?>
<svg xmlns="http://www.w3.org/2000/svg" width="166" height="43" viewBox="0 0 166 43" fill="none">
  <g id="Logo">
    <g id="Logo_00000072992693527452643690000005886302759030511508_">
      <g id="Logotipo_00000093874965004304405050000002026204473863285918_">
        <path id="Vector" d="M104.263 5.72217V37.7043H100.298V34.0872C99.3787 35.3542 98.2139 36.3147 96.8038 36.9687C95.3937 37.6226 93.8406 37.97 92.1444 37.97C89.9373 37.97 87.9551 37.4795 86.1976 36.4986C84.4401 35.5177 83.0709 34.1485 82.09 32.391C81.0886 30.6335 80.5981 28.5899 80.5981 26.3011C80.5981 24.0123 81.0886 21.9687 82.09 20.2317C83.0913 18.4742 84.4605 17.105 86.1976 16.1445C87.9551 15.1636 89.9373 14.6731 92.1444 14.6731C93.7793 14.6731 95.2916 14.9796 96.6608 15.5927C98.03 16.2058 99.1948 17.1254 100.114 18.3311V5.74261H104.263V5.72217ZM96.4155 33.3311C97.6008 32.6567 98.5204 31.7166 99.1744 30.4905C99.8283 29.2643 100.176 27.8747 100.176 26.2807C100.176 24.7071 99.8488 23.297 99.1744 22.0709C98.5204 20.8447 97.6008 19.9047 96.4155 19.2507C95.2303 18.5968 93.9224 18.2494 92.4918 18.2494C91.0205 18.2494 89.7126 18.5763 88.5477 19.2507C87.3829 19.9047 86.4633 20.8447 85.7889 22.0709C85.1145 23.297 84.7671 24.6867 84.7671 26.2807C84.7671 27.8542 85.1145 29.2643 85.7889 30.4905C86.4633 31.7166 87.3829 32.6567 88.5477 33.3311C89.7126 34.0054 91.0205 34.3529 92.4918 34.3529C93.9224 34.3324 95.2303 34.0054 96.4155 33.3311Z" fill="#2B2C2C"></path>
        <path id="Vector_2" d="M130.952 27.6489H112.417C112.683 29.6517 113.562 31.2865 115.074 32.4923C116.586 33.7184 118.466 34.3315 120.694 34.3315C123.432 34.3315 125.619 33.4119 127.294 31.5726L129.583 34.2497C128.541 35.4555 127.254 36.3751 125.721 37.0086C124.188 37.6421 122.472 37.9486 120.571 37.9486C118.16 37.9486 116.014 37.4582 114.154 36.4568C112.295 35.4555 110.844 34.0863 109.822 32.2879C108.8 30.51 108.289 28.4868 108.289 26.2593C108.289 24.0522 108.78 22.0495 109.781 20.2716C110.782 18.4937 112.131 17.104 113.868 16.1027C115.605 15.1013 117.567 14.6108 119.754 14.6108C121.94 14.6108 123.882 15.1013 125.598 16.1027C127.315 17.104 128.643 18.4732 129.604 20.2716C130.564 22.0495 131.055 24.0931 131.055 26.4024C131.034 26.7293 130.993 27.138 130.952 27.6489ZM114.767 19.9446C113.439 21.1503 112.642 22.7239 112.417 24.6857H127.07C126.845 22.7648 126.048 21.1912 124.72 19.965C123.391 18.7389 121.715 18.1258 119.733 18.1258C117.751 18.1258 116.096 18.7389 114.767 19.9446Z" fill="#2B2C2C"></path>
        <path id="Vector_3" d="M135.039 5.72217H139.167V37.7043H135.039V5.72217Z" fill="#2B2C2C"></path>
        <path id="Vector_4" d="M165.898 27.6489H147.362C147.628 29.6517 148.507 31.2865 150.019 32.4923C151.531 33.7184 153.411 34.3315 155.639 34.3315C158.377 34.3315 160.564 33.4119 162.24 31.5726L164.529 34.2497C163.486 35.4555 162.199 36.3751 160.666 37.0086C159.134 37.6421 157.417 37.9486 155.516 37.9486C153.105 37.9486 150.959 37.4582 149.099 36.4568C147.24 35.4555 145.789 34.0863 144.767 32.2879C143.745 30.51 143.234 28.4868 143.234 26.2593C143.234 24.0522 143.725 22.0495 144.726 20.2716C145.728 18.4937 147.076 17.104 148.813 16.1027C150.55 15.1013 152.512 14.6108 154.699 14.6108C156.886 14.6108 158.827 15.1013 160.544 16.1027C162.26 17.104 163.589 18.4732 164.549 20.2716C165.51 22.0495 166 24.0931 166 26.4024C166 26.7293 165.959 27.138 165.898 27.6489ZM149.713 19.9446C148.384 21.1503 147.587 22.7239 147.362 24.6857H162.015C161.79 22.7648 160.993 21.1912 159.665 19.965C158.337 18.7389 156.661 18.1258 154.678 18.1258C152.696 18.1258 151.061 18.7389 149.713 19.9446Z" fill="#2B2C2C"></path>
        <path id="Vector_5" d="M76.634 14.6514V37.7235H72.6694V34.0859C71.7498 35.3529 70.585 36.3134 69.1749 36.9674C67.7648 37.6213 66.2117 37.9687 64.5155 37.9687C62.3084 37.9687 60.3262 37.4783 58.5687 36.4973C56.8112 35.5164 55.442 34.1472 54.4611 32.3897C53.4597 30.6322 52.9692 28.5886 52.9692 26.2998C52.9692 24.011 53.4597 21.9674 54.4611 20.2304C55.4624 18.4729 56.8316 17.1037 58.5687 16.1432C60.3262 15.1623 62.3084 14.6718 64.5155 14.6718C66.1504 14.6718 67.6626 14.9783 69.0319 15.5914C70.4011 16.2045 71.5659 17.1241 72.4855 18.3298V14.6718H76.634V14.6514ZM68.7866 33.3298C69.9719 32.6554 70.8915 31.7153 71.5455 30.4892C72.1994 29.263 72.5468 27.8734 72.5468 26.2794C72.5468 24.7058 72.2199 23.2958 71.5455 22.0696C70.8915 20.8434 69.9719 19.9034 68.7866 19.2494C67.6013 18.5955 66.2934 18.2481 64.8629 18.2481C63.3915 18.2481 62.0836 18.5751 60.9188 19.2494C59.754 19.9034 58.8343 20.8434 58.16 22.0696C57.4856 23.2958 57.1382 24.6854 57.1382 26.2794C57.1382 27.853 57.4856 29.263 58.16 30.4892C58.8343 31.7153 59.754 32.6554 60.9188 33.3298C62.0836 34.0042 63.3915 34.3516 64.8629 34.3516C66.3139 34.3516 67.6218 34.0042 68.7866 33.3298Z" fill="#2B2C2C"></path>
      </g>
      <g id="Group">
        <g id="Omino_rosso_00000067211726076461735800000015347431530535206535_">
          <path id="Vector_6" d="M7.47882 7.29461C7.92841 6.80415 7.78535 5.8641 7.56056 5.45538L6.78399 3.94312C6.10961 2.75784 5.21043 1.79735 4.10689 1.10253C3.9434 1.00035 3.75948 1.02079 3.55512 1.14341C3.51425 1.18428 3.45294 1.22515 3.41207 1.26602L2.30853 2.4513L1.22543 3.63658C1.18456 3.67746 1.14369 3.71833 1.10282 3.77963C0.9802 3.98399 0.959763 4.16792 1.08238 4.3314C1.83851 5.39407 2.83987 6.21151 4.08646 6.82458L5.63958 7.49897C6.06874 7.68289 7.02923 7.78507 7.47882 7.29461Z" fill="#DC2D2E" stroke="#DC2D2E" stroke-width="0.541495" stroke-miterlimit="10"></path>
          <path id="Vector_7" d="M27.0164 11.4022C25.7698 11.6678 24.8911 11.627 23.5832 11.1161C22.3979 10.646 21.417 9.60381 20.3543 8.58202C19.7821 8.03025 19.2099 7.45804 18.5559 6.90627C15.6949 4.55615 12.0777 4.10656 9.23716 6.21145C9.29847 7.11063 8.95106 7.90763 8.56277 8.31635C8.17449 8.72507 7.37749 9.15422 6.49875 9.13379C4.29167 12.4853 5.35434 16.5929 8.5219 19.1882L8.84888 17.4716C6.96877 15.5302 6.31483 11.7291 8.56277 8.9703C10.8107 6.21145 14.8775 5.80274 17.6363 8.05068C18.2494 8.56158 18.8012 9.11335 19.3529 9.64468C20.4973 10.7687 21.6009 11.8313 23.011 12.4648C24.6254 13.2005 26.342 13.221 28.4469 12.567L27.0164 11.4022Z" fill="#DC2D2E" stroke="#DC2D2E" stroke-width="2.12194" stroke-miterlimit="10"></path>
        </g>
        <g id="Omino_rosso_00000047776094432382093620000006330430596125617065_">
          <path id="Vector_8" d="M36.334 7.49925C36.8245 7.94884 37.7645 7.80579 38.1732 7.581L39.6855 6.80443C40.8708 6.13005 41.8312 5.23087 42.5261 4.12733C42.6282 3.96384 42.6078 3.77992 42.4852 3.57556C42.4443 3.53469 42.4035 3.47338 42.3626 3.43251L41.1773 2.32897L39.992 1.22543C39.9511 1.18456 39.9103 1.14369 39.849 1.10282C39.6446 0.9802 39.4607 0.959764 39.2972 1.08238C38.2345 1.83851 37.4171 2.83987 36.804 4.08646L36.1296 5.63959C35.9457 6.10961 35.864 7.04966 36.334 7.49925Z" fill="#3BAF7C" stroke="#3BAF7C" stroke-width="0.541495" stroke-miterlimit="10"></path>
          <path id="Vector_9" d="M32.2275 27.0354C31.9618 25.7888 32.0027 24.9101 32.5136 23.6022C32.9836 22.4169 34.0258 21.436 35.0476 20.3733C35.5994 19.8011 36.1716 19.2289 36.7234 18.575C39.0735 15.7139 39.5231 12.0968 37.4182 9.2562C36.519 9.31751 35.722 8.9701 35.3133 8.58182C34.9046 8.19353 34.4754 7.39654 34.4959 6.51779C31.1444 4.31071 27.0368 5.37338 24.4414 8.54095L26.158 8.86792C28.0994 6.98782 31.9005 6.33387 34.6594 8.58182C37.4182 10.8298 37.8269 14.8965 35.579 17.6554C35.0681 18.2684 34.5163 18.8202 33.985 19.372C32.861 20.5164 31.7983 21.6199 31.1648 23.03C30.4291 24.6444 30.4087 26.361 31.0626 28.4659L32.2275 27.0354Z" fill="#3BAF7C" stroke="#3BAF7C" stroke-width="2.12194" stroke-miterlimit="10"></path>
        </g>
        <g id="Omino_rosso_00000092443628983300620380000011697465776858790548_">
          <path id="Vector_10" d="M36.1307 36.3961C35.6811 36.8866 35.8242 37.8266 36.049 38.2353L36.8255 39.7476C37.4999 40.9329 38.3991 41.8934 39.5026 42.5882C39.6661 42.6904 39.85 42.6699 40.0544 42.5473C40.0953 42.5064 40.1566 42.4656 40.1975 42.4247L41.301 41.2394L42.4045 40.0541C42.4454 40.0133 42.4863 39.9724 42.5271 39.9111C42.6498 39.7067 42.6702 39.5228 42.5476 39.3593C41.7915 38.2966 40.7901 37.4792 39.5435 36.8661L37.9904 36.1917C37.5408 36.0078 36.5803 35.9056 36.1307 36.3961Z" fill="#2A8CCC" stroke="#2A8CCC" stroke-width="0.541495" stroke-miterlimit="10"></path>
          <path id="Vector_11" d="M16.5941 32.288C17.8407 32.0224 18.7194 32.0632 20.0273 32.5741C21.2126 33.0442 22.1935 34.0864 23.2562 35.1082C23.8284 35.66 24.4006 36.2322 25.0545 36.7839C27.9156 39.1341 31.5327 39.5836 34.3733 37.4787C34.312 36.5796 34.6594 35.7826 35.0477 35.3738C35.436 34.9651 36.233 34.536 37.1117 34.5564C39.3188 31.2049 38.2561 27.0973 35.0886 24.502L34.7616 26.2186C36.6417 28.16 37.2956 31.9611 35.0477 34.7199C32.7998 37.4787 28.733 37.8875 25.9742 35.6395C25.3611 35.1286 24.8093 34.5768 24.2575 34.0455C23.1131 32.9215 22.0096 31.8589 20.5995 31.2254C18.9851 30.4897 17.2685 30.4692 15.1636 31.1232L16.5941 32.288Z" fill="#2A8CCC" stroke="#2A8CCC" stroke-width="2.12194" stroke-miterlimit="10"></path>
        </g>
        <g id="Omino_rosso_00000039096490035440379750000017960798921419734413_">
          <path id="Vector_12" d="M7.27508 36.1717C6.78462 35.7221 5.84457 35.8652 5.43585 36.09L3.92359 36.8665C2.73831 37.5409 1.77782 38.4401 1.083 39.5436C0.980822 39.7071 1.00126 39.8911 1.12387 40.0954C1.16475 40.1363 1.20562 40.1976 1.24649 40.2385L2.43177 41.342L3.61705 42.4455C3.65792 42.4864 3.6988 42.5273 3.7601 42.5682C3.96446 42.6908 4.14839 42.7112 4.31187 42.5886C5.37454 41.8325 6.19198 40.8311 6.80505 39.5845L7.47944 38.0314C7.66336 37.5818 7.7451 36.6213 7.27508 36.1717Z" fill="#F5BF2F" stroke="#F5BF2F" stroke-width="0.541495" stroke-miterlimit="10"></path>
          <path id="Vector_13" d="M11.3817 16.6551C11.6473 17.9017 11.6065 18.7805 11.0956 20.0884C10.6255 21.2736 9.58331 22.2546 8.56151 23.3172C8.00974 23.8894 7.43754 24.4616 6.88577 25.1156C4.53564 27.9766 4.08605 31.5938 6.19095 34.4344C7.09013 34.373 7.88713 34.7205 8.29584 35.1087C8.70456 35.497 9.13372 36.294 9.11328 37.1728C12.4648 39.3798 16.5724 38.3172 19.1677 35.1496L17.4511 34.8226C15.5097 36.7027 11.7086 37.3567 8.94979 35.1087C6.19095 32.8608 5.78223 28.794 8.03018 26.0352C8.54107 25.4221 9.09284 24.8704 9.62418 24.3186C10.7482 23.1742 11.8108 22.0706 12.4443 20.6606C13.18 19.0461 13.2005 17.3295 12.5465 15.2246L11.3817 16.6551Z" fill="#F5BF2F" stroke="#F5BF2F" stroke-width="2.12194" stroke-miterlimit="10"></path>
        </g>
      </g>
    </g>
  </g>
</svg>
