<?xml version="1.0" encoding="UTF-8"?>
<svg xmlns="http://www.w3.org/2000/svg" width="796" height="272" viewBox="0 0 796 272" fill="none">
  <path d="M3.05904 1.75495C3.05904 0.946053 2.36381 0.271973 1.52952 0.271973C0.695237 0.271973 0 0.946053 0 1.75495C0 2.56385 0.695237 3.23793 1.52952 3.23793C2.36381 3.23793 3.05904 2.56385 3.05904 1.75495ZM3.05904 31.2796C3.05904 30.4708 2.36381 29.7967 1.52952 29.7967C0.695237 29.7967 0 30.4708 0 31.2796C0 32.0885 0.695237 32.7626 1.52952 32.7626C2.36381 32.7626 3.05904 32.0885 3.05904 31.2796ZM3.05904 60.8718C3.05904 60.0629 2.36381 59.3888 1.52952 59.3888C0.695237 59.3888 0 60.0629 0 60.8718C0 61.6806 0.695237 62.3548 1.52952 62.3548C2.36381 62.3548 3.05904 61.6806 3.05904 60.8718ZM3.05904 90.3967C3.05904 89.5876 2.36381 88.9134 1.52952 88.9134C0.695237 88.9134 0 89.5876 0 90.3967C0 91.2057 0.695237 91.8791 1.52952 91.8791C2.36381 91.8791 3.05904 91.2057 3.05904 90.3967ZM3.05904 119.921C3.05904 119.112 2.36381 118.439 1.52952 118.439C0.695237 118.439 0 119.112 0 119.921C0 120.73 0.695237 121.404 1.52952 121.404C2.36381 121.404 3.05904 120.73 3.05904 119.921ZM3.05904 149.513C3.05904 148.704 2.36381 148.031 1.52952 148.031C0.695237 148.031 0 148.704 0 149.513C0 150.322 0.695237 150.996 1.52952 150.996C2.36381 150.996 3.05904 150.322 3.05904 149.513ZM3.05904 179.038C3.05904 178.229 2.36381 177.555 1.52952 177.555C0.695237 177.555 0 178.229 0 179.038C0 179.847 0.695237 180.521 1.52952 180.521C2.36381 180.521 3.05904 179.847 3.05904 179.038ZM3.05904 208.562C3.05904 207.753 2.36381 207.08 1.52952 207.08C0.695237 207.08 0 207.753 0 208.562C0 209.371 0.695237 210.046 1.52952 210.046C2.36381 210.046 3.05904 209.439 3.05904 208.562ZM3.05904 238.155C3.05904 237.346 2.36381 236.672 1.52952 236.672C0.695237 236.672 0 237.346 0 238.155C0 238.964 0.695237 239.638 1.52952 239.638C2.36381 239.638 3.05904 238.964 3.05904 238.155ZM3.05904 267.68C3.05904 266.871 2.36381 266.196 1.52952 266.196C0.695237 266.196 0 266.871 0 267.68C0 268.489 0.695237 269.163 1.52952 269.163C2.36381 269.163 3.05904 268.489 3.05904 267.68ZM3.05904 297.272C3.05904 296.463 2.36381 295.789 1.52952 295.789C0.695237 295.789 0 296.463 0 297.272C0 298.081 0.695237 298.755 1.52952 298.755C2.36381 298.687 3.05904 298.081 3.05904 297.272ZM3.05904 326.796C3.05904 325.988 2.36381 325.314 1.52952 325.314C0.695237 325.314 0 325.988 0 326.796C0 327.605 0.695237 328.279 1.52952 328.279C2.36381 328.279 3.05904 327.605 3.05904 326.796ZM3.05904 356.321C3.05904 355.512 2.36381 354.838 1.52952 354.838C0.695237 354.838 0 355.512 0 356.321C0 357.13 0.695237 357.804 1.52952 357.804C2.36381 357.804 3.05904 357.13 3.05904 356.321ZM3.05904 385.913C3.05904 385.104 2.36381 384.43 1.52952 384.43C0.695237 384.43 0 385.104 0 385.913C0 386.722 0.695237 387.396 1.52952 387.396C2.36381 387.396 3.05904 386.722 3.05904 385.913ZM3.05904 415.438C3.05904 414.629 2.36381 413.955 1.52952 413.955C0.695237 413.955 0 414.629 0 415.438C0 416.247 0.695237 416.921 1.52952 416.921C2.36381 416.921 3.05904 416.247 3.05904 415.438ZM3.05904 444.963C3.05904 444.154 2.36381 443.479 1.52952 443.479C0.695237 443.479 0 444.154 0 444.963C0 445.772 0.695237 446.446 1.52952 446.446C2.36381 446.446 3.05904 445.772 3.05904 444.963ZM3.05904 474.555C3.05904 473.746 2.36381 473.071 1.52952 473.071C0.695237 473.071 0 473.746 0 474.555C0 475.364 0.695237 476.038 1.52952 476.038C2.36381 476.038 3.05904 475.364 3.05904 474.555ZM795.421 1.75495C795.421 0.946053 794.725 0.271973 793.892 0.271973C793.057 0.271973 792.362 0.946053 792.362 1.75495C792.362 2.56385 793.057 3.23793 793.892 3.23793C794.725 3.23793 795.421 2.56385 795.421 1.75495ZM795.421 31.2796C795.421 30.4708 794.725 29.7967 793.892 29.7967C793.057 29.7967 792.362 30.4708 792.362 31.2796C792.362 32.0885 793.057 32.7626 793.892 32.7626C794.725 32.7626 795.421 32.0885 795.421 31.2796ZM795.421 60.8718C795.421 60.0629 794.725 59.3888 793.892 59.3888C793.057 59.3888 792.362 60.0629 792.362 60.8718C792.362 61.6806 793.057 62.3548 793.892 62.3548C794.725 62.3548 795.421 61.6806 795.421 60.8718ZM795.421 90.3967C795.421 89.5876 794.725 88.9134 793.892 88.9134C793.057 88.9134 792.362 89.5876 792.362 90.3967C792.362 91.2057 793.057 91.8791 793.892 91.8791C794.725 91.8791 795.421 91.2057 795.421 90.3967ZM795.421 119.921C795.421 119.112 794.725 118.439 793.892 118.439C793.057 118.439 792.362 119.112 792.362 119.921C792.362 120.73 793.057 121.404 793.892 121.404C794.725 121.404 795.421 120.73 795.421 119.921ZM795.421 149.513C795.421 148.704 794.725 148.031 793.892 148.031C793.057 148.031 792.362 148.704 792.362 149.513C792.362 150.322 793.057 150.996 793.892 150.996C794.725 150.996 795.421 150.322 795.421 149.513ZM795.421 179.038C795.421 178.229 794.725 177.555 793.892 177.555C793.057 177.555 792.362 178.229 792.362 179.038C792.362 179.847 793.057 180.521 793.892 180.521C794.725 180.521 795.421 179.847 795.421 179.038ZM795.421 208.562C795.421 207.753 794.725 207.08 793.892 207.08C793.057 207.08 792.362 207.753 792.362 208.562C792.362 209.371 793.057 210.046 793.892 210.046C794.725 210.046 795.421 209.439 795.421 208.562ZM795.421 238.155C795.421 237.346 794.725 236.672 793.892 236.672C793.057 236.672 792.362 237.346 792.362 238.155C792.362 238.964 793.057 239.638 793.892 239.638C794.725 239.638 795.421 238.964 795.421 238.155ZM795.421 267.68C795.421 266.871 794.725 266.196 793.892 266.196C793.057 266.196 792.362 266.871 792.362 267.68C792.362 268.489 793.057 269.163 793.892 269.163C794.725 269.163 795.421 268.489 795.421 267.68ZM795.421 297.272C795.421 296.463 794.725 295.789 793.892 295.789C793.057 295.789 792.362 296.463 792.362 297.272C792.362 298.081 793.057 298.755 793.892 298.755C794.725 298.687 795.421 298.081 795.421 297.272ZM795.421 326.796C795.421 325.988 794.725 325.314 793.892 325.314C793.057 325.314 792.362 325.988 792.362 326.796C792.362 327.605 793.057 328.279 793.892 328.279C794.725 328.279 795.421 327.605 795.421 326.796ZM795.421 356.321C795.421 355.512 794.725 354.838 793.892 354.838C793.057 354.838 792.362 355.512 792.362 356.321C792.362 357.13 793.057 357.804 793.892 357.804C794.725 357.804 795.421 357.13 795.421 356.321ZM795.421 385.913C795.421 385.104 794.725 384.43 793.892 384.43C793.057 384.43 792.362 385.104 792.362 385.913C792.362 386.722 793.057 387.396 793.892 387.396C794.725 387.396 795.421 386.722 795.421 385.913ZM795.421 415.438C795.421 414.629 794.725 413.955 793.892 413.955C793.057 413.955 792.362 414.629 792.362 415.438C792.362 416.247 793.057 416.921 793.892 416.921C794.725 416.921 795.421 416.247 795.421 415.438ZM795.421 444.963C795.421 444.154 794.725 443.479 793.892 443.479C793.057 443.479 792.362 444.154 792.362 444.963C792.362 445.772 793.057 446.446 793.892 446.446C794.725 446.446 795.421 445.772 795.421 444.963ZM795.421 474.555C795.421 473.746 794.725 473.071 793.892 473.071C793.057 473.071 792.362 473.746 792.362 474.555C792.362 475.364 793.057 476.038 793.892 476.038C794.725 476.038 795.421 475.364 795.421 474.555ZM764.97 1.75495C764.97 0.946053 764.274 0.271973 763.44 0.271973C762.605 0.271973 761.91 0.946053 761.91 1.75495C761.91 2.56385 762.605 3.23793 763.44 3.23793C764.274 3.23793 764.97 2.56385 764.97 1.75495ZM764.97 31.2796C764.97 30.4708 764.274 29.7967 763.44 29.7967C762.605 29.7967 761.91 30.4708 761.91 31.2796C761.91 32.0885 762.605 32.7626 763.44 32.7626C764.274 32.7626 764.97 32.0885 764.97 31.2796ZM764.97 60.8718C764.97 60.0629 764.274 59.3888 763.44 59.3888C762.605 59.3888 761.91 60.0629 761.91 60.8718C761.91 61.6806 762.605 62.3548 763.44 62.3548C764.274 62.3548 764.97 61.6806 764.97 60.8718ZM764.97 90.3967C764.97 89.5876 764.274 88.9134 763.44 88.9134C762.605 88.9134 761.91 89.5876 761.91 90.3967C761.91 91.2057 762.605 91.8791 763.44 91.8791C764.274 91.8791 764.97 91.2057 764.97 90.3967ZM764.97 119.921C764.97 119.112 764.274 118.439 763.44 118.439C762.605 118.439 761.91 119.112 761.91 119.921C761.91 120.73 762.605 121.404 763.44 121.404C764.274 121.404 764.97 120.73 764.97 119.921ZM764.97 149.513C764.97 148.704 764.274 148.031 763.44 148.031C762.605 148.031 761.91 148.704 761.91 149.513C761.91 150.322 762.605 150.996 763.44 150.996C764.274 150.996 764.97 150.322 764.97 149.513ZM764.97 179.038C764.97 178.229 764.274 177.555 763.44 177.555C762.605 177.555 761.91 178.229 761.91 179.038C761.91 179.847 762.605 180.521 763.44 180.521C764.274 180.521 764.97 179.847 764.97 179.038ZM764.97 208.562C764.97 207.753 764.274 207.08 763.44 207.08C762.605 207.08 761.91 207.753 761.91 208.562C761.91 209.371 762.605 210.046 763.44 210.046C764.274 210.046 764.97 209.439 764.97 208.562ZM764.97 238.155C764.97 237.346 764.274 236.672 763.44 236.672C762.605 236.672 761.91 237.346 761.91 238.155C761.91 238.964 762.605 239.638 763.44 239.638C764.274 239.638 764.97 238.964 764.97 238.155ZM764.97 267.68C764.97 266.871 764.274 266.196 763.44 266.196C762.605 266.196 761.91 266.871 761.91 267.68C761.91 268.489 762.605 269.163 763.44 269.163C764.274 269.163 764.97 268.489 764.97 267.68ZM764.97 297.272C764.97 296.463 764.274 295.789 763.44 295.789C762.605 295.789 761.91 296.463 761.91 297.272C761.91 298.081 762.605 298.755 763.44 298.755C764.274 298.687 764.97 298.081 764.97 297.272ZM764.97 326.796C764.97 325.988 764.274 325.314 763.44 325.314C762.605 325.314 761.91 325.988 761.91 326.796C761.91 327.605 762.605 328.279 763.44 328.279C764.274 328.279 764.97 327.605 764.97 326.796ZM764.97 356.321C764.97 355.512 764.274 354.838 763.44 354.838C762.605 354.838 761.91 355.512 761.91 356.321C761.91 357.13 762.605 357.804 763.44 357.804C764.274 357.804 764.97 357.13 764.97 356.321ZM764.97 385.913C764.97 385.104 764.274 384.43 763.44 384.43C762.605 384.43 761.91 385.104 761.91 385.913C761.91 386.722 762.605 387.396 763.44 387.396C764.274 387.396 764.97 386.722 764.97 385.913ZM764.97 415.438C764.97 414.629 764.274 413.955 763.44 413.955C762.605 413.955 761.91 414.629 761.91 415.438C761.91 416.247 762.605 416.921 763.44 416.921C764.274 416.921 764.97 416.247 764.97 415.438ZM764.97 444.963C764.97 444.154 764.274 443.479 763.44 443.479C762.605 443.479 761.91 444.154 761.91 444.963C761.91 445.772 762.605 446.446 763.44 446.446C764.274 446.446 764.97 445.772 764.97 444.963ZM764.97 474.555C764.97 473.746 764.274 473.071 763.44 473.071C762.605 473.071 761.91 473.746 761.91 474.555C761.91 475.364 762.605 476.038 763.44 476.038C764.274 476.038 764.97 475.364 764.97 474.555ZM734.518 1.75495C734.518 0.946053 733.823 0.271973 732.989 0.271973C732.154 0.271973 731.459 0.946053 731.459 1.75495C731.459 2.56385 732.154 3.23793 732.989 3.23793C733.823 3.23793 734.518 2.56385 734.518 1.75495ZM734.518 31.2796C734.518 30.4708 733.823 29.7967 732.989 29.7967C732.154 29.7967 731.459 30.4708 731.459 31.2796C731.459 32.0885 732.154 32.7626 732.989 32.7626C733.823 32.7626 734.518 32.0885 734.518 31.2796ZM734.518 60.8718C734.518 60.0629 733.823 59.3888 732.989 59.3888C732.154 59.3888 731.459 60.0629 731.459 60.8718C731.459 61.6806 732.154 62.3548 732.989 62.3548C733.823 62.3548 734.518 61.6806 734.518 60.8718ZM734.518 90.3967C734.518 89.5876 733.823 88.9134 732.989 88.9134C732.154 88.9134 731.459 89.5876 731.459 90.3967C731.459 91.2057 732.154 91.8791 732.989 91.8791C733.823 91.8791 734.518 91.2057 734.518 90.3967ZM734.518 119.921C734.518 119.112 733.823 118.439 732.989 118.439C732.154 118.439 731.459 119.112 731.459 119.921C731.459 120.73 732.154 121.404 732.989 121.404C733.823 121.404 734.518 120.73 734.518 119.921ZM734.518 149.513C734.518 148.704 733.823 148.031 732.989 148.031C732.154 148.031 731.459 148.704 731.459 149.513C731.459 150.322 732.154 150.996 732.989 150.996C733.823 150.996 734.518 150.322 734.518 149.513ZM734.518 179.038C734.518 178.229 733.823 177.555 732.989 177.555C732.154 177.555 731.459 178.229 731.459 179.038C731.459 179.847 732.154 180.521 732.989 180.521C733.823 180.521 734.518 179.847 734.518 179.038ZM734.518 208.562C734.518 207.753 733.823 207.08 732.989 207.08C732.154 207.08 731.459 207.753 731.459 208.562C731.459 209.371 732.154 210.046 732.989 210.046C733.823 210.046 734.518 209.439 734.518 208.562ZM734.518 238.155C734.518 237.346 733.823 236.672 732.989 236.672C732.154 236.672 731.459 237.346 731.459 238.155C731.459 238.964 732.154 239.638 732.989 239.638C733.823 239.638 734.518 238.964 734.518 238.155ZM734.518 267.68C734.518 266.871 733.823 266.196 732.989 266.196C732.154 266.196 731.459 266.871 731.459 267.68C731.459 268.489 732.154 269.163 732.989 269.163C733.823 269.163 734.518 268.489 734.518 267.68ZM734.518 297.272C734.518 296.463 733.823 295.789 732.989 295.789C732.154 295.789 731.459 296.463 731.459 297.272C731.459 298.081 732.154 298.755 732.989 298.755C733.823 298.687 734.518 298.081 734.518 297.272ZM734.518 326.796C734.518 325.988 733.823 325.314 732.989 325.314C732.154 325.314 731.459 325.988 731.459 326.796C731.459 327.605 732.154 328.279 732.989 328.279C733.823 328.279 734.518 327.605 734.518 326.796ZM734.518 356.321C734.518 355.512 733.823 354.838 732.989 354.838C732.154 354.838 731.459 355.512 731.459 356.321C731.459 357.13 732.154 357.804 732.989 357.804C733.823 357.804 734.518 357.13 734.518 356.321ZM734.518 385.913C734.518 385.104 733.823 384.43 732.989 384.43C732.154 384.43 731.459 385.104 731.459 385.913C731.459 386.722 732.154 387.396 732.989 387.396C733.823 387.396 734.518 386.722 734.518 385.913ZM734.518 415.438C734.518 414.629 733.823 413.955 732.989 413.955C732.154 413.955 731.459 414.629 731.459 415.438C731.459 416.247 732.154 416.921 732.989 416.921C733.823 416.921 734.518 416.247 734.518 415.438ZM734.518 444.963C734.518 444.154 733.823 443.479 732.989 443.479C732.154 443.479 731.459 444.154 731.459 444.963C731.459 445.772 732.154 446.446 732.989 446.446C733.823 446.446 734.518 445.772 734.518 444.963ZM734.518 474.555C734.518 473.746 733.823 473.071 732.989 473.071C732.154 473.071 731.459 473.746 731.459 474.555C731.459 475.364 732.154 476.038 732.989 476.038C733.823 476.038 734.518 475.364 734.518 474.555ZM703.997 1.75495C703.997 0.946053 703.302 0.271973 702.467 0.271973C701.633 0.271973 700.938 0.946053 700.938 1.75495C700.938 2.56385 701.633 3.23793 702.467 3.23793C703.302 3.23793 703.997 2.56385 703.997 1.75495ZM703.997 31.2796C703.997 30.4708 703.302 29.7967 702.467 29.7967C701.633 29.7967 700.938 30.4708 700.938 31.2796C700.938 32.0885 701.633 32.7626 702.467 32.7626C703.302 32.7626 703.997 32.0885 703.997 31.2796ZM703.997 60.8718C703.997 60.0629 703.302 59.3888 702.467 59.3888C701.633 59.3888 700.938 60.0629 700.938 60.8718C700.938 61.6806 701.633 62.3548 702.467 62.3548C703.302 62.3548 703.997 61.6806 703.997 60.8718ZM703.997 90.3967C703.997 89.5876 703.302 88.9134 702.467 88.9134C701.633 88.9134 700.938 89.5876 700.938 90.3967C700.938 91.2057 701.633 91.8791 702.467 91.8791C703.302 91.8791 703.997 91.2057 703.997 90.3967ZM703.997 119.921C703.997 119.112 703.302 118.439 702.467 118.439C701.633 118.439 700.938 119.112 700.938 119.921C700.938 120.73 701.633 121.404 702.467 121.404C703.302 121.404 703.997 120.73 703.997 119.921ZM703.997 149.513C703.997 148.704 703.302 148.031 702.467 148.031C701.633 148.031 700.938 148.704 700.938 149.513C700.938 150.322 701.633 150.996 702.467 150.996C703.302 150.996 703.997 150.322 703.997 149.513ZM703.997 179.038C703.997 178.229 703.302 177.555 702.467 177.555C701.633 177.555 700.938 178.229 700.938 179.038C700.938 179.847 701.633 180.521 702.467 180.521C703.302 180.521 703.997 179.847 703.997 179.038ZM703.997 208.562C703.997 207.753 703.302 207.08 702.467 207.08C701.633 207.08 700.938 207.753 700.938 208.562C700.938 209.371 701.633 210.046 702.467 210.046C703.302 210.046 703.997 209.439 703.997 208.562ZM703.997 238.155C703.997 237.346 703.302 236.672 702.467 236.672C701.633 236.672 700.938 237.346 700.938 238.155C700.938 238.964 701.633 239.638 702.467 239.638C703.302 239.638 703.997 238.964 703.997 238.155ZM703.997 267.68C703.997 266.871 703.302 266.196 702.467 266.196C701.633 266.196 700.938 266.871 700.938 267.68C700.938 268.489 701.633 269.163 702.467 269.163C703.302 269.163 703.997 268.489 703.997 267.68ZM703.997 297.272C703.997 296.463 703.302 295.789 702.467 295.789C701.633 295.789 700.938 296.463 700.938 297.272C700.938 298.081 701.633 298.755 702.467 298.755C703.302 298.687 703.997 298.081 703.997 297.272ZM703.997 326.796C703.997 325.988 703.302 325.314 702.467 325.314C701.633 325.314 700.938 325.988 700.938 326.796C700.938 327.605 701.633 328.279 702.467 328.279C703.302 328.279 703.997 327.605 703.997 326.796ZM703.997 356.321C703.997 355.512 703.302 354.838 702.467 354.838C701.633 354.838 700.938 355.512 700.938 356.321C700.938 357.13 701.633 357.804 702.467 357.804C703.302 357.804 703.997 357.13 703.997 356.321ZM703.997 385.913C703.997 385.104 703.302 384.43 702.467 384.43C701.633 384.43 700.938 385.104 700.938 385.913C700.938 386.722 701.633 387.396 702.467 387.396C703.302 387.396 703.997 386.722 703.997 385.913ZM703.997 415.438C703.997 414.629 703.302 413.955 702.467 413.955C701.633 413.955 700.938 414.629 700.938 415.438C700.938 416.247 701.633 416.921 702.467 416.921C703.302 416.921 703.997 416.247 703.997 415.438ZM703.997 444.963C703.997 444.154 703.302 443.479 702.467 443.479C701.633 443.479 700.938 444.154 700.938 444.963C700.938 445.772 701.633 446.446 702.467 446.446C703.302 446.446 703.997 445.772 703.997 444.963ZM703.997 474.555C703.997 473.746 703.302 473.071 702.467 473.071C701.633 473.071 700.938 473.746 700.938 474.555C700.938 475.364 701.633 476.038 702.467 476.038C703.302 476.038 703.997 475.364 703.997 474.555ZM673.545 1.75495C673.545 0.946053 672.85 0.271973 672.016 0.271973C671.182 0.271973 670.487 0.946053 670.487 1.75495C670.487 2.56385 671.182 3.23793 672.016 3.23793C672.85 3.23793 673.545 2.56385 673.545 1.75495ZM673.545 31.2796C673.545 30.4708 672.85 29.7967 672.016 29.7967C671.182 29.7967 670.487 30.4708 670.487 31.2796C670.487 32.0885 671.182 32.7626 672.016 32.7626C672.85 32.7626 673.545 32.0885 673.545 31.2796ZM673.545 60.8718C673.545 60.0629 672.85 59.3888 672.016 59.3888C671.182 59.3888 670.487 60.0629 670.487 60.8718C670.487 61.6806 671.182 62.3548 672.016 62.3548C672.85 62.3548 673.545 61.6806 673.545 60.8718ZM673.545 90.3967C673.545 89.5876 672.85 88.9134 672.016 88.9134C671.182 88.9134 670.487 89.5876 670.487 90.3967C670.487 91.2057 671.182 91.8791 672.016 91.8791C672.85 91.8791 673.545 91.2057 673.545 90.3967ZM673.545 119.921C673.545 119.112 672.85 118.439 672.016 118.439C671.182 118.439 670.487 119.112 670.487 119.921C670.487 120.73 671.182 121.404 672.016 121.404C672.85 121.404 673.545 120.73 673.545 119.921ZM673.545 149.513C673.545 148.704 672.85 148.031 672.016 148.031C671.182 148.031 670.487 148.704 670.487 149.513C670.487 150.322 671.182 150.996 672.016 150.996C672.85 150.996 673.545 150.322 673.545 149.513ZM673.545 179.038C673.545 178.229 672.85 177.555 672.016 177.555C671.182 177.555 670.487 178.229 670.487 179.038C670.487 179.847 671.182 180.521 672.016 180.521C672.85 180.521 673.545 179.847 673.545 179.038ZM673.545 208.562C673.545 207.753 672.85 207.08 672.016 207.08C671.182 207.08 670.487 207.753 670.487 208.562C670.487 209.371 671.182 210.046 672.016 210.046C672.85 210.046 673.545 209.439 673.545 208.562ZM673.545 238.155C673.545 237.346 672.85 236.672 672.016 236.672C671.182 236.672 670.487 237.346 670.487 238.155C670.487 238.964 671.182 239.638 672.016 239.638C672.85 239.638 673.545 238.964 673.545 238.155ZM673.545 267.68C673.545 266.871 672.85 266.196 672.016 266.196C671.182 266.196 670.487 266.871 670.487 267.68C670.487 268.489 671.182 269.163 672.016 269.163C672.85 269.163 673.545 268.489 673.545 267.68ZM673.545 297.272C673.545 296.463 672.85 295.789 672.016 295.789C671.182 295.789 670.487 296.463 670.487 297.272C670.487 298.081 671.182 298.755 672.016 298.755C672.85 298.687 673.545 298.081 673.545 297.272ZM673.545 326.796C673.545 325.988 672.85 325.314 672.016 325.314C671.182 325.314 670.487 325.988 670.487 326.796C670.487 327.605 671.182 328.279 672.016 328.279C672.85 328.279 673.545 327.605 673.545 326.796ZM673.545 356.321C673.545 355.512 672.85 354.838 672.016 354.838C671.182 354.838 670.487 355.512 670.487 356.321C670.487 357.13 671.182 357.804 672.016 357.804C672.85 357.804 673.545 357.13 673.545 356.321ZM673.545 385.913C673.545 385.104 672.85 384.43 672.016 384.43C671.182 384.43 670.487 385.104 670.487 385.913C670.487 386.722 671.182 387.396 672.016 387.396C672.85 387.396 673.545 386.722 673.545 385.913ZM673.545 415.438C673.545 414.629 672.85 413.955 672.016 413.955C671.182 413.955 670.487 414.629 670.487 415.438C670.487 416.247 671.182 416.921 672.016 416.921C672.85 416.921 673.545 416.247 673.545 415.438ZM673.545 444.963C673.545 444.154 672.85 443.479 672.016 443.479C671.182 443.479 670.487 444.154 670.487 444.963C670.487 445.772 671.182 446.446 672.016 446.446C672.85 446.446 673.545 445.772 673.545 444.963ZM673.545 474.555C673.545 473.746 672.85 473.071 672.016 473.071C671.182 473.071 670.487 473.746 670.487 474.555C670.487 475.364 671.182 476.038 672.016 476.038C672.85 476.038 673.545 475.364 673.545 474.555ZM643.025 1.75495C643.025 0.946053 642.33 0.271973 641.495 0.271973C640.661 0.271973 639.965 0.946053 639.965 1.75495C639.965 2.56385 640.661 3.23793 641.495 3.23793C642.399 3.23793 643.025 2.56385 643.025 1.75495ZM643.025 31.2796C643.025 30.4708 642.33 29.7967 641.495 29.7967C640.661 29.7967 639.965 30.4708 639.965 31.2796C639.965 32.0885 640.661 32.7626 641.495 32.7626C642.399 32.7626 643.025 32.0885 643.025 31.2796ZM643.025 60.8718C643.025 60.0629 642.33 59.3888 641.495 59.3888C640.661 59.3888 639.965 60.0629 639.965 60.8718C639.965 61.6806 640.661 62.3548 641.495 62.3548C642.399 62.3548 643.025 61.6806 643.025 60.8718ZM643.025 90.3967C643.025 89.5876 642.33 88.9134 641.495 88.9134C640.661 88.9134 639.965 89.5876 639.965 90.3967C639.965 91.2057 640.661 91.8791 641.495 91.8791C642.399 91.8791 643.025 91.2057 643.025 90.3967ZM643.025 119.921C643.025 119.112 642.33 118.439 641.495 118.439C640.661 118.439 639.965 119.112 639.965 119.921C639.965 120.73 640.661 121.404 641.495 121.404C642.399 121.404 643.025 120.73 643.025 119.921ZM643.025 149.513C643.025 148.704 642.33 148.031 641.495 148.031C640.661 148.031 639.965 148.704 639.965 149.513C639.965 150.322 640.661 150.996 641.495 150.996C642.399 150.996 643.025 150.322 643.025 149.513ZM643.025 179.038C643.025 178.229 642.33 177.555 641.495 177.555C640.661 177.555 639.965 178.229 639.965 179.038C639.965 179.847 640.661 180.521 641.495 180.521C642.399 180.521 643.025 179.847 643.025 179.038ZM643.025 208.562C643.025 207.753 642.33 207.08 641.495 207.08C640.661 207.08 639.965 207.753 639.965 208.562C639.965 209.371 640.661 210.046 641.495 210.046C642.399 210.046 643.025 209.439 643.025 208.562ZM643.025 238.155C643.025 237.346 642.33 236.672 641.495 236.672C640.661 236.672 639.965 237.346 639.965 238.155C639.965 238.964 640.661 239.638 641.495 239.638C642.399 239.638 643.025 238.964 643.025 238.155ZM643.025 267.68C643.025 266.871 642.33 266.196 641.495 266.196C640.661 266.196 639.965 266.871 639.965 267.68C639.965 268.489 640.661 269.163 641.495 269.163C642.399 269.163 643.025 268.489 643.025 267.68ZM643.025 297.272C643.025 296.463 642.33 295.789 641.495 295.789C640.661 295.789 639.965 296.463 639.965 297.272C639.965 298.081 640.661 298.755 641.495 298.755C642.399 298.687 643.025 298.081 643.025 297.272ZM643.025 326.796C643.025 325.988 642.33 325.314 641.495 325.314C640.661 325.314 639.965 325.988 639.965 326.796C639.965 327.605 640.661 328.279 641.495 328.279C642.399 328.279 643.025 327.605 643.025 326.796ZM643.025 356.321C643.025 355.512 642.33 354.838 641.495 354.838C640.661 354.838 639.965 355.512 639.965 356.321C639.965 357.13 640.661 357.804 641.495 357.804C642.399 357.804 643.025 357.13 643.025 356.321ZM643.025 385.913C643.025 385.104 642.33 384.43 641.495 384.43C640.661 384.43 639.965 385.104 639.965 385.913C639.965 386.722 640.661 387.396 641.495 387.396C642.399 387.396 643.025 386.722 643.025 385.913ZM643.025 415.438C643.025 414.629 642.33 413.955 641.495 413.955C640.661 413.955 639.965 414.629 639.965 415.438C639.965 416.247 640.661 416.921 641.495 416.921C642.399 416.921 643.025 416.247 643.025 415.438ZM643.025 444.963C643.025 444.154 642.33 443.479 641.495 443.479C640.661 443.479 639.965 444.154 639.965 444.963C639.965 445.772 640.661 446.446 641.495 446.446C642.399 446.446 643.025 445.772 643.025 444.963ZM643.025 474.555C643.025 473.746 642.33 473.071 641.495 473.071C640.661 473.071 639.965 473.746 639.965 474.555C639.965 475.364 640.661 476.038 641.495 476.038C642.399 476.038 643.025 475.364 643.025 474.555ZM612.573 1.75495C612.573 0.946053 611.878 0.271973 611.044 0.271973C610.21 0.271973 609.514 0.946053 609.514 1.75495C609.514 2.56385 610.21 3.23793 611.044 3.23793C611.878 3.23793 612.573 2.56385 612.573 1.75495ZM612.573 31.2796C612.573 30.4708 611.878 29.7967 611.044 29.7967C610.21 29.7967 609.514 30.4708 609.514 31.2796C609.514 32.0885 610.21 32.7626 611.044 32.7626C611.878 32.7626 612.573 32.0885 612.573 31.2796ZM612.573 60.8718C612.573 60.0629 611.878 59.3888 611.044 59.3888C610.21 59.3888 609.514 60.0629 609.514 60.8718C609.514 61.6806 610.21 62.3548 611.044 62.3548C611.878 62.3548 612.573 61.6806 612.573 60.8718ZM612.573 90.3967C612.573 89.5876 611.878 88.9134 611.044 88.9134C610.21 88.9134 609.514 89.5876 609.514 90.3967C609.514 91.2057 610.21 91.8791 611.044 91.8791C611.878 91.8791 612.573 91.2057 612.573 90.3967ZM612.573 119.921C612.573 119.112 611.878 118.439 611.044 118.439C610.21 118.439 609.514 119.112 609.514 119.921C609.514 120.73 610.21 121.404 611.044 121.404C611.878 121.404 612.573 120.73 612.573 119.921ZM612.573 149.513C612.573 148.704 611.878 148.031 611.044 148.031C610.21 148.031 609.514 148.704 609.514 149.513C609.514 150.322 610.21 150.996 611.044 150.996C611.878 150.996 612.573 150.322 612.573 149.513ZM612.573 179.038C612.573 178.229 611.878 177.555 611.044 177.555C610.21 177.555 609.514 178.229 609.514 179.038C609.514 179.847 610.21 180.521 611.044 180.521C611.878 180.521 612.573 179.847 612.573 179.038ZM612.573 208.562C612.573 207.753 611.878 207.08 611.044 207.08C610.21 207.08 609.514 207.753 609.514 208.562C609.514 209.371 610.21 210.046 611.044 210.046C611.878 210.046 612.573 209.439 612.573 208.562ZM612.573 238.155C612.573 237.346 611.878 236.672 611.044 236.672C610.21 236.672 609.514 237.346 609.514 238.155C609.514 238.964 610.21 239.638 611.044 239.638C611.878 239.638 612.573 238.964 612.573 238.155ZM612.573 267.68C612.573 266.871 611.878 266.196 611.044 266.196C610.21 266.196 609.514 266.871 609.514 267.68C609.514 268.489 610.21 269.163 611.044 269.163C611.878 269.163 612.573 268.489 612.573 267.68ZM612.573 297.272C612.573 296.463 611.878 295.789 611.044 295.789C610.21 295.789 609.514 296.463 609.514 297.272C609.514 298.081 610.21 298.755 611.044 298.755C611.878 298.687 612.573 298.081 612.573 297.272ZM612.573 326.796C612.573 325.988 611.878 325.314 611.044 325.314C610.21 325.314 609.514 325.988 609.514 326.796C609.514 327.605 610.21 328.279 611.044 328.279C611.878 328.279 612.573 327.605 612.573 326.796ZM612.573 356.321C612.573 355.512 611.878 354.838 611.044 354.838C610.21 354.838 609.514 355.512 609.514 356.321C609.514 357.13 610.21 357.804 611.044 357.804C611.878 357.804 612.573 357.13 612.573 356.321ZM612.573 385.913C612.573 385.104 611.878 384.43 611.044 384.43C610.21 384.43 609.514 385.104 609.514 385.913C609.514 386.722 610.21 387.396 611.044 387.396C611.878 387.396 612.573 386.722 612.573 385.913ZM612.573 415.438C612.573 414.629 611.878 413.955 611.044 413.955C610.21 413.955 609.514 414.629 609.514 415.438C609.514 416.247 610.21 416.921 611.044 416.921C611.878 416.921 612.573 416.247 612.573 415.438ZM612.573 444.963C612.573 444.154 611.878 443.479 611.044 443.479C610.21 443.479 609.514 444.154 609.514 444.963C609.514 445.772 610.21 446.446 611.044 446.446C611.878 446.446 612.573 445.772 612.573 444.963ZM612.573 474.555C612.573 473.746 611.878 473.071 611.044 473.071C610.21 473.071 609.514 473.746 609.514 474.555C609.514 475.364 610.21 476.038 611.044 476.038C611.878 476.038 612.573 475.364 612.573 474.555ZM582.122 1.75495C582.122 0.946053 581.427 0.271973 580.592 0.271973C579.758 0.271973 579.062 0.946053 579.062 1.75495C579.062 2.56385 579.758 3.23793 580.592 3.23793C581.427 3.23793 582.122 2.56385 582.122 1.75495ZM582.122 31.2796C582.122 30.4708 581.427 29.7967 580.592 29.7967C579.758 29.7967 579.062 30.4708 579.062 31.2796C579.062 32.0885 579.758 32.7626 580.592 32.7626C581.427 32.7626 582.122 32.0885 582.122 31.2796ZM582.122 60.8718C582.122 60.0629 581.427 59.3888 580.592 59.3888C579.758 59.3888 579.062 60.0629 579.062 60.8718C579.062 61.6806 579.758 62.3548 580.592 62.3548C581.427 62.3548 582.122 61.6806 582.122 60.8718ZM582.122 90.3967C582.122 89.5876 581.427 88.9134 580.592 88.9134C579.758 88.9134 579.062 89.5876 579.062 90.3967C579.062 91.2057 579.758 91.8791 580.592 91.8791C581.427 91.8791 582.122 91.2057 582.122 90.3967ZM582.122 119.921C582.122 119.112 581.427 118.439 580.592 118.439C579.758 118.439 579.062 119.112 579.062 119.921C579.062 120.73 579.758 121.404 580.592 121.404C581.427 121.404 582.122 120.73 582.122 119.921ZM582.122 149.513C582.122 148.704 581.427 148.031 580.592 148.031C579.758 148.031 579.062 148.704 579.062 149.513C579.062 150.322 579.758 150.996 580.592 150.996C581.427 150.996 582.122 150.322 582.122 149.513ZM582.122 179.038C582.122 178.229 581.427 177.555 580.592 177.555C579.758 177.555 579.062 178.229 579.062 179.038C579.062 179.847 579.758 180.521 580.592 180.521C581.427 180.521 582.122 179.847 582.122 179.038ZM582.122 208.562C582.122 207.753 581.427 207.08 580.592 207.08C579.758 207.08 579.062 207.753 579.062 208.562C579.062 209.371 579.758 210.046 580.592 210.046C581.427 210.046 582.122 209.439 582.122 208.562ZM582.122 238.155C582.122 237.346 581.427 236.672 580.592 236.672C579.758 236.672 579.062 237.346 579.062 238.155C579.062 238.964 579.758 239.638 580.592 239.638C581.427 239.638 582.122 238.964 582.122 238.155ZM582.122 267.68C582.122 266.871 581.427 266.196 580.592 266.196C579.758 266.196 579.062 266.871 579.062 267.68C579.062 268.489 579.758 269.163 580.592 269.163C581.427 269.163 582.122 268.489 582.122 267.68ZM582.122 297.272C582.122 296.463 581.427 295.789 580.592 295.789C579.758 295.789 579.062 296.463 579.062 297.272C579.062 298.081 579.758 298.755 580.592 298.755C581.427 298.687 582.122 298.081 582.122 297.272ZM582.122 326.796C582.122 325.988 581.427 325.314 580.592 325.314C579.758 325.314 579.062 325.988 579.062 326.796C579.062 327.605 579.758 328.279 580.592 328.279C581.427 328.279 582.122 327.605 582.122 326.796ZM582.122 356.321C582.122 355.512 581.427 354.838 580.592 354.838C579.758 354.838 579.062 355.512 579.062 356.321C579.062 357.13 579.758 357.804 580.592 357.804C581.427 357.804 582.122 357.13 582.122 356.321ZM582.122 385.913C582.122 385.104 581.427 384.43 580.592 384.43C579.758 384.43 579.062 385.104 579.062 385.913C579.062 386.722 579.758 387.396 580.592 387.396C581.427 387.396 582.122 386.722 582.122 385.913ZM582.122 415.438C582.122 414.629 581.427 413.955 580.592 413.955C579.758 413.955 579.062 414.629 579.062 415.438C579.062 416.247 579.758 416.921 580.592 416.921C581.427 416.921 582.122 416.247 582.122 415.438ZM582.122 444.963C582.122 444.154 581.427 443.479 580.592 443.479C579.758 443.479 579.062 444.154 579.062 444.963C579.062 445.772 579.758 446.446 580.592 446.446C581.427 446.446 582.122 445.772 582.122 444.963ZM582.122 474.555C582.122 473.746 581.427 473.071 580.592 473.071C579.758 473.071 579.062 473.746 579.062 474.555C579.062 475.364 579.758 476.038 580.592 476.038C581.427 476.038 582.122 475.364 582.122 474.555ZM551.601 1.75495C551.601 0.946053 550.905 0.271973 550.072 0.271973C549.238 0.271973 548.542 0.946053 548.542 1.75495C548.542 2.56385 549.238 3.23793 550.072 3.23793C550.976 3.23793 551.601 2.56385 551.601 1.75495ZM551.601 31.2796C551.601 30.4708 550.905 29.7967 550.072 29.7967C549.238 29.7967 548.542 30.4708 548.542 31.2796C548.542 32.0885 549.238 32.7626 550.072 32.7626C550.976 32.7626 551.601 32.0885 551.601 31.2796ZM551.601 60.8718C551.601 60.0629 550.905 59.3888 550.072 59.3888C549.238 59.3888 548.542 60.0629 548.542 60.8718C548.542 61.6806 549.238 62.3548 550.072 62.3548C550.976 62.3548 551.601 61.6806 551.601 60.8718ZM551.601 90.3967C551.601 89.5876 550.905 88.9134 550.072 88.9134C549.238 88.9134 548.542 89.5876 548.542 90.3967C548.542 91.2057 549.238 91.8791 550.072 91.8791C550.976 91.8791 551.601 91.2057 551.601 90.3967ZM551.601 119.921C551.601 119.112 550.905 118.439 550.072 118.439C549.238 118.439 548.542 119.112 548.542 119.921C548.542 120.73 549.238 121.404 550.072 121.404C550.976 121.404 551.601 120.73 551.601 119.921ZM551.601 149.513C551.601 148.704 550.905 148.031 550.072 148.031C549.238 148.031 548.542 148.704 548.542 149.513C548.542 150.322 549.238 150.996 550.072 150.996C550.976 150.996 551.601 150.322 551.601 149.513ZM551.601 179.038C551.601 178.229 550.905 177.555 550.072 177.555C549.238 177.555 548.542 178.229 548.542 179.038C548.542 179.847 549.238 180.521 550.072 180.521C550.976 180.521 551.601 179.847 551.601 179.038ZM551.601 208.562C551.601 207.753 550.905 207.08 550.072 207.08C549.238 207.08 548.542 207.753 548.542 208.562C548.542 209.371 549.238 210.046 550.072 210.046C550.976 210.046 551.601 209.439 551.601 208.562ZM551.601 238.155C551.601 237.346 550.905 236.672 550.072 236.672C549.238 236.672 548.542 237.346 548.542 238.155C548.542 238.964 549.238 239.638 550.072 239.638C550.976 239.638 551.601 238.964 551.601 238.155ZM551.601 267.68C551.601 266.871 550.905 266.196 550.072 266.196C549.238 266.196 548.542 266.871 548.542 267.68C548.542 268.489 549.238 269.163 550.072 269.163C550.976 269.163 551.601 268.489 551.601 267.68ZM551.601 297.272C551.601 296.463 550.905 295.789 550.072 295.789C549.238 295.789 548.542 296.463 548.542 297.272C548.542 298.081 549.238 298.755 550.072 298.755C550.976 298.687 551.601 298.081 551.601 297.272ZM551.601 326.796C551.601 325.988 550.905 325.314 550.072 325.314C549.238 325.314 548.542 325.988 548.542 326.796C548.542 327.605 549.238 328.279 550.072 328.279C550.976 328.279 551.601 327.605 551.601 326.796ZM551.601 356.321C551.601 355.512 550.905 354.838 550.072 354.838C549.238 354.838 548.542 355.512 548.542 356.321C548.542 357.13 549.238 357.804 550.072 357.804C550.976 357.804 551.601 357.13 551.601 356.321ZM551.601 385.913C551.601 385.104 550.905 384.43 550.072 384.43C549.238 384.43 548.542 385.104 548.542 385.913C548.542 386.722 549.238 387.396 550.072 387.396C550.976 387.396 551.601 386.722 551.601 385.913ZM551.601 415.438C551.601 414.629 550.905 413.955 550.072 413.955C549.238 413.955 548.542 414.629 548.542 415.438C548.542 416.247 549.238 416.921 550.072 416.921C550.976 416.921 551.601 416.247 551.601 415.438ZM551.601 444.963C551.601 444.154 550.905 443.479 550.072 443.479C549.238 443.479 548.542 444.154 548.542 444.963C548.542 445.772 549.238 446.446 550.072 446.446C550.976 446.446 551.601 445.772 551.601 444.963ZM551.601 474.555C551.601 473.746 550.905 473.071 550.072 473.071C549.238 473.071 548.542 473.746 548.542 474.555C548.542 475.364 549.238 476.038 550.072 476.038C550.976 476.038 551.601 475.364 551.601 474.555ZM521.15 1.75495C521.15 0.946053 520.454 0.271973 519.62 0.271973C518.786 0.271973 518.09 0.946053 518.09 1.75495C518.09 2.56385 518.786 3.23793 519.62 3.23793C520.454 3.23793 521.15 2.56385 521.15 1.75495ZM521.15 31.2796C521.15 30.4708 520.454 29.7967 519.62 29.7967C518.786 29.7967 518.09 30.4708 518.09 31.2796C518.09 32.0885 518.786 32.7626 519.62 32.7626C520.454 32.7626 521.15 32.0885 521.15 31.2796ZM521.15 60.8718C521.15 60.0629 520.454 59.3888 519.62 59.3888C518.786 59.3888 518.09 60.0629 518.09 60.8718C518.09 61.6806 518.786 62.3548 519.62 62.3548C520.454 62.3548 521.15 61.6806 521.15 60.8718ZM521.15 90.3967C521.15 89.5876 520.454 88.9134 519.62 88.9134C518.786 88.9134 518.09 89.5876 518.09 90.3967C518.09 91.2057 518.786 91.8791 519.62 91.8791C520.454 91.8791 521.15 91.2057 521.15 90.3967ZM521.15 119.921C521.15 119.112 520.454 118.439 519.62 118.439C518.786 118.439 518.09 119.112 518.09 119.921C518.09 120.73 518.786 121.404 519.62 121.404C520.454 121.404 521.15 120.73 521.15 119.921ZM521.15 149.513C521.15 148.704 520.454 148.031 519.62 148.031C518.786 148.031 518.09 148.704 518.09 149.513C518.09 150.322 518.786 150.996 519.62 150.996C520.454 150.996 521.15 150.322 521.15 149.513ZM521.15 179.038C521.15 178.229 520.454 177.555 519.62 177.555C518.786 177.555 518.09 178.229 518.09 179.038C518.09 179.847 518.786 180.521 519.62 180.521C520.454 180.521 521.15 179.847 521.15 179.038ZM521.15 208.562C521.15 207.753 520.454 207.08 519.62 207.08C518.786 207.08 518.09 207.753 518.09 208.562C518.09 209.371 518.786 210.046 519.62 210.046C520.454 210.046 521.15 209.439 521.15 208.562ZM521.15 238.155C521.15 237.346 520.454 236.672 519.62 236.672C518.786 236.672 518.09 237.346 518.09 238.155C518.09 238.964 518.786 239.638 519.62 239.638C520.454 239.638 521.15 238.964 521.15 238.155ZM521.15 267.68C521.15 266.871 520.454 266.196 519.62 266.196C518.786 266.196 518.09 266.871 518.09 267.68C518.09 268.489 518.786 269.163 519.62 269.163C520.454 269.163 521.15 268.489 521.15 267.68ZM521.15 297.272C521.15 296.463 520.454 295.789 519.62 295.789C518.786 295.789 518.09 296.463 518.09 297.272C518.09 298.081 518.786 298.755 519.62 298.755C520.454 298.687 521.15 298.081 521.15 297.272ZM521.15 326.796C521.15 325.988 520.454 325.314 519.62 325.314C518.786 325.314 518.09 325.988 518.09 326.796C518.09 327.605 518.786 328.279 519.62 328.279C520.454 328.279 521.15 327.605 521.15 326.796ZM521.15 356.321C521.15 355.512 520.454 354.838 519.62 354.838C518.786 354.838 518.09 355.512 518.09 356.321C518.09 357.13 518.786 357.804 519.62 357.804C520.454 357.804 521.15 357.13 521.15 356.321ZM521.15 385.913C521.15 385.104 520.454 384.43 519.62 384.43C518.786 384.43 518.09 385.104 518.09 385.913C518.09 386.722 518.786 387.396 519.62 387.396C520.454 387.396 521.15 386.722 521.15 385.913ZM521.15 415.438C521.15 414.629 520.454 413.955 519.62 413.955C518.786 413.955 518.09 414.629 518.09 415.438C518.09 416.247 518.786 416.921 519.62 416.921C520.454 416.921 521.15 416.247 521.15 415.438ZM521.15 444.963C521.15 444.154 520.454 443.479 519.62 443.479C518.786 443.479 518.09 444.154 518.09 444.963C518.09 445.772 518.786 446.446 519.62 446.446C520.454 446.446 521.15 445.772 521.15 444.963ZM521.15 474.555C521.15 473.746 520.454 473.071 519.62 473.071C518.786 473.071 518.09 473.746 518.09 474.555C518.09 475.364 518.786 476.038 519.62 476.038C520.454 476.038 521.15 475.364 521.15 474.555ZM490.698 1.75495C490.698 0.946053 490.003 0.271973 489.169 0.271973C488.335 0.271973 487.639 0.946053 487.639 1.75495C487.639 2.56385 488.335 3.23793 489.169 3.23793C490.003 3.23793 490.698 2.56385 490.698 1.75495ZM490.698 31.2796C490.698 30.4708 490.003 29.7967 489.169 29.7967C488.335 29.7967 487.639 30.4708 487.639 31.2796C487.639 32.0885 488.335 32.7626 489.169 32.7626C490.003 32.7626 490.698 32.0885 490.698 31.2796ZM490.698 60.8718C490.698 60.0629 490.003 59.3888 489.169 59.3888C488.335 59.3888 487.639 60.0629 487.639 60.8718C487.639 61.6806 488.335 62.3548 489.169 62.3548C490.003 62.3548 490.698 61.6806 490.698 60.8718ZM490.698 90.3967C490.698 89.5876 490.003 88.9134 489.169 88.9134C488.335 88.9134 487.639 89.5876 487.639 90.3967C487.639 91.2057 488.335 91.8791 489.169 91.8791C490.003 91.8791 490.698 91.2057 490.698 90.3967ZM490.698 119.921C490.698 119.112 490.003 118.439 489.169 118.439C488.335 118.439 487.639 119.112 487.639 119.921C487.639 120.73 488.335 121.404 489.169 121.404C490.003 121.404 490.698 120.73 490.698 119.921ZM490.698 149.513C490.698 148.704 490.003 148.031 489.169 148.031C488.335 148.031 487.639 148.704 487.639 149.513C487.639 150.322 488.335 150.996 489.169 150.996C490.003 150.996 490.698 150.322 490.698 149.513ZM490.698 179.038C490.698 178.229 490.003 177.555 489.169 177.555C488.335 177.555 487.639 178.229 487.639 179.038C487.639 179.847 488.335 180.521 489.169 180.521C490.003 180.521 490.698 179.847 490.698 179.038ZM490.698 208.562C490.698 207.753 490.003 207.08 489.169 207.08C488.335 207.08 487.639 207.753 487.639 208.562C487.639 209.371 488.335 210.046 489.169 210.046C490.003 210.046 490.698 209.439 490.698 208.562ZM490.698 238.155C490.698 237.346 490.003 236.672 489.169 236.672C488.335 236.672 487.639 237.346 487.639 238.155C487.639 238.964 488.335 239.638 489.169 239.638C490.003 239.638 490.698 238.964 490.698 238.155ZM490.698 267.68C490.698 266.871 490.003 266.196 489.169 266.196C488.335 266.196 487.639 266.871 487.639 267.68C487.639 268.489 488.335 269.163 489.169 269.163C490.003 269.163 490.698 268.489 490.698 267.68ZM490.698 297.272C490.698 296.463 490.003 295.789 489.169 295.789C488.335 295.789 487.639 296.463 487.639 297.272C487.639 298.081 488.335 298.755 489.169 298.755C490.003 298.687 490.698 298.081 490.698 297.272ZM490.698 326.796C490.698 325.988 490.003 325.314 489.169 325.314C488.335 325.314 487.639 325.988 487.639 326.796C487.639 327.605 488.335 328.279 489.169 328.279C490.003 328.279 490.698 327.605 490.698 326.796ZM490.698 356.321C490.698 355.512 490.003 354.838 489.169 354.838C488.335 354.838 487.639 355.512 487.639 356.321C487.639 357.13 488.335 357.804 489.169 357.804C490.003 357.804 490.698 357.13 490.698 356.321ZM490.698 385.913C490.698 385.104 490.003 384.43 489.169 384.43C488.335 384.43 487.639 385.104 487.639 385.913C487.639 386.722 488.335 387.396 489.169 387.396C490.003 387.396 490.698 386.722 490.698 385.913ZM490.698 415.438C490.698 414.629 490.003 413.955 489.169 413.955C488.335 413.955 487.639 414.629 487.639 415.438C487.639 416.247 488.335 416.921 489.169 416.921C490.003 416.921 490.698 416.247 490.698 415.438ZM490.698 444.963C490.698 444.154 490.003 443.479 489.169 443.479C488.335 443.479 487.639 444.154 487.639 444.963C487.639 445.772 488.335 446.446 489.169 446.446C490.003 446.446 490.698 445.772 490.698 444.963ZM490.698 474.555C490.698 473.746 490.003 473.071 489.169 473.071C488.335 473.071 487.639 473.746 487.639 474.555C487.639 475.364 488.335 476.038 489.169 476.038C490.003 476.038 490.698 475.364 490.698 474.555ZM460.178 1.75495C460.178 0.946053 459.482 0.271973 458.648 0.271973C457.813 0.271973 457.118 0.946053 457.118 1.75495C457.118 2.56385 457.813 3.23793 458.648 3.23793C459.482 3.23793 460.178 2.56385 460.178 1.75495ZM460.178 31.2796C460.178 30.4708 459.482 29.7967 458.648 29.7967C457.813 29.7967 457.118 30.4708 457.118 31.2796C457.118 32.0885 457.813 32.7626 458.648 32.7626C459.482 32.7626 460.178 32.0885 460.178 31.2796ZM460.178 60.8718C460.178 60.0629 459.482 59.3888 458.648 59.3888C457.813 59.3888 457.118 60.0629 457.118 60.8718C457.118 61.6806 457.813 62.3548 458.648 62.3548C459.482 62.3548 460.178 61.6806 460.178 60.8718ZM460.178 90.3967C460.178 89.5876 459.482 88.9134 458.648 88.9134C457.813 88.9134 457.118 89.5876 457.118 90.3967C457.118 91.2057 457.813 91.8791 458.648 91.8791C459.482 91.8791 460.178 91.2057 460.178 90.3967ZM460.178 119.921C460.178 119.112 459.482 118.439 458.648 118.439C457.813 118.439 457.118 119.112 457.118 119.921C457.118 120.73 457.813 121.404 458.648 121.404C459.482 121.404 460.178 120.73 460.178 119.921ZM460.178 149.513C460.178 148.704 459.482 148.031 458.648 148.031C457.813 148.031 457.118 148.704 457.118 149.513C457.118 150.322 457.813 150.996 458.648 150.996C459.482 150.996 460.178 150.322 460.178 149.513ZM460.178 179.038C460.178 178.229 459.482 177.555 458.648 177.555C457.813 177.555 457.118 178.229 457.118 179.038C457.118 179.847 457.813 180.521 458.648 180.521C459.482 180.521 460.178 179.847 460.178 179.038ZM460.178 208.562C460.178 207.753 459.482 207.08 458.648 207.08C457.813 207.08 457.118 207.753 457.118 208.562C457.118 209.371 457.813 210.046 458.648 210.046C459.482 210.046 460.178 209.439 460.178 208.562ZM460.178 238.155C460.178 237.346 459.482 236.672 458.648 236.672C457.813 236.672 457.118 237.346 457.118 238.155C457.118 238.964 457.813 239.638 458.648 239.638C459.482 239.638 460.178 238.964 460.178 238.155ZM460.178 267.68C460.178 266.871 459.482 266.196 458.648 266.196C457.813 266.196 457.118 266.871 457.118 267.68C457.118 268.489 457.813 269.163 458.648 269.163C459.482 269.163 460.178 268.489 460.178 267.68ZM460.178 297.272C460.178 296.463 459.482 295.789 458.648 295.789C457.813 295.789 457.118 296.463 457.118 297.272C457.118 298.081 457.813 298.755 458.648 298.755C459.482 298.687 460.178 298.081 460.178 297.272ZM460.178 326.796C460.178 325.988 459.482 325.314 458.648 325.314C457.813 325.314 457.118 325.988 457.118 326.796C457.118 327.605 457.813 328.279 458.648 328.279C459.482 328.279 460.178 327.605 460.178 326.796ZM460.178 356.321C460.178 355.512 459.482 354.838 458.648 354.838C457.813 354.838 457.118 355.512 457.118 356.321C457.118 357.13 457.813 357.804 458.648 357.804C459.482 357.804 460.178 357.13 460.178 356.321ZM460.178 385.913C460.178 385.104 459.482 384.43 458.648 384.43C457.813 384.43 457.118 385.104 457.118 385.913C457.118 386.722 457.813 387.396 458.648 387.396C459.482 387.396 460.178 386.722 460.178 385.913ZM460.178 415.438C460.178 414.629 459.482 413.955 458.648 413.955C457.813 413.955 457.118 414.629 457.118 415.438C457.118 416.247 457.813 416.921 458.648 416.921C459.482 416.921 460.178 416.247 460.178 415.438ZM460.178 444.963C460.178 444.154 459.482 443.479 458.648 443.479C457.813 443.479 457.118 444.154 457.118 444.963C457.118 445.772 457.813 446.446 458.648 446.446C459.482 446.446 460.178 445.772 460.178 444.963ZM460.178 474.555C460.178 473.746 459.482 473.071 458.648 473.071C457.813 473.071 457.118 473.746 457.118 474.555C457.118 475.364 457.813 476.038 458.648 476.038C459.482 476.038 460.178 475.364 460.178 474.555ZM429.726 1.75495C429.726 0.946053 429.03 0.271973 428.197 0.271973C427.362 0.271973 426.667 0.946053 426.667 1.75495C426.667 2.56385 427.362 3.23793 428.197 3.23793C429.03 3.23793 429.726 2.56385 429.726 1.75495ZM429.726 31.2796C429.726 30.4708 429.03 29.7967 428.197 29.7967C427.362 29.7967 426.667 30.4708 426.667 31.2796C426.667 32.0885 427.362 32.7626 428.197 32.7626C429.03 32.7626 429.726 32.0885 429.726 31.2796ZM429.726 60.8718C429.726 60.0629 429.03 59.3888 428.197 59.3888C427.362 59.3888 426.667 60.0629 426.667 60.8718C426.667 61.6806 427.362 62.3548 428.197 62.3548C429.03 62.3548 429.726 61.6806 429.726 60.8718ZM429.726 90.3967C429.726 89.5876 429.03 88.9134 428.197 88.9134C427.362 88.9134 426.667 89.5876 426.667 90.3967C426.667 91.2057 427.362 91.8791 428.197 91.8791C429.03 91.8791 429.726 91.2057 429.726 90.3967ZM429.726 119.921C429.726 119.112 429.03 118.439 428.197 118.439C427.362 118.439 426.667 119.112 426.667 119.921C426.667 120.73 427.362 121.404 428.197 121.404C429.03 121.404 429.726 120.73 429.726 119.921ZM429.726 149.513C429.726 148.704 429.03 148.031 428.197 148.031C427.362 148.031 426.667 148.704 426.667 149.513C426.667 150.322 427.362 150.996 428.197 150.996C429.03 150.996 429.726 150.322 429.726 149.513ZM429.726 179.038C429.726 178.229 429.03 177.555 428.197 177.555C427.362 177.555 426.667 178.229 426.667 179.038C426.667 179.847 427.362 180.521 428.197 180.521C429.03 180.521 429.726 179.847 429.726 179.038ZM429.726 208.562C429.726 207.753 429.03 207.08 428.197 207.08C427.362 207.08 426.667 207.753 426.667 208.562C426.667 209.371 427.362 210.046 428.197 210.046C429.03 210.046 429.726 209.439 429.726 208.562ZM429.726 238.155C429.726 237.346 429.03 236.672 428.197 236.672C427.362 236.672 426.667 237.346 426.667 238.155C426.667 238.964 427.362 239.638 428.197 239.638C429.03 239.638 429.726 238.964 429.726 238.155ZM429.726 267.68C429.726 266.871 429.03 266.196 428.197 266.196C427.362 266.196 426.667 266.871 426.667 267.68C426.667 268.489 427.362 269.163 428.197 269.163C429.03 269.163 429.726 268.489 429.726 267.68ZM429.726 297.272C429.726 296.463 429.03 295.789 428.197 295.789C427.362 295.789 426.667 296.463 426.667 297.272C426.667 298.081 427.362 298.755 428.197 298.755C429.03 298.687 429.726 298.081 429.726 297.272ZM429.726 326.796C429.726 325.988 429.03 325.314 428.197 325.314C427.362 325.314 426.667 325.988 426.667 326.796C426.667 327.605 427.362 328.279 428.197 328.279C429.03 328.279 429.726 327.605 429.726 326.796ZM429.726 356.321C429.726 355.512 429.03 354.838 428.197 354.838C427.362 354.838 426.667 355.512 426.667 356.321C426.667 357.13 427.362 357.804 428.197 357.804C429.03 357.804 429.726 357.13 429.726 356.321ZM429.726 385.913C429.726 385.104 429.03 384.43 428.197 384.43C427.362 384.43 426.667 385.104 426.667 385.913C426.667 386.722 427.362 387.396 428.197 387.396C429.03 387.396 429.726 386.722 429.726 385.913ZM429.726 415.438C429.726 414.629 429.03 413.955 428.197 413.955C427.362 413.955 426.667 414.629 426.667 415.438C426.667 416.247 427.362 416.921 428.197 416.921C429.03 416.921 429.726 416.247 429.726 415.438ZM429.726 444.963C429.726 444.154 429.03 443.479 428.197 443.479C427.362 443.479 426.667 444.154 426.667 444.963C426.667 445.772 427.362 446.446 428.197 446.446C429.03 446.446 429.726 445.772 429.726 444.963ZM429.726 474.555C429.726 473.746 429.03 473.071 428.197 473.071C427.362 473.071 426.667 473.746 426.667 474.555C426.667 475.364 427.362 476.038 428.197 476.038C429.03 476.038 429.726 475.364 429.726 474.555ZM399.275 1.75495C399.275 0.946053 398.579 0.271973 397.745 0.271973C396.911 0.271973 396.215 0.946053 396.215 1.75495C396.215 2.56385 396.911 3.23793 397.745 3.23793C398.579 3.23793 399.275 2.56385 399.275 1.75495ZM399.275 31.2796C399.275 30.4708 398.579 29.7967 397.745 29.7967C396.911 29.7967 396.215 30.4708 396.215 31.2796C396.215 32.0885 396.911 32.7626 397.745 32.7626C398.579 32.7626 399.275 32.0885 399.275 31.2796ZM399.275 60.8718C399.275 60.0629 398.579 59.3888 397.745 59.3888C396.911 59.3888 396.215 60.0629 396.215 60.8718C396.215 61.6806 396.911 62.3548 397.745 62.3548C398.579 62.3548 399.275 61.6806 399.275 60.8718ZM399.275 90.3967C399.275 89.5876 398.579 88.9134 397.745 88.9134C396.911 88.9134 396.215 89.5876 396.215 90.3967C396.215 91.2057 396.911 91.8791 397.745 91.8791C398.579 91.8791 399.275 91.2057 399.275 90.3967ZM399.275 119.921C399.275 119.112 398.579 118.439 397.745 118.439C396.911 118.439 396.215 119.112 396.215 119.921C396.215 120.73 396.911 121.404 397.745 121.404C398.579 121.404 399.275 120.73 399.275 119.921ZM399.275 149.513C399.275 148.704 398.579 148.031 397.745 148.031C396.911 148.031 396.215 148.704 396.215 149.513C396.215 150.322 396.911 150.996 397.745 150.996C398.579 150.996 399.275 150.322 399.275 149.513ZM399.275 179.038C399.275 178.229 398.579 177.555 397.745 177.555C396.911 177.555 396.215 178.229 396.215 179.038C396.215 179.847 396.911 180.521 397.745 180.521C398.579 180.521 399.275 179.847 399.275 179.038ZM399.275 208.562C399.275 207.753 398.579 207.08 397.745 207.08C396.911 207.08 396.215 207.753 396.215 208.562C396.215 209.371 396.911 210.046 397.745 210.046C398.579 210.046 399.275 209.439 399.275 208.562ZM399.275 238.155C399.275 237.346 398.579 236.672 397.745 236.672C396.911 236.672 396.215 237.346 396.215 238.155C396.215 238.964 396.911 239.638 397.745 239.638C398.579 239.638 399.275 238.964 399.275 238.155ZM399.275 267.68C399.275 266.871 398.579 266.196 397.745 266.196C396.911 266.196 396.215 266.871 396.215 267.68C396.215 268.489 396.911 269.163 397.745 269.163C398.579 269.163 399.275 268.489 399.275 267.68ZM399.275 297.272C399.275 296.463 398.579 295.789 397.745 295.789C396.911 295.789 396.215 296.463 396.215 297.272C396.215 298.081 396.911 298.755 397.745 298.755C398.579 298.687 399.275 298.081 399.275 297.272ZM399.275 326.796C399.275 325.988 398.579 325.314 397.745 325.314C396.911 325.314 396.215 325.988 396.215 326.796C396.215 327.605 396.911 328.279 397.745 328.279C398.579 328.279 399.275 327.605 399.275 326.796ZM399.275 356.321C399.275 355.512 398.579 354.838 397.745 354.838C396.911 354.838 396.215 355.512 396.215 356.321C396.215 357.13 396.911 357.804 397.745 357.804C398.579 357.804 399.275 357.13 399.275 356.321ZM399.275 385.913C399.275 385.104 398.579 384.43 397.745 384.43C396.911 384.43 396.215 385.104 396.215 385.913C396.215 386.722 396.911 387.396 397.745 387.396C398.579 387.396 399.275 386.722 399.275 385.913ZM399.275 415.438C399.275 414.629 398.579 413.955 397.745 413.955C396.911 413.955 396.215 414.629 396.215 415.438C396.215 416.247 396.911 416.921 397.745 416.921C398.579 416.921 399.275 416.247 399.275 415.438ZM399.275 444.963C399.275 444.154 398.579 443.479 397.745 443.479C396.911 443.479 396.215 444.154 396.215 444.963C396.215 445.772 396.911 446.446 397.745 446.446C398.579 446.446 399.275 445.772 399.275 444.963ZM399.275 474.555C399.275 473.746 398.579 473.071 397.745 473.071C396.911 473.071 396.215 473.746 396.215 474.555C396.215 475.364 396.911 476.038 397.745 476.038C398.579 476.038 399.275 475.364 399.275 474.555ZM368.754 1.75495C368.754 0.946053 368.058 0.271973 367.225 0.271973C366.39 0.271973 365.695 0.946053 365.695 1.75495C365.695 2.56385 366.39 3.23793 367.225 3.23793C368.058 3.23793 368.754 2.56385 368.754 1.75495ZM368.754 31.2796C368.754 30.4708 368.058 29.7967 367.225 29.7967C366.39 29.7967 365.695 30.4708 365.695 31.2796C365.695 32.0885 366.39 32.7626 367.225 32.7626C368.058 32.7626 368.754 32.0885 368.754 31.2796ZM368.754 60.8718C368.754 60.0629 368.058 59.3888 367.225 59.3888C366.39 59.3888 365.695 60.0629 365.695 60.8718C365.695 61.6806 366.39 62.3548 367.225 62.3548C368.058 62.3548 368.754 61.6806 368.754 60.8718ZM368.754 90.3967C368.754 89.5876 368.058 88.9134 367.225 88.9134C366.39 88.9134 365.695 89.5876 365.695 90.3967C365.695 91.2057 366.39 91.8791 367.225 91.8791C368.058 91.8791 368.754 91.2057 368.754 90.3967ZM368.754 119.921C368.754 119.112 368.058 118.439 367.225 118.439C366.39 118.439 365.695 119.112 365.695 119.921C365.695 120.73 366.39 121.404 367.225 121.404C368.058 121.404 368.754 120.73 368.754 119.921ZM368.754 149.513C368.754 148.704 368.058 148.031 367.225 148.031C366.39 148.031 365.695 148.704 365.695 149.513C365.695 150.322 366.39 150.996 367.225 150.996C368.058 150.996 368.754 150.322 368.754 149.513ZM368.754 179.038C368.754 178.229 368.058 177.555 367.225 177.555C366.39 177.555 365.695 178.229 365.695 179.038C365.695 179.847 366.39 180.521 367.225 180.521C368.058 180.521 368.754 179.847 368.754 179.038ZM368.754 208.562C368.754 207.753 368.058 207.08 367.225 207.08C366.39 207.08 365.695 207.753 365.695 208.562C365.695 209.371 366.39 210.046 367.225 210.046C368.058 210.046 368.754 209.439 368.754 208.562ZM368.754 238.155C368.754 237.346 368.058 236.672 367.225 236.672C366.39 236.672 365.695 237.346 365.695 238.155C365.695 238.964 366.39 239.638 367.225 239.638C368.058 239.638 368.754 238.964 368.754 238.155ZM368.754 267.68C368.754 266.871 368.058 266.196 367.225 266.196C366.39 266.196 365.695 266.871 365.695 267.68C365.695 268.489 366.39 269.163 367.225 269.163C368.058 269.163 368.754 268.489 368.754 267.68ZM368.754 297.272C368.754 296.463 368.058 295.789 367.225 295.789C366.39 295.789 365.695 296.463 365.695 297.272C365.695 298.081 366.39 298.755 367.225 298.755C368.058 298.687 368.754 298.081 368.754 297.272ZM368.754 326.796C368.754 325.988 368.058 325.314 367.225 325.314C366.39 325.314 365.695 325.988 365.695 326.796C365.695 327.605 366.39 328.279 367.225 328.279C368.058 328.279 368.754 327.605 368.754 326.796ZM368.754 356.321C368.754 355.512 368.058 354.838 367.225 354.838C366.39 354.838 365.695 355.512 365.695 356.321C365.695 357.13 366.39 357.804 367.225 357.804C368.058 357.804 368.754 357.13 368.754 356.321ZM368.754 385.913C368.754 385.104 368.058 384.43 367.225 384.43C366.39 384.43 365.695 385.104 365.695 385.913C365.695 386.722 366.39 387.396 367.225 387.396C368.058 387.396 368.754 386.722 368.754 385.913ZM368.754 415.438C368.754 414.629 368.058 413.955 367.225 413.955C366.39 413.955 365.695 414.629 365.695 415.438C365.695 416.247 366.39 416.921 367.225 416.921C368.058 416.921 368.754 416.247 368.754 415.438ZM368.754 444.963C368.754 444.154 368.058 443.479 367.225 443.479C366.39 443.479 365.695 444.154 365.695 444.963C365.695 445.772 366.39 446.446 367.225 446.446C368.058 446.446 368.754 445.772 368.754 444.963ZM368.754 474.555C368.754 473.746 368.058 473.071 367.225 473.071C366.39 473.071 365.695 473.746 365.695 474.555C365.695 475.364 366.39 476.038 367.225 476.038C368.058 476.038 368.754 475.364 368.754 474.555ZM338.303 1.75495C338.303 0.946053 337.607 0.271973 336.773 0.271973C335.938 0.271973 335.243 0.946053 335.243 1.75495C335.243 2.56385 335.938 3.23793 336.773 3.23793C337.607 3.23793 338.303 2.56385 338.303 1.75495ZM338.303 31.2796C338.303 30.4708 337.607 29.7967 336.773 29.7967C335.938 29.7967 335.243 30.4708 335.243 31.2796C335.243 32.0885 335.938 32.7626 336.773 32.7626C337.607 32.7626 338.303 32.0885 338.303 31.2796ZM338.303 60.8718C338.303 60.0629 337.607 59.3888 336.773 59.3888C335.938 59.3888 335.243 60.0629 335.243 60.8718C335.243 61.6806 335.938 62.3548 336.773 62.3548C337.607 62.3548 338.303 61.6806 338.303 60.8718ZM338.303 90.3967C338.303 89.5876 337.607 88.9134 336.773 88.9134C335.938 88.9134 335.243 89.5876 335.243 90.3967C335.243 91.2057 335.938 91.8791 336.773 91.8791C337.607 91.8791 338.303 91.2057 338.303 90.3967ZM338.303 119.921C338.303 119.112 337.607 118.439 336.773 118.439C335.938 118.439 335.243 119.112 335.243 119.921C335.243 120.73 335.938 121.404 336.773 121.404C337.607 121.404 338.303 120.73 338.303 119.921ZM338.303 149.513C338.303 148.704 337.607 148.031 336.773 148.031C335.938 148.031 335.243 148.704 335.243 149.513C335.243 150.322 335.938 150.996 336.773 150.996C337.607 150.996 338.303 150.322 338.303 149.513ZM338.303 179.038C338.303 178.229 337.607 177.555 336.773 177.555C335.938 177.555 335.243 178.229 335.243 179.038C335.243 179.847 335.938 180.521 336.773 180.521C337.607 180.521 338.303 179.847 338.303 179.038ZM338.303 208.562C338.303 207.753 337.607 207.08 336.773 207.08C335.938 207.08 335.243 207.753 335.243 208.562C335.243 209.371 335.938 210.046 336.773 210.046C337.607 210.046 338.303 209.439 338.303 208.562ZM338.303 238.155C338.303 237.346 337.607 236.672 336.773 236.672C335.938 236.672 335.243 237.346 335.243 238.155C335.243 238.964 335.938 239.638 336.773 239.638C337.607 239.638 338.303 238.964 338.303 238.155ZM338.303 267.68C338.303 266.871 337.607 266.196 336.773 266.196C335.938 266.196 335.243 266.871 335.243 267.68C335.243 268.489 335.938 269.163 336.773 269.163C337.607 269.163 338.303 268.489 338.303 267.68ZM338.303 297.272C338.303 296.463 337.607 295.789 336.773 295.789C335.938 295.789 335.243 296.463 335.243 297.272C335.243 298.081 335.938 298.755 336.773 298.755C337.607 298.687 338.303 298.081 338.303 297.272ZM338.303 326.796C338.303 325.988 337.607 325.314 336.773 325.314C335.938 325.314 335.243 325.988 335.243 326.796C335.243 327.605 335.938 328.279 336.773 328.279C337.607 328.279 338.303 327.605 338.303 326.796ZM338.303 356.321C338.303 355.512 337.607 354.838 336.773 354.838C335.938 354.838 335.243 355.512 335.243 356.321C335.243 357.13 335.938 357.804 336.773 357.804C337.607 357.804 338.303 357.13 338.303 356.321ZM338.303 385.913C338.303 385.104 337.607 384.43 336.773 384.43C335.938 384.43 335.243 385.104 335.243 385.913C335.243 386.722 335.938 387.396 336.773 387.396C337.607 387.396 338.303 386.722 338.303 385.913ZM338.303 415.438C338.303 414.629 337.607 413.955 336.773 413.955C335.938 413.955 335.243 414.629 335.243 415.438C335.243 416.247 335.938 416.921 336.773 416.921C337.607 416.921 338.303 416.247 338.303 415.438ZM338.303 444.963C338.303 444.154 337.607 443.479 336.773 443.479C335.938 443.479 335.243 444.154 335.243 444.963C335.243 445.772 335.938 446.446 336.773 446.446C337.607 446.446 338.303 445.772 338.303 444.963ZM338.303 474.555C338.303 473.746 337.607 473.071 336.773 473.071C335.938 473.071 335.243 473.746 335.243 474.555C335.243 475.364 335.938 476.038 336.773 476.038C337.607 476.038 338.303 475.364 338.303 474.555ZM307.781 1.75495C307.781 0.946053 307.086 0.271973 306.252 0.271973C305.418 0.271973 304.722 0.946053 304.722 1.75495C304.722 2.56385 305.418 3.23793 306.252 3.23793C307.156 3.23793 307.781 2.56385 307.781 1.75495ZM307.781 31.2796C307.781 30.4708 307.086 29.7967 306.252 29.7967C305.418 29.7967 304.722 30.4708 304.722 31.2796C304.722 32.0885 305.418 32.7626 306.252 32.7626C307.156 32.7626 307.781 32.0885 307.781 31.2796ZM307.781 60.8718C307.781 60.0629 307.086 59.3888 306.252 59.3888C305.418 59.3888 304.722 60.0629 304.722 60.8718C304.722 61.6806 305.418 62.3548 306.252 62.3548C307.156 62.3548 307.781 61.6806 307.781 60.8718ZM307.781 90.3967C307.781 89.5876 307.086 88.9134 306.252 88.9134C305.418 88.9134 304.722 89.5876 304.722 90.3967C304.722 91.2057 305.418 91.8791 306.252 91.8791C307.156 91.8791 307.781 91.2057 307.781 90.3967ZM307.781 119.921C307.781 119.112 307.086 118.439 306.252 118.439C305.418 118.439 304.722 119.112 304.722 119.921C304.722 120.73 305.418 121.404 306.252 121.404C307.156 121.404 307.781 120.73 307.781 119.921ZM307.781 149.513C307.781 148.704 307.086 148.031 306.252 148.031C305.418 148.031 304.722 148.704 304.722 149.513C304.722 150.322 305.418 150.996 306.252 150.996C307.156 150.996 307.781 150.322 307.781 149.513ZM307.781 179.038C307.781 178.229 307.086 177.555 306.252 177.555C305.418 177.555 304.722 178.229 304.722 179.038C304.722 179.847 305.418 180.521 306.252 180.521C307.156 180.521 307.781 179.847 307.781 179.038ZM307.781 208.562C307.781 207.753 307.086 207.08 306.252 207.08C305.418 207.08 304.722 207.753 304.722 208.562C304.722 209.371 305.418 210.046 306.252 210.046C307.156 210.046 307.781 209.439 307.781 208.562ZM307.781 238.155C307.781 237.346 307.086 236.672 306.252 236.672C305.418 236.672 304.722 237.346 304.722 238.155C304.722 238.964 305.418 239.638 306.252 239.638C307.156 239.638 307.781 238.964 307.781 238.155ZM307.781 267.68C307.781 266.871 307.086 266.196 306.252 266.196C305.418 266.196 304.722 266.871 304.722 267.68C304.722 268.489 305.418 269.163 306.252 269.163C307.156 269.163 307.781 268.489 307.781 267.68ZM307.781 297.272C307.781 296.463 307.086 295.789 306.252 295.789C305.418 295.789 304.722 296.463 304.722 297.272C304.722 298.081 305.418 298.755 306.252 298.755C307.156 298.687 307.781 298.081 307.781 297.272ZM307.781 326.796C307.781 325.988 307.086 325.314 306.252 325.314C305.418 325.314 304.722 325.988 304.722 326.796C304.722 327.605 305.418 328.279 306.252 328.279C307.156 328.279 307.781 327.605 307.781 326.796ZM307.781 356.321C307.781 355.512 307.086 354.838 306.252 354.838C305.418 354.838 304.722 355.512 304.722 356.321C304.722 357.13 305.418 357.804 306.252 357.804C307.156 357.804 307.781 357.13 307.781 356.321ZM307.781 385.913C307.781 385.104 307.086 384.43 306.252 384.43C305.418 384.43 304.722 385.104 304.722 385.913C304.722 386.722 305.418 387.396 306.252 387.396C307.156 387.396 307.781 386.722 307.781 385.913ZM307.781 415.438C307.781 414.629 307.086 413.955 306.252 413.955C305.418 413.955 304.722 414.629 304.722 415.438C304.722 416.247 305.418 416.921 306.252 416.921C307.156 416.921 307.781 416.247 307.781 415.438ZM307.781 444.963C307.781 444.154 307.086 443.479 306.252 443.479C305.418 443.479 304.722 444.154 304.722 444.963C304.722 445.772 305.418 446.446 306.252 446.446C307.156 446.446 307.781 445.772 307.781 444.963ZM307.781 474.555C307.781 473.746 307.086 473.071 306.252 473.071C305.418 473.071 304.722 473.746 304.722 474.555C304.722 475.364 305.418 476.038 306.252 476.038C307.156 476.038 307.781 475.364 307.781 474.555ZM277.33 1.75495C277.33 0.946053 276.635 0.271973 275.8 0.271973C274.966 0.271973 274.271 0.946053 274.271 1.75495C274.271 2.56385 274.966 3.23793 275.8 3.23793C276.635 3.23793 277.33 2.56385 277.33 1.75495ZM277.33 31.2796C277.33 30.4708 276.635 29.7967 275.8 29.7967C274.966 29.7967 274.271 30.4708 274.271 31.2796C274.271 32.0885 274.966 32.7626 275.8 32.7626C276.635 32.7626 277.33 32.0885 277.33 31.2796ZM277.33 60.8718C277.33 60.0629 276.635 59.3888 275.8 59.3888C274.966 59.3888 274.271 60.0629 274.271 60.8718C274.271 61.6806 274.966 62.3548 275.8 62.3548C276.635 62.3548 277.33 61.6806 277.33 60.8718ZM277.33 90.3967C277.33 89.5876 276.635 88.9134 275.8 88.9134C274.966 88.9134 274.271 89.5876 274.271 90.3967C274.271 91.2057 274.966 91.8791 275.8 91.8791C276.635 91.8791 277.33 91.2057 277.33 90.3967ZM277.33 119.921C277.33 119.112 276.635 118.439 275.8 118.439C274.966 118.439 274.271 119.112 274.271 119.921C274.271 120.73 274.966 121.404 275.8 121.404C276.635 121.404 277.33 120.73 277.33 119.921ZM277.33 149.513C277.33 148.704 276.635 148.031 275.8 148.031C274.966 148.031 274.271 148.704 274.271 149.513C274.271 150.322 274.966 150.996 275.8 150.996C276.635 150.996 277.33 150.322 277.33 149.513ZM277.33 179.038C277.33 178.229 276.635 177.555 275.8 177.555C274.966 177.555 274.271 178.229 274.271 179.038C274.271 179.847 274.966 180.521 275.8 180.521C276.635 180.521 277.33 179.847 277.33 179.038ZM277.33 208.562C277.33 207.753 276.635 207.08 275.8 207.08C274.966 207.08 274.271 207.753 274.271 208.562C274.271 209.371 274.966 210.046 275.8 210.046C276.635 210.046 277.33 209.439 277.33 208.562ZM277.33 238.155C277.33 237.346 276.635 236.672 275.8 236.672C274.966 236.672 274.271 237.346 274.271 238.155C274.271 238.964 274.966 239.638 275.8 239.638C276.635 239.638 277.33 238.964 277.33 238.155ZM277.33 267.68C277.33 266.871 276.635 266.196 275.8 266.196C274.966 266.196 274.271 266.871 274.271 267.68C274.271 268.489 274.966 269.163 275.8 269.163C276.635 269.163 277.33 268.489 277.33 267.68ZM277.33 297.272C277.33 296.463 276.635 295.789 275.8 295.789C274.966 295.789 274.271 296.463 274.271 297.272C274.271 298.081 274.966 298.755 275.8 298.755C276.635 298.687 277.33 298.081 277.33 297.272ZM277.33 326.796C277.33 325.988 276.635 325.314 275.8 325.314C274.966 325.314 274.271 325.988 274.271 326.796C274.271 327.605 274.966 328.279 275.8 328.279C276.635 328.279 277.33 327.605 277.33 326.796ZM277.33 356.321C277.33 355.512 276.635 354.838 275.8 354.838C274.966 354.838 274.271 355.512 274.271 356.321C274.271 357.13 274.966 357.804 275.8 357.804C276.635 357.804 277.33 357.13 277.33 356.321ZM277.33 385.913C277.33 385.104 276.635 384.43 275.8 384.43C274.966 384.43 274.271 385.104 274.271 385.913C274.271 386.722 274.966 387.396 275.8 387.396C276.635 387.396 277.33 386.722 277.33 385.913ZM277.33 415.438C277.33 414.629 276.635 413.955 275.8 413.955C274.966 413.955 274.271 414.629 274.271 415.438C274.271 416.247 274.966 416.921 275.8 416.921C276.635 416.921 277.33 416.247 277.33 415.438ZM277.33 444.963C277.33 444.154 276.635 443.479 275.8 443.479C274.966 443.479 274.271 444.154 274.271 444.963C274.271 445.772 274.966 446.446 275.8 446.446C276.635 446.446 277.33 445.772 277.33 444.963ZM277.33 474.555C277.33 473.746 276.635 473.071 275.8 473.071C274.966 473.071 274.271 473.746 274.271 474.555C274.271 475.364 274.966 476.038 275.8 476.038C276.635 476.038 277.33 475.364 277.33 474.555ZM246.878 1.75495C246.878 0.946053 246.183 0.271973 245.349 0.271973C244.515 0.271973 243.82 0.946053 243.82 1.75495C243.82 2.56385 244.515 3.23793 245.349 3.23793C246.183 3.23793 246.878 2.56385 246.878 1.75495ZM246.878 31.2796C246.878 30.4708 246.183 29.7967 245.349 29.7967C244.515 29.7967 243.82 30.4708 243.82 31.2796C243.82 32.0885 244.515 32.7626 245.349 32.7626C246.183 32.7626 246.878 32.0885 246.878 31.2796ZM246.878 60.8718C246.878 60.0629 246.183 59.3888 245.349 59.3888C244.515 59.3888 243.82 60.0629 243.82 60.8718C243.82 61.6806 244.515 62.3548 245.349 62.3548C246.183 62.3548 246.878 61.6806 246.878 60.8718ZM246.878 90.3967C246.878 89.5876 246.183 88.9134 245.349 88.9134C244.515 88.9134 243.82 89.5876 243.82 90.3967C243.82 91.2057 244.515 91.8791 245.349 91.8791C246.183 91.8791 246.878 91.2057 246.878 90.3967ZM246.878 119.921C246.878 119.112 246.183 118.439 245.349 118.439C244.515 118.439 243.82 119.112 243.82 119.921C243.82 120.73 244.515 121.404 245.349 121.404C246.183 121.404 246.878 120.73 246.878 119.921ZM246.878 149.513C246.878 148.704 246.183 148.031 245.349 148.031C244.515 148.031 243.82 148.704 243.82 149.513C243.82 150.322 244.515 150.996 245.349 150.996C246.183 150.996 246.878 150.322 246.878 149.513ZM246.878 179.038C246.878 178.229 246.183 177.555 245.349 177.555C244.515 177.555 243.82 178.229 243.82 179.038C243.82 179.847 244.515 180.521 245.349 180.521C246.183 180.521 246.878 179.847 246.878 179.038ZM246.878 208.562C246.878 207.753 246.183 207.08 245.349 207.08C244.515 207.08 243.82 207.753 243.82 208.562C243.82 209.371 244.515 210.046 245.349 210.046C246.183 210.046 246.878 209.439 246.878 208.562ZM246.878 238.155C246.878 237.346 246.183 236.672 245.349 236.672C244.515 236.672 243.82 237.346 243.82 238.155C243.82 238.964 244.515 239.638 245.349 239.638C246.183 239.638 246.878 238.964 246.878 238.155ZM246.878 267.68C246.878 266.871 246.183 266.196 245.349 266.196C244.515 266.196 243.82 266.871 243.82 267.68C243.82 268.489 244.515 269.163 245.349 269.163C246.183 269.163 246.878 268.489 246.878 267.68ZM246.878 297.272C246.878 296.463 246.183 295.789 245.349 295.789C244.515 295.789 243.82 296.463 243.82 297.272C243.82 298.081 244.515 298.755 245.349 298.755C246.183 298.687 246.878 298.081 246.878 297.272ZM246.878 326.796C246.878 325.988 246.183 325.314 245.349 325.314C244.515 325.314 243.82 325.988 243.82 326.796C243.82 327.605 244.515 328.279 245.349 328.279C246.183 328.279 246.878 327.605 246.878 326.796ZM246.878 356.321C246.878 355.512 246.183 354.838 245.349 354.838C244.515 354.838 243.82 355.512 243.82 356.321C243.82 357.13 244.515 357.804 245.349 357.804C246.183 357.804 246.878 357.13 246.878 356.321ZM246.878 385.913C246.878 385.104 246.183 384.43 245.349 384.43C244.515 384.43 243.82 385.104 243.82 385.913C243.82 386.722 244.515 387.396 245.349 387.396C246.183 387.396 246.878 386.722 246.878 385.913ZM246.878 415.438C246.878 414.629 246.183 413.955 245.349 413.955C244.515 413.955 243.82 414.629 243.82 415.438C243.82 416.247 244.515 416.921 245.349 416.921C246.183 416.921 246.878 416.247 246.878 415.438ZM246.878 444.963C246.878 444.154 246.183 443.479 245.349 443.479C244.515 443.479 243.82 444.154 243.82 444.963C243.82 445.772 244.515 446.446 245.349 446.446C246.183 446.446 246.878 445.772 246.878 444.963ZM246.878 474.555C246.878 473.746 246.183 473.071 245.349 473.071C244.515 473.071 243.82 473.746 243.82 474.555C243.82 475.364 244.515 476.038 245.349 476.038C246.183 476.038 246.878 475.364 246.878 474.555ZM216.358 1.75495C216.358 0.946053 215.663 0.271973 214.828 0.271973C213.994 0.271973 213.298 0.946053 213.298 1.75495C213.298 2.56385 213.994 3.23793 214.828 3.23793C215.732 3.23793 216.358 2.56385 216.358 1.75495ZM216.358 31.2796C216.358 30.4708 215.663 29.7967 214.828 29.7967C213.994 29.7967 213.298 30.4708 213.298 31.2796C213.298 32.0885 213.994 32.7626 214.828 32.7626C215.732 32.7626 216.358 32.0885 216.358 31.2796ZM216.358 60.8718C216.358 60.0629 215.663 59.3888 214.828 59.3888C213.994 59.3888 213.298 60.0629 213.298 60.8718C213.298 61.6806 213.994 62.3548 214.828 62.3548C215.732 62.3548 216.358 61.6806 216.358 60.8718ZM216.358 90.3967C216.358 89.5876 215.663 88.9134 214.828 88.9134C213.994 88.9134 213.298 89.5876 213.298 90.3967C213.298 91.2057 213.994 91.8791 214.828 91.8791C215.732 91.8791 216.358 91.2057 216.358 90.3967ZM216.358 119.921C216.358 119.112 215.663 118.439 214.828 118.439C213.994 118.439 213.298 119.112 213.298 119.921C213.298 120.73 213.994 121.404 214.828 121.404C215.732 121.404 216.358 120.73 216.358 119.921ZM216.358 149.513C216.358 148.704 215.663 148.031 214.828 148.031C213.994 148.031 213.298 148.704 213.298 149.513C213.298 150.322 213.994 150.996 214.828 150.996C215.732 150.996 216.358 150.322 216.358 149.513ZM216.358 179.038C216.358 178.229 215.663 177.555 214.828 177.555C213.994 177.555 213.298 178.229 213.298 179.038C213.298 179.847 213.994 180.521 214.828 180.521C215.732 180.521 216.358 179.847 216.358 179.038ZM216.358 208.562C216.358 207.753 215.663 207.08 214.828 207.08C213.994 207.08 213.298 207.753 213.298 208.562C213.298 209.371 213.994 210.046 214.828 210.046C215.732 210.046 216.358 209.439 216.358 208.562ZM216.358 238.155C216.358 237.346 215.663 236.672 214.828 236.672C213.994 236.672 213.298 237.346 213.298 238.155C213.298 238.964 213.994 239.638 214.828 239.638C215.732 239.638 216.358 238.964 216.358 238.155ZM216.358 267.68C216.358 266.871 215.663 266.196 214.828 266.196C213.994 266.196 213.298 266.871 213.298 267.68C213.298 268.489 213.994 269.163 214.828 269.163C215.732 269.163 216.358 268.489 216.358 267.68ZM216.358 297.272C216.358 296.463 215.663 295.789 214.828 295.789C213.994 295.789 213.298 296.463 213.298 297.272C213.298 298.081 213.994 298.755 214.828 298.755C215.732 298.687 216.358 298.081 216.358 297.272ZM216.358 326.796C216.358 325.988 215.663 325.314 214.828 325.314C213.994 325.314 213.298 325.988 213.298 326.796C213.298 327.605 213.994 328.279 214.828 328.279C215.732 328.279 216.358 327.605 216.358 326.796ZM216.358 356.321C216.358 355.512 215.663 354.838 214.828 354.838C213.994 354.838 213.298 355.512 213.298 356.321C213.298 357.13 213.994 357.804 214.828 357.804C215.732 357.804 216.358 357.13 216.358 356.321ZM216.358 385.913C216.358 385.104 215.663 384.43 214.828 384.43C213.994 384.43 213.298 385.104 213.298 385.913C213.298 386.722 213.994 387.396 214.828 387.396C215.732 387.396 216.358 386.722 216.358 385.913ZM216.358 415.438C216.358 414.629 215.663 413.955 214.828 413.955C213.994 413.955 213.298 414.629 213.298 415.438C213.298 416.247 213.994 416.921 214.828 416.921C215.732 416.921 216.358 416.247 216.358 415.438ZM216.358 444.963C216.358 444.154 215.663 443.479 214.828 443.479C213.994 443.479 213.298 444.154 213.298 444.963C213.298 445.772 213.994 446.446 214.828 446.446C215.732 446.446 216.358 445.772 216.358 444.963ZM216.358 474.555C216.358 473.746 215.663 473.071 214.828 473.071C213.994 473.071 213.298 473.746 213.298 474.555C213.298 475.364 213.994 476.038 214.828 476.038C215.732 476.038 216.358 475.364 216.358 474.555ZM185.906 1.75495C185.906 0.946053 185.211 0.271973 184.377 0.271973C183.543 0.271973 182.847 0.946053 182.847 1.75495C182.847 2.56385 183.543 3.23793 184.377 3.23793C185.211 3.23793 185.906 2.56385 185.906 1.75495ZM185.906 31.2796C185.906 30.4708 185.211 29.7967 184.377 29.7967C183.543 29.7967 182.847 30.4708 182.847 31.2796C182.847 32.0885 183.543 32.7626 184.377 32.7626C185.211 32.7626 185.906 32.0885 185.906 31.2796ZM185.906 60.8718C185.906 60.0629 185.211 59.3888 184.377 59.3888C183.543 59.3888 182.847 60.0629 182.847 60.8718C182.847 61.6806 183.543 62.3548 184.377 62.3548C185.211 62.3548 185.906 61.6806 185.906 60.8718ZM185.906 90.3967C185.906 89.5876 185.211 88.9134 184.377 88.9134C183.543 88.9134 182.847 89.5876 182.847 90.3967C182.847 91.2057 183.543 91.8791 184.377 91.8791C185.211 91.8791 185.906 91.2057 185.906 90.3967ZM185.906 119.921C185.906 119.112 185.211 118.439 184.377 118.439C183.543 118.439 182.847 119.112 182.847 119.921C182.847 120.73 183.543 121.404 184.377 121.404C185.211 121.404 185.906 120.73 185.906 119.921ZM185.906 149.513C185.906 148.704 185.211 148.031 184.377 148.031C183.543 148.031 182.847 148.704 182.847 149.513C182.847 150.322 183.543 150.996 184.377 150.996C185.211 150.996 185.906 150.322 185.906 149.513ZM185.906 179.038C185.906 178.229 185.211 177.555 184.377 177.555C183.543 177.555 182.847 178.229 182.847 179.038C182.847 179.847 183.543 180.521 184.377 180.521C185.211 180.521 185.906 179.847 185.906 179.038ZM185.906 208.562C185.906 207.753 185.211 207.08 184.377 207.08C183.543 207.08 182.847 207.753 182.847 208.562C182.847 209.371 183.543 210.046 184.377 210.046C185.211 210.046 185.906 209.439 185.906 208.562ZM185.906 238.155C185.906 237.346 185.211 236.672 184.377 236.672C183.543 236.672 182.847 237.346 182.847 238.155C182.847 238.964 183.543 239.638 184.377 239.638C185.211 239.638 185.906 238.964 185.906 238.155ZM185.906 267.68C185.906 266.871 185.211 266.196 184.377 266.196C183.543 266.196 182.847 266.871 182.847 267.68C182.847 268.489 183.543 269.163 184.377 269.163C185.211 269.163 185.906 268.489 185.906 267.68ZM185.906 297.272C185.906 296.463 185.211 295.789 184.377 295.789C183.543 295.789 182.847 296.463 182.847 297.272C182.847 298.081 183.543 298.755 184.377 298.755C185.211 298.687 185.906 298.081 185.906 297.272ZM185.906 326.796C185.906 325.988 185.211 325.314 184.377 325.314C183.543 325.314 182.847 325.988 182.847 326.796C182.847 327.605 183.543 328.279 184.377 328.279C185.211 328.279 185.906 327.605 185.906 326.796ZM185.906 356.321C185.906 355.512 185.211 354.838 184.377 354.838C183.543 354.838 182.847 355.512 182.847 356.321C182.847 357.13 183.543 357.804 184.377 357.804C185.211 357.804 185.906 357.13 185.906 356.321ZM185.906 385.913C185.906 385.104 185.211 384.43 184.377 384.43C183.543 384.43 182.847 385.104 182.847 385.913C182.847 386.722 183.543 387.396 184.377 387.396C185.211 387.396 185.906 386.722 185.906 385.913ZM185.906 415.438C185.906 414.629 185.211 413.955 184.377 413.955C183.543 413.955 182.847 414.629 182.847 415.438C182.847 416.247 183.543 416.921 184.377 416.921C185.211 416.921 185.906 416.247 185.906 415.438ZM185.906 444.963C185.906 444.154 185.211 443.479 184.377 443.479C183.543 443.479 182.847 444.154 182.847 444.963C182.847 445.772 183.543 446.446 184.377 446.446C185.211 446.446 185.906 445.772 185.906 444.963ZM185.906 474.555C185.906 473.746 185.211 473.071 184.377 473.071C183.543 473.071 182.847 473.746 182.847 474.555C182.847 475.364 183.543 476.038 184.377 476.038C185.211 476.038 185.906 475.364 185.906 474.555ZM155.455 1.75495C155.455 0.946053 154.76 0.271973 153.925 0.271973C153.091 0.271973 152.396 0.946053 152.396 1.75495C152.396 2.56385 153.091 3.23793 153.925 3.23793C154.76 3.23793 155.455 2.56385 155.455 1.75495ZM155.455 31.2796C155.455 30.4708 154.76 29.7967 153.925 29.7967C153.091 29.7967 152.396 30.4708 152.396 31.2796C152.396 32.0885 153.091 32.7626 153.925 32.7626C154.76 32.7626 155.455 32.0885 155.455 31.2796ZM155.455 60.8718C155.455 60.0629 154.76 59.3888 153.925 59.3888C153.091 59.3888 152.396 60.0629 152.396 60.8718C152.396 61.6806 153.091 62.3548 153.925 62.3548C154.76 62.3548 155.455 61.6806 155.455 60.8718ZM155.455 90.3967C155.455 89.5876 154.76 88.9134 153.925 88.9134C153.091 88.9134 152.396 89.5876 152.396 90.3967C152.396 91.2057 153.091 91.8791 153.925 91.8791C154.76 91.8791 155.455 91.2057 155.455 90.3967ZM155.455 119.921C155.455 119.112 154.76 118.439 153.925 118.439C153.091 118.439 152.396 119.112 152.396 119.921C152.396 120.73 153.091 121.404 153.925 121.404C154.76 121.404 155.455 120.73 155.455 119.921ZM155.455 149.513C155.455 148.704 154.76 148.031 153.925 148.031C153.091 148.031 152.396 148.704 152.396 149.513C152.396 150.322 153.091 150.996 153.925 150.996C154.76 150.996 155.455 150.322 155.455 149.513ZM155.455 179.038C155.455 178.229 154.76 177.555 153.925 177.555C153.091 177.555 152.396 178.229 152.396 179.038C152.396 179.847 153.091 180.521 153.925 180.521C154.76 180.521 155.455 179.847 155.455 179.038ZM155.455 208.562C155.455 207.753 154.76 207.08 153.925 207.08C153.091 207.08 152.396 207.753 152.396 208.562C152.396 209.371 153.091 210.046 153.925 210.046C154.76 210.046 155.455 209.439 155.455 208.562ZM155.455 238.155C155.455 237.346 154.76 236.672 153.925 236.672C153.091 236.672 152.396 237.346 152.396 238.155C152.396 238.964 153.091 239.638 153.925 239.638C154.76 239.638 155.455 238.964 155.455 238.155ZM155.455 267.68C155.455 266.871 154.76 266.196 153.925 266.196C153.091 266.196 152.396 266.871 152.396 267.68C152.396 268.489 153.091 269.163 153.925 269.163C154.76 269.163 155.455 268.489 155.455 267.68ZM155.455 297.272C155.455 296.463 154.76 295.789 153.925 295.789C153.091 295.789 152.396 296.463 152.396 297.272C152.396 298.081 153.091 298.755 153.925 298.755C154.76 298.687 155.455 298.081 155.455 297.272ZM155.455 326.796C155.455 325.988 154.76 325.314 153.925 325.314C153.091 325.314 152.396 325.988 152.396 326.796C152.396 327.605 153.091 328.279 153.925 328.279C154.76 328.279 155.455 327.605 155.455 326.796ZM155.455 356.321C155.455 355.512 154.76 354.838 153.925 354.838C153.091 354.838 152.396 355.512 152.396 356.321C152.396 357.13 153.091 357.804 153.925 357.804C154.76 357.804 155.455 357.13 155.455 356.321ZM155.455 385.913C155.455 385.104 154.76 384.43 153.925 384.43C153.091 384.43 152.396 385.104 152.396 385.913C152.396 386.722 153.091 387.396 153.925 387.396C154.76 387.396 155.455 386.722 155.455 385.913ZM155.455 415.438C155.455 414.629 154.76 413.955 153.925 413.955C153.091 413.955 152.396 414.629 152.396 415.438C152.396 416.247 153.091 416.921 153.925 416.921C154.76 416.921 155.455 416.247 155.455 415.438ZM155.455 444.963C155.455 444.154 154.76 443.479 153.925 443.479C153.091 443.479 152.396 444.154 152.396 444.963C152.396 445.772 153.091 446.446 153.925 446.446C154.76 446.446 155.455 445.772 155.455 444.963ZM155.455 474.555C155.455 473.746 154.76 473.071 153.925 473.071C153.091 473.071 152.396 473.746 152.396 474.555C152.396 475.364 153.091 476.038 153.925 476.038C154.76 476.038 155.455 475.364 155.455 474.555ZM124.934 1.75495C124.934 0.946053 124.238 0.271973 123.405 0.271973C122.571 0.271973 121.875 0.946053 121.875 1.75495C121.875 2.56385 122.571 3.23793 123.405 3.23793C124.238 3.23793 124.934 2.56385 124.934 1.75495ZM124.934 31.2796C124.934 30.4708 124.238 29.7967 123.405 29.7967C122.571 29.7967 121.875 30.4708 121.875 31.2796C121.875 32.0885 122.571 32.7626 123.405 32.7626C124.238 32.7626 124.934 32.0885 124.934 31.2796ZM124.934 60.8718C124.934 60.0629 124.238 59.3888 123.405 59.3888C122.571 59.3888 121.875 60.0629 121.875 60.8718C121.875 61.6806 122.571 62.3548 123.405 62.3548C124.238 62.3548 124.934 61.6806 124.934 60.8718ZM124.934 90.3967C124.934 89.5876 124.238 88.9134 123.405 88.9134C122.571 88.9134 121.875 89.5876 121.875 90.3967C121.875 91.2057 122.571 91.8791 123.405 91.8791C124.238 91.8791 124.934 91.2057 124.934 90.3967ZM124.934 119.921C124.934 119.112 124.238 118.439 123.405 118.439C122.571 118.439 121.875 119.112 121.875 119.921C121.875 120.73 122.571 121.404 123.405 121.404C124.238 121.404 124.934 120.73 124.934 119.921ZM124.934 149.513C124.934 148.704 124.238 148.031 123.405 148.031C122.571 148.031 121.875 148.704 121.875 149.513C121.875 150.322 122.571 150.996 123.405 150.996C124.238 150.996 124.934 150.322 124.934 149.513ZM124.934 179.038C124.934 178.229 124.238 177.555 123.405 177.555C122.571 177.555 121.875 178.229 121.875 179.038C121.875 179.847 122.571 180.521 123.405 180.521C124.238 180.521 124.934 179.847 124.934 179.038ZM124.934 208.562C124.934 207.753 124.238 207.08 123.405 207.08C122.571 207.08 121.875 207.753 121.875 208.562C121.875 209.371 122.571 210.046 123.405 210.046C124.238 210.046 124.934 209.439 124.934 208.562ZM124.934 238.155C124.934 237.346 124.238 236.672 123.405 236.672C122.571 236.672 121.875 237.346 121.875 238.155C121.875 238.964 122.571 239.638 123.405 239.638C124.238 239.638 124.934 238.964 124.934 238.155ZM124.934 267.68C124.934 266.871 124.238 266.196 123.405 266.196C122.571 266.196 121.875 266.871 121.875 267.68C121.875 268.489 122.571 269.163 123.405 269.163C124.238 269.163 124.934 268.489 124.934 267.68ZM124.934 297.272C124.934 296.463 124.238 295.789 123.405 295.789C122.571 295.789 121.875 296.463 121.875 297.272C121.875 298.081 122.571 298.755 123.405 298.755C124.238 298.687 124.934 298.081 124.934 297.272ZM124.934 326.796C124.934 325.988 124.238 325.314 123.405 325.314C122.571 325.314 121.875 325.988 121.875 326.796C121.875 327.605 122.571 328.279 123.405 328.279C124.238 328.279 124.934 327.605 124.934 326.796ZM124.934 356.321C124.934 355.512 124.238 354.838 123.405 354.838C122.571 354.838 121.875 355.512 121.875 356.321C121.875 357.13 122.571 357.804 123.405 357.804C124.238 357.804 124.934 357.13 124.934 356.321ZM124.934 385.913C124.934 385.104 124.238 384.43 123.405 384.43C122.571 384.43 121.875 385.104 121.875 385.913C121.875 386.722 122.571 387.396 123.405 387.396C124.238 387.396 124.934 386.722 124.934 385.913ZM124.934 415.438C124.934 414.629 124.238 413.955 123.405 413.955C122.571 413.955 121.875 414.629 121.875 415.438C121.875 416.247 122.571 416.921 123.405 416.921C124.238 416.921 124.934 416.247 124.934 415.438ZM124.934 444.963C124.934 444.154 124.238 443.479 123.405 443.479C122.571 443.479 121.875 444.154 121.875 444.963C121.875 445.772 122.571 446.446 123.405 446.446C124.238 446.446 124.934 445.772 124.934 444.963ZM124.934 474.555C124.934 473.746 124.238 473.071 123.405 473.071C122.571 473.071 121.875 473.746 121.875 474.555C121.875 475.364 122.571 476.038 123.405 476.038C124.238 476.038 124.934 475.364 124.934 474.555ZM94.4829 1.75495C94.4829 0.946053 93.7875 0.271973 92.9531 0.271973C92.1187 0.271973 91.4233 0.946053 91.4233 1.75495C91.4233 2.56385 92.1187 3.23793 92.9531 3.23793C93.7875 3.23793 94.4829 2.56385 94.4829 1.75495ZM94.4829 31.2796C94.4829 30.4708 93.7875 29.7967 92.9531 29.7967C92.1187 29.7967 91.4233 30.4708 91.4233 31.2796C91.4233 32.0885 92.1187 32.7626 92.9531 32.7626C93.7875 32.7626 94.4829 32.0885 94.4829 31.2796ZM94.4829 60.8718C94.4829 60.0629 93.7875 59.3888 92.9531 59.3888C92.1187 59.3888 91.4233 60.0629 91.4233 60.8718C91.4233 61.6806 92.1187 62.3548 92.9531 62.3548C93.7875 62.3548 94.4829 61.6806 94.4829 60.8718ZM94.4829 90.3967C94.4829 89.5876 93.7875 88.9134 92.9531 88.9134C92.1187 88.9134 91.4233 89.5876 91.4233 90.3967C91.4233 91.2057 92.1187 91.8791 92.9531 91.8791C93.7875 91.8791 94.4829 91.2057 94.4829 90.3967ZM94.4829 119.921C94.4829 119.112 93.7875 118.439 92.9531 118.439C92.1187 118.439 91.4233 119.112 91.4233 119.921C91.4233 120.73 92.1187 121.404 92.9531 121.404C93.7875 121.404 94.4829 120.73 94.4829 119.921ZM94.4829 149.513C94.4829 148.704 93.7875 148.031 92.9531 148.031C92.1187 148.031 91.4233 148.704 91.4233 149.513C91.4233 150.322 92.1187 150.996 92.9531 150.996C93.7875 150.996 94.4829 150.322 94.4829 149.513ZM94.4829 179.038C94.4829 178.229 93.7875 177.555 92.9531 177.555C92.1187 177.555 91.4233 178.229 91.4233 179.038C91.4233 179.847 92.1187 180.521 92.9531 180.521C93.7875 180.521 94.4829 179.847 94.4829 179.038ZM94.4829 208.562C94.4829 207.753 93.7875 207.08 92.9531 207.08C92.1187 207.08 91.4233 207.753 91.4233 208.562C91.4233 209.371 92.1187 210.046 92.9531 210.046C93.7875 210.046 94.4829 209.439 94.4829 208.562ZM94.4829 238.155C94.4829 237.346 93.7875 236.672 92.9531 236.672C92.1187 236.672 91.4233 237.346 91.4233 238.155C91.4233 238.964 92.1187 239.638 92.9531 239.638C93.7875 239.638 94.4829 238.964 94.4829 238.155ZM94.4829 267.68C94.4829 266.871 93.7875 266.196 92.9531 266.196C92.1187 266.196 91.4233 266.871 91.4233 267.68C91.4233 268.489 92.1187 269.163 92.9531 269.163C93.7875 269.163 94.4829 268.489 94.4829 267.68ZM94.4829 297.272C94.4829 296.463 93.7875 295.789 92.9531 295.789C92.1187 295.789 91.4233 296.463 91.4233 297.272C91.4233 298.081 92.1187 298.755 92.9531 298.755C93.7875 298.687 94.4829 298.081 94.4829 297.272ZM94.4829 326.796C94.4829 325.988 93.7875 325.314 92.9531 325.314C92.1187 325.314 91.4233 325.988 91.4233 326.796C91.4233 327.605 92.1187 328.279 92.9531 328.279C93.7875 328.279 94.4829 327.605 94.4829 326.796ZM94.4829 356.321C94.4829 355.512 93.7875 354.838 92.9531 354.838C92.1187 354.838 91.4233 355.512 91.4233 356.321C91.4233 357.13 92.1187 357.804 92.9531 357.804C93.7875 357.804 94.4829 357.13 94.4829 356.321ZM94.4829 385.913C94.4829 385.104 93.7875 384.43 92.9531 384.43C92.1187 384.43 91.4233 385.104 91.4233 385.913C91.4233 386.722 92.1187 387.396 92.9531 387.396C93.7875 387.396 94.4829 386.722 94.4829 385.913ZM94.4829 415.438C94.4829 414.629 93.7875 413.955 92.9531 413.955C92.1187 413.955 91.4233 414.629 91.4233 415.438C91.4233 416.247 92.1187 416.921 92.9531 416.921C93.7875 416.921 94.4829 416.247 94.4829 415.438ZM94.4829 444.963C94.4829 444.154 93.7875 443.479 92.9531 443.479C92.1187 443.479 91.4233 444.154 91.4233 444.963C91.4233 445.772 92.1187 446.446 92.9531 446.446C93.7875 446.446 94.4829 445.772 94.4829 444.963ZM94.4829 474.555C94.4829 473.746 93.7875 473.071 92.9531 473.071C92.1187 473.071 91.4233 473.746 91.4233 474.555C91.4233 475.364 92.1187 476.038 92.9531 476.038C93.7875 476.038 94.4829 475.364 94.4829 474.555ZM64.0313 1.75495C64.0313 0.946053 63.3361 0.271973 62.5018 0.271973C61.6676 0.271973 60.9723 0.946053 60.9723 1.75495C60.9723 2.56385 61.6676 3.23793 62.5018 3.23793C63.3361 3.23793 64.0313 2.56385 64.0313 1.75495ZM64.0313 31.2796C64.0313 30.4708 63.3361 29.7967 62.5018 29.7967C61.6676 29.7967 60.9723 30.4708 60.9723 31.2796C60.9723 32.0885 61.6676 32.7626 62.5018 32.7626C63.3361 32.7626 64.0313 32.0885 64.0313 31.2796ZM64.0313 60.8718C64.0313 60.0629 63.3361 59.3888 62.5018 59.3888C61.6676 59.3888 60.9723 60.0629 60.9723 60.8718C60.9723 61.6806 61.6676 62.3548 62.5018 62.3548C63.3361 62.3548 64.0313 61.6806 64.0313 60.8718ZM64.0313 90.3967C64.0313 89.5876 63.3361 88.9134 62.5018 88.9134C61.6676 88.9134 60.9723 89.5876 60.9723 90.3967C60.9723 91.2057 61.6676 91.8791 62.5018 91.8791C63.3361 91.8791 64.0313 91.2057 64.0313 90.3967ZM64.0313 119.921C64.0313 119.112 63.3361 118.439 62.5018 118.439C61.6676 118.439 60.9723 119.112 60.9723 119.921C60.9723 120.73 61.6676 121.404 62.5018 121.404C63.3361 121.404 64.0313 120.73 64.0313 119.921ZM64.0313 149.513C64.0313 148.704 63.3361 148.031 62.5018 148.031C61.6676 148.031 60.9723 148.704 60.9723 149.513C60.9723 150.322 61.6676 150.996 62.5018 150.996C63.3361 150.996 64.0313 150.322 64.0313 149.513ZM64.0313 179.038C64.0313 178.229 63.3361 177.555 62.5018 177.555C61.6676 177.555 60.9723 178.229 60.9723 179.038C60.9723 179.847 61.6676 180.521 62.5018 180.521C63.3361 180.521 64.0313 179.847 64.0313 179.038ZM64.0313 208.562C64.0313 207.753 63.3361 207.08 62.5018 207.08C61.6676 207.08 60.9723 207.753 60.9723 208.562C60.9723 209.371 61.6676 210.046 62.5018 210.046C63.3361 210.046 64.0313 209.439 64.0313 208.562ZM64.0313 238.155C64.0313 237.346 63.3361 236.672 62.5018 236.672C61.6676 236.672 60.9723 237.346 60.9723 238.155C60.9723 238.964 61.6676 239.638 62.5018 239.638C63.3361 239.638 64.0313 238.964 64.0313 238.155ZM64.0313 267.68C64.0313 266.871 63.3361 266.196 62.5018 266.196C61.6676 266.196 60.9723 266.871 60.9723 267.68C60.9723 268.489 61.6676 269.163 62.5018 269.163C63.3361 269.163 64.0313 268.489 64.0313 267.68ZM64.0313 297.272C64.0313 296.463 63.3361 295.789 62.5018 295.789C61.6676 295.789 60.9723 296.463 60.9723 297.272C60.9723 298.081 61.6676 298.755 62.5018 298.755C63.3361 298.687 64.0313 298.081 64.0313 297.272ZM64.0313 326.796C64.0313 325.988 63.3361 325.314 62.5018 325.314C61.6676 325.314 60.9723 325.988 60.9723 326.796C60.9723 327.605 61.6676 328.279 62.5018 328.279C63.3361 328.279 64.0313 327.605 64.0313 326.796ZM64.0313 356.321C64.0313 355.512 63.3361 354.838 62.5018 354.838C61.6676 354.838 60.9723 355.512 60.9723 356.321C60.9723 357.13 61.6676 357.804 62.5018 357.804C63.3361 357.804 64.0313 357.13 64.0313 356.321ZM64.0313 385.913C64.0313 385.104 63.3361 384.43 62.5018 384.43C61.6676 384.43 60.9723 385.104 60.9723 385.913C60.9723 386.722 61.6676 387.396 62.5018 387.396C63.3361 387.396 64.0313 386.722 64.0313 385.913ZM64.0313 415.438C64.0313 414.629 63.3361 413.955 62.5018 413.955C61.6676 413.955 60.9723 414.629 60.9723 415.438C60.9723 416.247 61.6676 416.921 62.5018 416.921C63.3361 416.921 64.0313 416.247 64.0313 415.438ZM64.0313 444.963C64.0313 444.154 63.3361 443.479 62.5018 443.479C61.6676 443.479 60.9723 444.154 60.9723 444.963C60.9723 445.772 61.6676 446.446 62.5018 446.446C63.3361 446.446 64.0313 445.772 64.0313 444.963ZM64.0313 474.555C64.0313 473.746 63.3361 473.071 62.5018 473.071C61.6676 473.071 60.9723 473.746 60.9723 474.555C60.9723 475.364 61.6676 476.038 62.5018 476.038C63.3361 476.038 64.0313 475.364 64.0313 474.555ZM33.5104 1.75495C33.5104 0.946053 32.8152 0.271973 31.9809 0.271973C31.1466 0.271973 30.4514 0.946053 30.4514 1.75495C30.4514 2.56385 31.1466 3.23793 31.9809 3.23793C32.8152 3.23793 33.5104 2.56385 33.5104 1.75495ZM33.5104 31.2796C33.5104 30.4708 32.8152 29.7967 31.9809 29.7967C31.1466 29.7967 30.4514 30.4708 30.4514 31.2796C30.4514 32.0885 31.1466 32.7626 31.9809 32.7626C32.8152 32.7626 33.5104 32.0885 33.5104 31.2796ZM33.5104 60.8718C33.5104 60.0629 32.8152 59.3888 31.9809 59.3888C31.1466 59.3888 30.4514 60.0629 30.4514 60.8718C30.4514 61.6806 31.1466 62.3548 31.9809 62.3548C32.8152 62.3548 33.5104 61.6806 33.5104 60.8718ZM33.5104 90.3967C33.5104 89.5876 32.8152 88.9134 31.9809 88.9134C31.1466 88.9134 30.4514 89.5876 30.4514 90.3967C30.4514 91.2057 31.1466 91.8791 31.9809 91.8791C32.8152 91.8791 33.5104 91.2057 33.5104 90.3967ZM33.5104 119.921C33.5104 119.112 32.8152 118.439 31.9809 118.439C31.1466 118.439 30.4514 119.112 30.4514 119.921C30.4514 120.73 31.1466 121.404 31.9809 121.404C32.8152 121.404 33.5104 120.73 33.5104 119.921ZM33.5104 149.513C33.5104 148.704 32.8152 148.031 31.9809 148.031C31.1466 148.031 30.4514 148.704 30.4514 149.513C30.4514 150.322 31.1466 150.996 31.9809 150.996C32.8152 150.996 33.5104 150.322 33.5104 149.513ZM33.5104 179.038C33.5104 178.229 32.8152 177.555 31.9809 177.555C31.1466 177.555 30.4514 178.229 30.4514 179.038C30.4514 179.847 31.1466 180.521 31.9809 180.521C32.8152 180.521 33.5104 179.847 33.5104 179.038ZM33.5104 208.562C33.5104 207.753 32.8152 207.08 31.9809 207.08C31.1466 207.08 30.4514 207.753 30.4514 208.562C30.4514 209.371 31.1466 210.046 31.9809 210.046C32.8152 210.046 33.5104 209.439 33.5104 208.562ZM33.5104 238.155C33.5104 237.346 32.8152 236.672 31.9809 236.672C31.1466 236.672 30.4514 237.346 30.4514 238.155C30.4514 238.964 31.1466 239.638 31.9809 239.638C32.8152 239.638 33.5104 238.964 33.5104 238.155ZM33.5104 267.68C33.5104 266.871 32.8152 266.196 31.9809 266.196C31.1466 266.196 30.4514 266.871 30.4514 267.68C30.4514 268.489 31.1466 269.163 31.9809 269.163C32.8152 269.163 33.5104 268.489 33.5104 267.68ZM33.5104 297.272C33.5104 296.463 32.8152 295.789 31.9809 295.789C31.1466 295.789 30.4514 296.463 30.4514 297.272C30.4514 298.081 31.1466 298.755 31.9809 298.755C32.8152 298.687 33.5104 298.081 33.5104 297.272ZM33.5104 326.796C33.5104 325.988 32.8152 325.314 31.9809 325.314C31.1466 325.314 30.4514 325.988 30.4514 326.796C30.4514 327.605 31.1466 328.279 31.9809 328.279C32.8152 328.279 33.5104 327.605 33.5104 326.796ZM33.5104 356.321C33.5104 355.512 32.8152 354.838 31.9809 354.838C31.1466 354.838 30.4514 355.512 30.4514 356.321C30.4514 357.13 31.1466 357.804 31.9809 357.804C32.8152 357.804 33.5104 357.13 33.5104 356.321ZM33.5104 385.913C33.5104 385.104 32.8152 384.43 31.9809 384.43C31.1466 384.43 30.4514 385.104 30.4514 385.913C30.4514 386.722 31.1466 387.396 31.9809 387.396C32.8152 387.396 33.5104 386.722 33.5104 385.913ZM33.5104 415.438C33.5104 414.629 32.8152 413.955 31.9809 413.955C31.1466 413.955 30.4514 414.629 30.4514 415.438C30.4514 416.247 31.1466 416.921 31.9809 416.921C32.8152 416.921 33.5104 416.247 33.5104 415.438ZM33.5104 444.963C33.5104 444.154 32.8152 443.479 31.9809 443.479C31.1466 443.479 30.4514 444.154 30.4514 444.963C30.4514 445.772 31.1466 446.446 31.9809 446.446C32.8152 446.446 33.5104 445.772 33.5104 444.963ZM31.9809 476.038C31.1466 476.038 30.4514 475.364 30.4514 474.555C30.4514 473.746 31.1466 473.071 31.9809 473.071C32.8152 473.071 33.5104 473.746 33.5104 474.555C33.5104 475.364 32.8152 476.038 31.9809 476.038Z" fill="#2D8CCC"></path>
</svg>
