<?xml version="1.0" encoding="UTF-8"?>
<svg xmlns="http://www.w3.org/2000/svg" width="19" height="15" viewBox="0 0 19 15" fill="none">
  <g id="Vector">
    <path d="M1.25 8.25H17.75C18.1642 8.25 18.5 7.91421 18.5 7.5C18.5 7.08579 18.1642 6.75 17.75 6.75H1.25C0.835786 6.75 0.5 7.08579 0.5 7.5C0.5 7.91421 0.835786 8.25 1.25 8.25Z" fill="white"></path>
    <path d="M16.6893 7.5L10.4697 13.7197C10.329 13.8603 10.25 14.0511 10.25 14.25C10.25 14.4489 10.329 14.6397 10.4697 14.7803C10.6103 14.921 10.8011 15 11 15C11.1989 15 11.3897 14.921 11.5303 14.7803L18.2803 8.03033C18.5732 7.73744 18.5732 7.26256 18.2803 6.96967L11.5303 0.21967C11.3897 0.0790176 11.1989 0 11 0C10.8011 0 10.6103 0.0790176 10.4697 0.21967C10.329 0.360322 10.25 0.551088 10.25 0.75C10.25 0.948912 10.329 1.13968 10.4697 1.28033L16.6893 7.5Z" fill="white"></path>
  </g>
</svg>
