<?xml version="1.0" encoding="UTF-8"?>
<svg xmlns="http://www.w3.org/2000/svg" width="19" height="15" viewBox="0 0 19 15" fill="none">
  <g id="Vector">
    <path d="M17.75 8.25H1.25C0.835787 8.25 0.5 7.91421 0.5 7.5C0.5 7.08579 0.835787 6.75 1.25 6.75H17.75C18.1642 6.75 18.5 7.08579 18.5 7.5C18.5 7.91421 18.1642 8.25 17.75 8.25Z" fill="white"></path>
    <path d="M2.31066 7.5L8.53033 13.7197C8.67098 13.8603 8.75 14.0511 8.75 14.25C8.75 14.4489 8.67098 14.6397 8.53033 14.7803C8.38968 14.921 8.19891 15 8 15C7.80109 15 7.61032 14.921 7.46967 14.7803L0.719669 8.03033C0.426777 7.73744 0.426777 7.26256 0.719669 6.96967L7.46967 0.21967C7.61032 0.0790176 7.80109 0 8 0C8.19891 0 8.38968 0.0790176 8.53033 0.21967C8.67098 0.360322 8.75 0.551088 8.75 0.75C8.75 0.948912 8.67098 1.13968 8.53033 1.28033L2.31066 7.5Z" fill="white"></path>
  </g>
</svg>
