<?xml version="1.0" encoding="UTF-8"?>
<svg xmlns="http://www.w3.org/2000/svg" width="315" height="272" viewBox="0 0 315 272" fill="none">
  <path d="M3.45139 1.75398C3.45139 0.945073 2.75676 0.270996 1.9232 0.270996C1.08965 0.270996 0.39502 0.945073 0.39502 1.75398C0.39502 2.56287 1.08965 3.23695 1.9232 3.23695C2.75676 3.23695 3.45139 2.56287 3.45139 1.75398ZM3.45139 31.2787C3.45139 30.4698 2.75676 29.7957 1.9232 29.7957C1.08965 29.7957 0.39502 30.4698 0.39502 31.2787C0.39502 32.0875 1.08965 32.7617 1.9232 32.7617C2.75676 32.7617 3.45139 32.0875 3.45139 31.2787ZM3.45139 60.8708C3.45139 60.0619 2.75676 59.3878 1.9232 59.3878C1.08965 59.3878 0.39502 60.0619 0.39502 60.8708C0.39502 61.6797 1.08965 62.3538 1.9232 62.3538C2.75676 62.3538 3.45139 61.6797 3.45139 60.8708ZM3.45139 90.3957C3.45139 89.5866 2.75676 88.9125 1.9232 88.9125C1.08965 88.9125 0.39502 89.5866 0.39502 90.3957C0.39502 91.2047 1.08965 91.8781 1.9232 91.8781C2.75676 91.8781 3.45139 91.2047 3.45139 90.3957ZM3.45139 119.92C3.45139 119.111 2.75676 118.438 1.9232 118.438C1.08965 118.438 0.39502 119.111 0.39502 119.92C0.39502 120.729 1.08965 121.403 1.9232 121.403C2.75676 121.403 3.45139 120.729 3.45139 119.92ZM3.45139 149.512C3.45139 148.703 2.75676 148.03 1.9232 148.03C1.08965 148.03 0.39502 148.703 0.39502 149.512C0.39502 150.321 1.08965 150.995 1.9232 150.995C2.75676 150.995 3.45139 150.321 3.45139 149.512ZM3.45139 179.037C3.45139 178.228 2.75676 177.554 1.9232 177.554C1.08965 177.554 0.39502 178.228 0.39502 179.037C0.39502 179.846 1.08965 180.52 1.9232 180.52C2.75676 180.52 3.45139 179.846 3.45139 179.037ZM3.45139 208.561C3.45139 207.753 2.75676 207.079 1.9232 207.079C1.08965 207.079 0.39502 207.753 0.39502 208.561C0.39502 209.37 1.08965 210.045 1.9232 210.045C2.75676 210.045 3.45139 209.438 3.45139 208.561ZM3.45139 238.154C3.45139 237.345 2.75676 236.671 1.9232 236.671C1.08965 236.671 0.39502 237.345 0.39502 238.154C0.39502 238.963 1.08965 239.637 1.9232 239.637C2.75676 239.637 3.45139 238.963 3.45139 238.154ZM3.45139 267.679C3.45139 266.87 2.75676 266.195 1.9232 266.195C1.08965 266.195 0.39502 266.87 0.39502 267.679C0.39502 268.488 1.08965 269.162 1.9232 269.162C2.75676 269.162 3.45139 268.488 3.45139 267.679ZM3.45139 297.271C3.45139 296.462 2.75676 295.788 1.9232 295.788C1.08965 295.788 0.39502 296.462 0.39502 297.271C0.39502 298.08 1.08965 298.754 1.9232 298.754C2.75676 298.686 3.45139 298.08 3.45139 297.271ZM3.45139 326.795C3.45139 325.987 2.75676 325.313 1.9232 325.313C1.08965 325.313 0.39502 325.987 0.39502 326.795C0.39502 327.604 1.08965 328.278 1.9232 328.278C2.75676 328.278 3.45139 327.604 3.45139 326.795ZM3.45139 356.32C3.45139 355.511 2.75676 354.837 1.9232 354.837C1.08965 354.837 0.39502 355.511 0.39502 356.32C0.39502 357.129 1.08965 357.803 1.9232 357.803C2.75676 357.803 3.45139 357.129 3.45139 356.32ZM3.45139 385.912C3.45139 385.103 2.75676 384.429 1.9232 384.429C1.08965 384.429 0.39502 385.103 0.39502 385.912C0.39502 386.721 1.08965 387.395 1.9232 387.395C2.75676 387.395 3.45139 386.721 3.45139 385.912ZM3.45139 415.437C3.45139 414.628 2.75676 413.954 1.9232 413.954C1.08965 413.954 0.39502 414.628 0.39502 415.437C0.39502 416.246 1.08965 416.92 1.9232 416.92C2.75676 416.92 3.45139 416.246 3.45139 415.437ZM3.45139 444.962C3.45139 444.153 2.75676 443.478 1.9232 443.478C1.08965 443.478 0.39502 444.153 0.39502 444.962C0.39502 445.771 1.08965 446.445 1.9232 446.445C2.75676 446.445 3.45139 445.771 3.45139 444.962ZM3.45139 474.554C3.45139 473.745 2.75676 473.07 1.9232 473.07C1.08965 473.07 0.39502 473.745 0.39502 474.554C0.39502 475.363 1.08965 476.037 1.9232 476.037C2.75676 476.037 3.45139 475.363 3.45139 474.554ZM795.813 1.75398C795.813 0.945073 795.118 0.270996 794.285 0.270996C793.451 0.270996 792.757 0.945073 792.757 1.75398C792.757 2.56287 793.451 3.23695 794.285 3.23695C795.118 3.23695 795.813 2.56287 795.813 1.75398ZM795.813 31.2787C795.813 30.4698 795.118 29.7957 794.285 29.7957C793.451 29.7957 792.757 30.4698 792.757 31.2787C792.757 32.0875 793.451 32.7617 794.285 32.7617C795.118 32.7617 795.813 32.0875 795.813 31.2787ZM795.813 60.8708C795.813 60.0619 795.118 59.3878 794.285 59.3878C793.451 59.3878 792.757 60.0619 792.757 60.8708C792.757 61.6797 793.451 62.3538 794.285 62.3538C795.118 62.3538 795.813 61.6797 795.813 60.8708ZM795.813 90.3957C795.813 89.5866 795.118 88.9125 794.285 88.9125C793.451 88.9125 792.757 89.5866 792.757 90.3957C792.757 91.2047 793.451 91.8781 794.285 91.8781C795.118 91.8781 795.813 91.2047 795.813 90.3957ZM795.813 119.92C795.813 119.111 795.118 118.438 794.285 118.438C793.451 118.438 792.757 119.111 792.757 119.92C792.757 120.729 793.451 121.403 794.285 121.403C795.118 121.403 795.813 120.729 795.813 119.92ZM795.813 149.512C795.813 148.703 795.118 148.03 794.285 148.03C793.451 148.03 792.757 148.703 792.757 149.512C792.757 150.321 793.451 150.995 794.285 150.995C795.118 150.995 795.813 150.321 795.813 149.512ZM795.813 179.037C795.813 178.228 795.118 177.554 794.285 177.554C793.451 177.554 792.757 178.228 792.757 179.037C792.757 179.846 793.451 180.52 794.285 180.52C795.118 180.52 795.813 179.846 795.813 179.037ZM795.813 208.561C795.813 207.753 795.118 207.079 794.285 207.079C793.451 207.079 792.757 207.753 792.757 208.561C792.757 209.37 793.451 210.045 794.285 210.045C795.118 210.045 795.813 209.438 795.813 208.561ZM795.813 238.154C795.813 237.345 795.118 236.671 794.285 236.671C793.451 236.671 792.757 237.345 792.757 238.154C792.757 238.963 793.451 239.637 794.285 239.637C795.118 239.637 795.813 238.963 795.813 238.154ZM795.813 267.679C795.813 266.87 795.118 266.195 794.285 266.195C793.451 266.195 792.757 266.87 792.757 267.679C792.757 268.488 793.451 269.162 794.285 269.162C795.118 269.162 795.813 268.488 795.813 267.679ZM795.813 297.271C795.813 296.462 795.118 295.788 794.285 295.788C793.451 295.788 792.757 296.462 792.757 297.271C792.757 298.08 793.451 298.754 794.285 298.754C795.118 298.686 795.813 298.08 795.813 297.271ZM795.813 326.795C795.813 325.987 795.118 325.313 794.285 325.313C793.451 325.313 792.757 325.987 792.757 326.795C792.757 327.604 793.451 328.278 794.285 328.278C795.118 328.278 795.813 327.604 795.813 326.795ZM795.813 356.32C795.813 355.511 795.118 354.837 794.285 354.837C793.451 354.837 792.757 355.511 792.757 356.32C792.757 357.129 793.451 357.803 794.285 357.803C795.118 357.803 795.813 357.129 795.813 356.32ZM795.813 385.912C795.813 385.103 795.118 384.429 794.285 384.429C793.451 384.429 792.757 385.103 792.757 385.912C792.757 386.721 793.451 387.395 794.285 387.395C795.118 387.395 795.813 386.721 795.813 385.912ZM795.813 415.437C795.813 414.628 795.118 413.954 794.285 413.954C793.451 413.954 792.757 414.628 792.757 415.437C792.757 416.246 793.451 416.92 794.285 416.92C795.118 416.92 795.813 416.246 795.813 415.437ZM795.813 444.962C795.813 444.153 795.118 443.478 794.285 443.478C793.451 443.478 792.757 444.153 792.757 444.962C792.757 445.771 793.451 446.445 794.285 446.445C795.118 446.445 795.813 445.771 795.813 444.962ZM795.813 474.554C795.813 473.745 795.118 473.07 794.285 473.07C793.451 473.07 792.757 473.745 792.757 474.554C792.757 475.363 793.451 476.037 794.285 476.037C795.118 476.037 795.813 475.363 795.813 474.554ZM765.364 1.75398C765.364 0.945073 764.669 0.270996 763.836 0.270996C762.994 0.270996 762.299 0.945073 762.299 1.75398C762.299 2.56287 762.994 3.23695 763.836 3.23695C764.669 3.23695 765.364 2.56287 765.364 1.75398ZM765.364 31.2787C765.364 30.4698 764.669 29.7957 763.836 29.7957C762.994 29.7957 762.299 30.4698 762.299 31.2787C762.299 32.0875 762.994 32.7617 763.836 32.7617C764.669 32.7617 765.364 32.0875 765.364 31.2787ZM765.364 60.8708C765.364 60.0619 764.669 59.3878 763.836 59.3878C762.994 59.3878 762.299 60.0619 762.299 60.8708C762.299 61.6797 762.994 62.3538 763.836 62.3538C764.669 62.3538 765.364 61.6797 765.364 60.8708ZM765.364 90.3957C765.364 89.5866 764.669 88.9125 763.836 88.9125C762.994 88.9125 762.299 89.5866 762.299 90.3957C762.299 91.2047 762.994 91.8781 763.836 91.8781C764.669 91.8781 765.364 91.2047 765.364 90.3957ZM765.364 119.92C765.364 119.111 764.669 118.438 763.836 118.438C762.994 118.438 762.299 119.111 762.299 119.92C762.299 120.729 762.994 121.403 763.836 121.403C764.669 121.403 765.364 120.729 765.364 119.92ZM765.364 149.512C765.364 148.703 764.669 148.03 763.836 148.03C762.994 148.03 762.299 148.703 762.299 149.512C762.299 150.321 762.994 150.995 763.836 150.995C764.669 150.995 765.364 150.321 765.364 149.512ZM765.364 179.037C765.364 178.228 764.669 177.554 763.836 177.554C762.994 177.554 762.299 178.228 762.299 179.037C762.299 179.846 762.994 180.52 763.836 180.52C764.669 180.52 765.364 179.846 765.364 179.037ZM765.364 208.561C765.364 207.753 764.669 207.079 763.836 207.079C762.994 207.079 762.299 207.753 762.299 208.561C762.299 209.37 762.994 210.045 763.836 210.045C764.669 210.045 765.364 209.438 765.364 208.561ZM765.364 238.154C765.364 237.345 764.669 236.671 763.836 236.671C762.994 236.671 762.299 237.345 762.299 238.154C762.299 238.963 762.994 239.637 763.836 239.637C764.669 239.637 765.364 238.963 765.364 238.154ZM765.364 267.679C765.364 266.87 764.669 266.195 763.836 266.195C762.994 266.195 762.299 266.87 762.299 267.679C762.299 268.488 762.994 269.162 763.836 269.162C764.669 269.162 765.364 268.488 765.364 267.679ZM765.364 297.271C765.364 296.462 764.669 295.788 763.836 295.788C762.994 295.788 762.299 296.462 762.299 297.271C762.299 298.08 762.994 298.754 763.836 298.754C764.669 298.686 765.364 298.08 765.364 297.271ZM765.364 326.795C765.364 325.987 764.669 325.313 763.836 325.313C762.994 325.313 762.299 325.987 762.299 326.795C762.299 327.604 762.994 328.278 763.836 328.278C764.669 328.278 765.364 327.604 765.364 326.795ZM765.364 356.32C765.364 355.511 764.669 354.837 763.836 354.837C762.994 354.837 762.299 355.511 762.299 356.32C762.299 357.129 762.994 357.803 763.836 357.803C764.669 357.803 765.364 357.129 765.364 356.32ZM765.364 385.912C765.364 385.103 764.669 384.429 763.836 384.429C762.994 384.429 762.299 385.103 762.299 385.912C762.299 386.721 762.994 387.395 763.836 387.395C764.669 387.395 765.364 386.721 765.364 385.912ZM765.364 415.437C765.364 414.628 764.669 413.954 763.836 413.954C762.994 413.954 762.299 414.628 762.299 415.437C762.299 416.246 762.994 416.92 763.836 416.92C764.669 416.92 765.364 416.246 765.364 415.437ZM765.364 444.962C765.364 444.153 764.669 443.478 763.836 443.478C762.994 443.478 762.299 444.153 762.299 444.962C762.299 445.771 762.994 446.445 763.836 446.445C764.669 446.445 765.364 445.771 765.364 444.962ZM765.364 474.554C765.364 473.745 764.669 473.07 763.836 473.07C762.994 473.07 762.299 473.745 762.299 474.554C762.299 475.363 762.994 476.037 763.836 476.037C764.669 476.037 765.364 475.363 765.364 474.554ZM734.906 1.75398C734.906 0.945073 734.212 0.270996 733.378 0.270996C732.544 0.270996 731.85 0.945073 731.85 1.75398C731.85 2.56287 732.544 3.23695 733.378 3.23695C734.212 3.23695 734.906 2.56287 734.906 1.75398ZM734.906 31.2787C734.906 30.4698 734.212 29.7957 733.378 29.7957C732.544 29.7957 731.85 30.4698 731.85 31.2787C731.85 32.0875 732.544 32.7617 733.378 32.7617C734.212 32.7617 734.906 32.0875 734.906 31.2787ZM734.906 60.8708C734.906 60.0619 734.212 59.3878 733.378 59.3878C732.544 59.3878 731.85 60.0619 731.85 60.8708C731.85 61.6797 732.544 62.3538 733.378 62.3538C734.212 62.3538 734.906 61.6797 734.906 60.8708ZM734.906 90.3957C734.906 89.5866 734.212 88.9125 733.378 88.9125C732.544 88.9125 731.85 89.5866 731.85 90.3957C731.85 91.2047 732.544 91.8781 733.378 91.8781C734.212 91.8781 734.906 91.2047 734.906 90.3957ZM734.906 119.92C734.906 119.111 734.212 118.438 733.378 118.438C732.544 118.438 731.85 119.111 731.85 119.92C731.85 120.729 732.544 121.403 733.378 121.403C734.212 121.403 734.906 120.729 734.906 119.92ZM734.906 149.512C734.906 148.703 734.212 148.03 733.378 148.03C732.544 148.03 731.85 148.703 731.85 149.512C731.85 150.321 732.544 150.995 733.378 150.995C734.212 150.995 734.906 150.321 734.906 149.512ZM734.906 179.037C734.906 178.228 734.212 177.554 733.378 177.554C732.544 177.554 731.85 178.228 731.85 179.037C731.85 179.846 732.544 180.52 733.378 180.52C734.212 180.52 734.906 179.846 734.906 179.037ZM734.906 208.561C734.906 207.753 734.212 207.079 733.378 207.079C732.544 207.079 731.85 207.753 731.85 208.561C731.85 209.37 732.544 210.045 733.378 210.045C734.212 210.045 734.906 209.438 734.906 208.561ZM734.906 238.154C734.906 237.345 734.212 236.671 733.378 236.671C732.544 236.671 731.85 237.345 731.85 238.154C731.85 238.963 732.544 239.637 733.378 239.637C734.212 239.637 734.906 238.963 734.906 238.154ZM734.906 267.679C734.906 266.87 734.212 266.195 733.378 266.195C732.544 266.195 731.85 266.87 731.85 267.679C731.85 268.488 732.544 269.162 733.378 269.162C734.212 269.162 734.906 268.488 734.906 267.679ZM734.906 297.271C734.906 296.462 734.212 295.788 733.378 295.788C732.544 295.788 731.85 296.462 731.85 297.271C731.85 298.08 732.544 298.754 733.378 298.754C734.212 298.686 734.906 298.08 734.906 297.271ZM734.906 326.795C734.906 325.987 734.212 325.313 733.378 325.313C732.544 325.313 731.85 325.987 731.85 326.795C731.85 327.604 732.544 328.278 733.378 328.278C734.212 328.278 734.906 327.604 734.906 326.795ZM734.906 356.32C734.906 355.511 734.212 354.837 733.378 354.837C732.544 354.837 731.85 355.511 731.85 356.32C731.85 357.129 732.544 357.803 733.378 357.803C734.212 357.803 734.906 357.129 734.906 356.32ZM734.906 385.912C734.906 385.103 734.212 384.429 733.378 384.429C732.544 384.429 731.85 385.103 731.85 385.912C731.85 386.721 732.544 387.395 733.378 387.395C734.212 387.395 734.906 386.721 734.906 385.912ZM734.906 415.437C734.906 414.628 734.212 413.954 733.378 413.954C732.544 413.954 731.85 414.628 731.85 415.437C731.85 416.246 732.544 416.92 733.378 416.92C734.212 416.92 734.906 416.246 734.906 415.437ZM734.906 444.962C734.906 444.153 734.212 443.478 733.378 443.478C732.544 443.478 731.85 444.153 731.85 444.962C731.85 445.771 732.544 446.445 733.378 446.445C734.212 446.445 734.906 445.771 734.906 444.962ZM734.906 474.554C734.906 473.745 734.212 473.07 733.378 473.07C732.544 473.07 731.85 473.745 731.85 474.554C731.85 475.363 732.544 476.037 733.378 476.037C734.212 476.037 734.906 475.363 734.906 474.554ZM704.391 1.75398C704.391 0.945073 703.697 0.270996 702.863 0.270996C702.022 0.270996 701.327 0.945073 701.327 1.75398C701.327 2.56287 702.022 3.23695 702.863 3.23695C703.697 3.23695 704.391 2.56287 704.391 1.75398ZM704.391 31.2787C704.391 30.4698 703.697 29.7957 702.863 29.7957C702.022 29.7957 701.327 30.4698 701.327 31.2787C701.327 32.0875 702.022 32.7617 702.863 32.7617C703.697 32.7617 704.391 32.0875 704.391 31.2787ZM704.391 60.8708C704.391 60.0619 703.697 59.3878 702.863 59.3878C702.022 59.3878 701.327 60.0619 701.327 60.8708C701.327 61.6797 702.022 62.3538 702.863 62.3538C703.697 62.3538 704.391 61.6797 704.391 60.8708ZM704.391 90.3957C704.391 89.5866 703.697 88.9125 702.863 88.9125C702.022 88.9125 701.327 89.5866 701.327 90.3957C701.327 91.2047 702.022 91.8781 702.863 91.8781C703.697 91.8781 704.391 91.2047 704.391 90.3957ZM704.391 119.92C704.391 119.111 703.697 118.438 702.863 118.438C702.022 118.438 701.327 119.111 701.327 119.92C701.327 120.729 702.022 121.403 702.863 121.403C703.697 121.403 704.391 120.729 704.391 119.92ZM704.391 149.512C704.391 148.703 703.697 148.03 702.863 148.03C702.022 148.03 701.327 148.703 701.327 149.512C701.327 150.321 702.022 150.995 702.863 150.995C703.697 150.995 704.391 150.321 704.391 149.512ZM704.391 179.037C704.391 178.228 703.697 177.554 702.863 177.554C702.022 177.554 701.327 178.228 701.327 179.037C701.327 179.846 702.022 180.52 702.863 180.52C703.697 180.52 704.391 179.846 704.391 179.037ZM704.391 208.561C704.391 207.753 703.697 207.079 702.863 207.079C702.022 207.079 701.327 207.753 701.327 208.561C701.327 209.37 702.022 210.045 702.863 210.045C703.697 210.045 704.391 209.438 704.391 208.561ZM704.391 238.154C704.391 237.345 703.697 236.671 702.863 236.671C702.022 236.671 701.327 237.345 701.327 238.154C701.327 238.963 702.022 239.637 702.863 239.637C703.697 239.637 704.391 238.963 704.391 238.154ZM704.391 267.679C704.391 266.87 703.697 266.195 702.863 266.195C702.022 266.195 701.327 266.87 701.327 267.679C701.327 268.488 702.022 269.162 702.863 269.162C703.697 269.162 704.391 268.488 704.391 267.679ZM704.391 297.271C704.391 296.462 703.697 295.788 702.863 295.788C702.022 295.788 701.327 296.462 701.327 297.271C701.327 298.08 702.022 298.754 702.863 298.754C703.697 298.686 704.391 298.08 704.391 297.271ZM704.391 326.795C704.391 325.987 703.697 325.313 702.863 325.313C702.022 325.313 701.327 325.987 701.327 326.795C701.327 327.604 702.022 328.278 702.863 328.278C703.697 328.278 704.391 327.604 704.391 326.795ZM704.391 356.32C704.391 355.511 703.697 354.837 702.863 354.837C702.022 354.837 701.327 355.511 701.327 356.32C701.327 357.129 702.022 357.803 702.863 357.803C703.697 357.803 704.391 357.129 704.391 356.32ZM704.391 385.912C704.391 385.103 703.697 384.429 702.863 384.429C702.022 384.429 701.327 385.103 701.327 385.912C701.327 386.721 702.022 387.395 702.863 387.395C703.697 387.395 704.391 386.721 704.391 385.912ZM704.391 415.437C704.391 414.628 703.697 413.954 702.863 413.954C702.022 413.954 701.327 414.628 701.327 415.437C701.327 416.246 702.022 416.92 702.863 416.92C703.697 416.92 704.391 416.246 704.391 415.437ZM704.391 444.962C704.391 444.153 703.697 443.478 702.863 443.478C702.022 443.478 701.327 444.153 701.327 444.962C701.327 445.771 702.022 446.445 702.863 446.445C703.697 446.445 704.391 445.771 704.391 444.962ZM704.391 474.554C704.391 473.745 703.697 473.07 702.863 473.07C702.022 473.07 701.327 473.745 701.327 474.554C701.327 475.363 702.022 476.037 702.863 476.037C703.697 476.037 704.391 475.363 704.391 474.554ZM673.934 1.75398C673.934 0.945073 673.239 0.270996 672.406 0.270996C671.572 0.270996 670.878 0.945073 670.878 1.75398C670.878 2.56287 671.572 3.23695 672.406 3.23695C673.239 3.23695 673.934 2.56287 673.934 1.75398ZM673.934 31.2787C673.934 30.4698 673.239 29.7957 672.406 29.7957C671.572 29.7957 670.878 30.4698 670.878 31.2787C670.878 32.0875 671.572 32.7617 672.406 32.7617C673.239 32.7617 673.934 32.0875 673.934 31.2787ZM673.934 60.8708C673.934 60.0619 673.239 59.3878 672.406 59.3878C671.572 59.3878 670.878 60.0619 670.878 60.8708C670.878 61.6797 671.572 62.3538 672.406 62.3538C673.239 62.3538 673.934 61.6797 673.934 60.8708ZM673.934 90.3957C673.934 89.5866 673.239 88.9125 672.406 88.9125C671.572 88.9125 670.878 89.5866 670.878 90.3957C670.878 91.2047 671.572 91.8781 672.406 91.8781C673.239 91.8781 673.934 91.2047 673.934 90.3957ZM673.934 119.92C673.934 119.111 673.239 118.438 672.406 118.438C671.572 118.438 670.878 119.111 670.878 119.92C670.878 120.729 671.572 121.403 672.406 121.403C673.239 121.403 673.934 120.729 673.934 119.92ZM673.934 149.512C673.934 148.703 673.239 148.03 672.406 148.03C671.572 148.03 670.878 148.703 670.878 149.512C670.878 150.321 671.572 150.995 672.406 150.995C673.239 150.995 673.934 150.321 673.934 149.512ZM673.934 179.037C673.934 178.228 673.239 177.554 672.406 177.554C671.572 177.554 670.878 178.228 670.878 179.037C670.878 179.846 671.572 180.52 672.406 180.52C673.239 180.52 673.934 179.846 673.934 179.037ZM673.934 208.561C673.934 207.753 673.239 207.079 672.406 207.079C671.572 207.079 670.878 207.753 670.878 208.561C670.878 209.37 671.572 210.045 672.406 210.045C673.239 210.045 673.934 209.438 673.934 208.561ZM673.934 238.154C673.934 237.345 673.239 236.671 672.406 236.671C671.572 236.671 670.878 237.345 670.878 238.154C670.878 238.963 671.572 239.637 672.406 239.637C673.239 239.637 673.934 238.963 673.934 238.154ZM673.934 267.679C673.934 266.87 673.239 266.195 672.406 266.195C671.572 266.195 670.878 266.87 670.878 267.679C670.878 268.488 671.572 269.162 672.406 269.162C673.239 269.162 673.934 268.488 673.934 267.679ZM673.934 297.271C673.934 296.462 673.239 295.788 672.406 295.788C671.572 295.788 670.878 296.462 670.878 297.271C670.878 298.08 671.572 298.754 672.406 298.754C673.239 298.686 673.934 298.08 673.934 297.271ZM673.934 326.795C673.934 325.987 673.239 325.313 672.406 325.313C671.572 325.313 670.878 325.987 670.878 326.795C670.878 327.604 671.572 328.278 672.406 328.278C673.239 328.278 673.934 327.604 673.934 326.795ZM673.934 356.32C673.934 355.511 673.239 354.837 672.406 354.837C671.572 354.837 670.878 355.511 670.878 356.32C670.878 357.129 671.572 357.803 672.406 357.803C673.239 357.803 673.934 357.129 673.934 356.32ZM673.934 385.912C673.934 385.103 673.239 384.429 672.406 384.429C671.572 384.429 670.878 385.103 670.878 385.912C670.878 386.721 671.572 387.395 672.406 387.395C673.239 387.395 673.934 386.721 673.934 385.912ZM673.934 415.437C673.934 414.628 673.239 413.954 672.406 413.954C671.572 413.954 670.878 414.628 670.878 415.437C670.878 416.246 671.572 416.92 672.406 416.92C673.239 416.92 673.934 416.246 673.934 415.437ZM673.934 444.962C673.934 444.153 673.239 443.478 672.406 443.478C671.572 443.478 670.878 444.153 670.878 444.962C670.878 445.771 671.572 446.445 672.406 446.445C673.239 446.445 673.934 445.771 673.934 444.962ZM673.934 474.554C673.934 473.745 673.239 473.07 672.406 473.07C671.572 473.07 670.878 473.745 670.878 474.554C670.878 475.363 671.572 476.037 672.406 476.037C673.239 476.037 673.934 475.363 673.934 474.554ZM643.419 1.75398C643.419 0.945073 642.725 0.270996 641.891 0.270996C641.049 0.270996 640.355 0.945073 640.355 1.75398C640.355 2.56287 641.049 3.23695 641.891 3.23695C642.79 3.23695 643.419 2.56287 643.419 1.75398ZM643.419 31.2787C643.419 30.4698 642.725 29.7957 641.891 29.7957C641.049 29.7957 640.355 30.4698 640.355 31.2787C640.355 32.0875 641.049 32.7617 641.891 32.7617C642.79 32.7617 643.419 32.0875 643.419 31.2787ZM643.419 60.8708C643.419 60.0619 642.725 59.3878 641.891 59.3878C641.049 59.3878 640.355 60.0619 640.355 60.8708C640.355 61.6797 641.049 62.3538 641.891 62.3538C642.79 62.3538 643.419 61.6797 643.419 60.8708ZM643.419 90.3957C643.419 89.5866 642.725 88.9125 641.891 88.9125C641.049 88.9125 640.355 89.5866 640.355 90.3957C640.355 91.2047 641.049 91.8781 641.891 91.8781C642.79 91.8781 643.419 91.2047 643.419 90.3957ZM643.419 119.92C643.419 119.111 642.725 118.438 641.891 118.438C641.049 118.438 640.355 119.111 640.355 119.92C640.355 120.729 641.049 121.403 641.891 121.403C642.79 121.403 643.419 120.729 643.419 119.92ZM643.419 149.512C643.419 148.703 642.725 148.03 641.891 148.03C641.049 148.03 640.355 148.703 640.355 149.512C640.355 150.321 641.049 150.995 641.891 150.995C642.79 150.995 643.419 150.321 643.419 149.512ZM643.419 179.037C643.419 178.228 642.725 177.554 641.891 177.554C641.049 177.554 640.355 178.228 640.355 179.037C640.355 179.846 641.049 180.52 641.891 180.52C642.79 180.52 643.419 179.846 643.419 179.037ZM643.419 208.561C643.419 207.753 642.725 207.079 641.891 207.079C641.049 207.079 640.355 207.753 640.355 208.561C640.355 209.37 641.049 210.045 641.891 210.045C642.79 210.045 643.419 209.438 643.419 208.561ZM643.419 238.154C643.419 237.345 642.725 236.671 641.891 236.671C641.049 236.671 640.355 237.345 640.355 238.154C640.355 238.963 641.049 239.637 641.891 239.637C642.79 239.637 643.419 238.963 643.419 238.154ZM643.419 267.679C643.419 266.87 642.725 266.195 641.891 266.195C641.049 266.195 640.355 266.87 640.355 267.679C640.355 268.488 641.049 269.162 641.891 269.162C642.79 269.162 643.419 268.488 643.419 267.679ZM643.419 297.271C643.419 296.462 642.725 295.788 641.891 295.788C641.049 295.788 640.355 296.462 640.355 297.271C640.355 298.08 641.049 298.754 641.891 298.754C642.79 298.686 643.419 298.08 643.419 297.271ZM643.419 326.795C643.419 325.987 642.725 325.313 641.891 325.313C641.049 325.313 640.355 325.987 640.355 326.795C640.355 327.604 641.049 328.278 641.891 328.278C642.79 328.278 643.419 327.604 643.419 326.795ZM643.419 356.32C643.419 355.511 642.725 354.837 641.891 354.837C641.049 354.837 640.355 355.511 640.355 356.32C640.355 357.129 641.049 357.803 641.891 357.803C642.79 357.803 643.419 357.129 643.419 356.32ZM643.419 385.912C643.419 385.103 642.725 384.429 641.891 384.429C641.049 384.429 640.355 385.103 640.355 385.912C640.355 386.721 641.049 387.395 641.891 387.395C642.79 387.395 643.419 386.721 643.419 385.912ZM643.419 415.437C643.419 414.628 642.725 413.954 641.891 413.954C641.049 413.954 640.355 414.628 640.355 415.437C640.355 416.246 641.049 416.92 641.891 416.92C642.79 416.92 643.419 416.246 643.419 415.437ZM643.419 444.962C643.419 444.153 642.725 443.478 641.891 443.478C641.049 443.478 640.355 444.153 640.355 444.962C640.355 445.771 641.049 446.445 641.891 446.445C642.79 446.445 643.419 445.771 643.419 444.962ZM643.419 474.554C643.419 473.745 642.725 473.07 641.891 473.07C641.049 473.07 640.355 473.745 640.355 474.554C640.355 475.363 641.049 476.037 641.891 476.037C642.79 476.037 643.419 475.363 643.419 474.554ZM612.962 1.75398C612.962 0.945073 612.267 0.270996 611.433 0.270996C610.6 0.270996 609.905 0.945073 609.905 1.75398C609.905 2.56287 610.6 3.23695 611.433 3.23695C612.267 3.23695 612.962 2.56287 612.962 1.75398ZM612.962 31.2787C612.962 30.4698 612.267 29.7957 611.433 29.7957C610.6 29.7957 609.905 30.4698 609.905 31.2787C609.905 32.0875 610.6 32.7617 611.433 32.7617C612.267 32.7617 612.962 32.0875 612.962 31.2787ZM612.962 60.8708C612.962 60.0619 612.267 59.3878 611.433 59.3878C610.6 59.3878 609.905 60.0619 609.905 60.8708C609.905 61.6797 610.6 62.3538 611.433 62.3538C612.267 62.3538 612.962 61.6797 612.962 60.8708ZM612.962 90.3957C612.962 89.5866 612.267 88.9125 611.433 88.9125C610.6 88.9125 609.905 89.5866 609.905 90.3957C609.905 91.2047 610.6 91.8781 611.433 91.8781C612.267 91.8781 612.962 91.2047 612.962 90.3957ZM612.962 119.92C612.962 119.111 612.267 118.438 611.433 118.438C610.6 118.438 609.905 119.111 609.905 119.92C609.905 120.729 610.6 121.403 611.433 121.403C612.267 121.403 612.962 120.729 612.962 119.92ZM612.962 149.512C612.962 148.703 612.267 148.03 611.433 148.03C610.6 148.03 609.905 148.703 609.905 149.512C609.905 150.321 610.6 150.995 611.433 150.995C612.267 150.995 612.962 150.321 612.962 149.512ZM612.962 179.037C612.962 178.228 612.267 177.554 611.433 177.554C610.6 177.554 609.905 178.228 609.905 179.037C609.905 179.846 610.6 180.52 611.433 180.52C612.267 180.52 612.962 179.846 612.962 179.037ZM612.962 208.561C612.962 207.753 612.267 207.079 611.433 207.079C610.6 207.079 609.905 207.753 609.905 208.561C609.905 209.37 610.6 210.045 611.433 210.045C612.267 210.045 612.962 209.438 612.962 208.561ZM612.962 238.154C612.962 237.345 612.267 236.671 611.433 236.671C610.6 236.671 609.905 237.345 609.905 238.154C609.905 238.963 610.6 239.637 611.433 239.637C612.267 239.637 612.962 238.963 612.962 238.154ZM612.962 267.679C612.962 266.87 612.267 266.195 611.433 266.195C610.6 266.195 609.905 266.87 609.905 267.679C609.905 268.488 610.6 269.162 611.433 269.162C612.267 269.162 612.962 268.488 612.962 267.679ZM612.962 297.271C612.962 296.462 612.267 295.788 611.433 295.788C610.6 295.788 609.905 296.462 609.905 297.271C609.905 298.08 610.6 298.754 611.433 298.754C612.267 298.686 612.962 298.08 612.962 297.271ZM612.962 326.795C612.962 325.987 612.267 325.313 611.433 325.313C610.6 325.313 609.905 325.987 609.905 326.795C609.905 327.604 610.6 328.278 611.433 328.278C612.267 328.278 612.962 327.604 612.962 326.795ZM612.962 356.32C612.962 355.511 612.267 354.837 611.433 354.837C610.6 354.837 609.905 355.511 609.905 356.32C609.905 357.129 610.6 357.803 611.433 357.803C612.267 357.803 612.962 357.129 612.962 356.32ZM612.962 385.912C612.962 385.103 612.267 384.429 611.433 384.429C610.6 384.429 609.905 385.103 609.905 385.912C609.905 386.721 610.6 387.395 611.433 387.395C612.267 387.395 612.962 386.721 612.962 385.912ZM612.962 415.437C612.962 414.628 612.267 413.954 611.433 413.954C610.6 413.954 609.905 414.628 609.905 415.437C609.905 416.246 610.6 416.92 611.433 416.92C612.267 416.92 612.962 416.246 612.962 415.437ZM612.962 444.962C612.962 444.153 612.267 443.478 611.433 443.478C610.6 443.478 609.905 444.153 609.905 444.962C609.905 445.771 610.6 446.445 611.433 446.445C612.267 446.445 612.962 445.771 612.962 444.962ZM612.962 474.554C612.962 473.745 612.267 473.07 611.433 473.07C610.6 473.07 609.905 473.745 609.905 474.554C609.905 475.363 610.6 476.037 611.433 476.037C612.267 476.037 612.962 475.363 612.962 474.554ZM582.512 1.75398C582.512 0.945073 581.818 0.270996 580.984 0.270996C580.151 0.270996 579.456 0.945073 579.456 1.75398C579.456 2.56287 580.151 3.23695 580.984 3.23695C581.818 3.23695 582.512 2.56287 582.512 1.75398ZM582.512 31.2787C582.512 30.4698 581.818 29.7957 580.984 29.7957C580.151 29.7957 579.456 30.4698 579.456 31.2787C579.456 32.0875 580.151 32.7617 580.984 32.7617C581.818 32.7617 582.512 32.0875 582.512 31.2787ZM582.512 60.8708C582.512 60.0619 581.818 59.3878 580.984 59.3878C580.151 59.3878 579.456 60.0619 579.456 60.8708C579.456 61.6797 580.151 62.3538 580.984 62.3538C581.818 62.3538 582.512 61.6797 582.512 60.8708ZM582.512 90.3957C582.512 89.5866 581.818 88.9125 580.984 88.9125C580.151 88.9125 579.456 89.5866 579.456 90.3957C579.456 91.2047 580.151 91.8781 580.984 91.8781C581.818 91.8781 582.512 91.2047 582.512 90.3957ZM582.512 119.92C582.512 119.111 581.818 118.438 580.984 118.438C580.151 118.438 579.456 119.111 579.456 119.92C579.456 120.729 580.151 121.403 580.984 121.403C581.818 121.403 582.512 120.729 582.512 119.92ZM582.512 149.512C582.512 148.703 581.818 148.03 580.984 148.03C580.151 148.03 579.456 148.703 579.456 149.512C579.456 150.321 580.151 150.995 580.984 150.995C581.818 150.995 582.512 150.321 582.512 149.512ZM582.512 179.037C582.512 178.228 581.818 177.554 580.984 177.554C580.151 177.554 579.456 178.228 579.456 179.037C579.456 179.846 580.151 180.52 580.984 180.52C581.818 180.52 582.512 179.846 582.512 179.037ZM582.512 208.561C582.512 207.753 581.818 207.079 580.984 207.079C580.151 207.079 579.456 207.753 579.456 208.561C579.456 209.37 580.151 210.045 580.984 210.045C581.818 210.045 582.512 209.438 582.512 208.561ZM582.512 238.154C582.512 237.345 581.818 236.671 580.984 236.671C580.151 236.671 579.456 237.345 579.456 238.154C579.456 238.963 580.151 239.637 580.984 239.637C581.818 239.637 582.512 238.963 582.512 238.154ZM582.512 267.679C582.512 266.87 581.818 266.195 580.984 266.195C580.151 266.195 579.456 266.87 579.456 267.679C579.456 268.488 580.151 269.162 580.984 269.162C581.818 269.162 582.512 268.488 582.512 267.679ZM582.512 297.271C582.512 296.462 581.818 295.788 580.984 295.788C580.151 295.788 579.456 296.462 579.456 297.271C579.456 298.08 580.151 298.754 580.984 298.754C581.818 298.686 582.512 298.08 582.512 297.271ZM582.512 326.795C582.512 325.987 581.818 325.313 580.984 325.313C580.151 325.313 579.456 325.987 579.456 326.795C579.456 327.604 580.151 328.278 580.984 328.278C581.818 328.278 582.512 327.604 582.512 326.795ZM582.512 356.32C582.512 355.511 581.818 354.837 580.984 354.837C580.151 354.837 579.456 355.511 579.456 356.32C579.456 357.129 580.151 357.803 580.984 357.803C581.818 357.803 582.512 357.129 582.512 356.32ZM582.512 385.912C582.512 385.103 581.818 384.429 580.984 384.429C580.151 384.429 579.456 385.103 579.456 385.912C579.456 386.721 580.151 387.395 580.984 387.395C581.818 387.395 582.512 386.721 582.512 385.912ZM582.512 415.437C582.512 414.628 581.818 413.954 580.984 413.954C580.151 413.954 579.456 414.628 579.456 415.437C579.456 416.246 580.151 416.92 580.984 416.92C581.818 416.92 582.512 416.246 582.512 415.437ZM582.512 444.962C582.512 444.153 581.818 443.478 580.984 443.478C580.151 443.478 579.456 444.153 579.456 444.962C579.456 445.771 580.151 446.445 580.984 446.445C581.818 446.445 582.512 445.771 582.512 444.962ZM582.512 474.554C582.512 473.745 581.818 473.07 580.984 473.07C580.151 473.07 579.456 473.745 579.456 474.554C579.456 475.363 580.151 476.037 580.984 476.037C581.818 476.037 582.512 475.363 582.512 474.554ZM551.989 1.75398C551.989 0.945073 551.295 0.270996 550.461 0.270996C549.628 0.270996 548.933 0.945073 548.933 1.75398C548.933 2.56287 549.628 3.23695 550.461 3.23695C551.368 3.23695 551.989 2.56287 551.989 1.75398ZM551.989 31.2787C551.989 30.4698 551.295 29.7957 550.461 29.7957C549.628 29.7957 548.933 30.4698 548.933 31.2787C548.933 32.0875 549.628 32.7617 550.461 32.7617C551.368 32.7617 551.989 32.0875 551.989 31.2787ZM551.989 60.8708C551.989 60.0619 551.295 59.3878 550.461 59.3878C549.628 59.3878 548.933 60.0619 548.933 60.8708C548.933 61.6797 549.628 62.3538 550.461 62.3538C551.368 62.3538 551.989 61.6797 551.989 60.8708ZM551.989 90.3957C551.989 89.5866 551.295 88.9125 550.461 88.9125C549.628 88.9125 548.933 89.5866 548.933 90.3957C548.933 91.2047 549.628 91.8781 550.461 91.8781C551.368 91.8781 551.989 91.2047 551.989 90.3957ZM551.989 119.92C551.989 119.111 551.295 118.438 550.461 118.438C549.628 118.438 548.933 119.111 548.933 119.92C548.933 120.729 549.628 121.403 550.461 121.403C551.368 121.403 551.989 120.729 551.989 119.92ZM551.989 149.512C551.989 148.703 551.295 148.03 550.461 148.03C549.628 148.03 548.933 148.703 548.933 149.512C548.933 150.321 549.628 150.995 550.461 150.995C551.368 150.995 551.989 150.321 551.989 149.512ZM551.989 179.037C551.989 178.228 551.295 177.554 550.461 177.554C549.628 177.554 548.933 178.228 548.933 179.037C548.933 179.846 549.628 180.52 550.461 180.52C551.368 180.52 551.989 179.846 551.989 179.037ZM551.989 208.561C551.989 207.753 551.295 207.079 550.461 207.079C549.628 207.079 548.933 207.753 548.933 208.561C548.933 209.37 549.628 210.045 550.461 210.045C551.368 210.045 551.989 209.438 551.989 208.561ZM551.989 238.154C551.989 237.345 551.295 236.671 550.461 236.671C549.628 236.671 548.933 237.345 548.933 238.154C548.933 238.963 549.628 239.637 550.461 239.637C551.368 239.637 551.989 238.963 551.989 238.154ZM551.989 267.679C551.989 266.87 551.295 266.195 550.461 266.195C549.628 266.195 548.933 266.87 548.933 267.679C548.933 268.488 549.628 269.162 550.461 269.162C551.368 269.162 551.989 268.488 551.989 267.679ZM551.989 297.271C551.989 296.462 551.295 295.788 550.461 295.788C549.628 295.788 548.933 296.462 548.933 297.271C548.933 298.08 549.628 298.754 550.461 298.754C551.368 298.686 551.989 298.08 551.989 297.271ZM551.989 326.795C551.989 325.987 551.295 325.313 550.461 325.313C549.628 325.313 548.933 325.987 548.933 326.795C548.933 327.604 549.628 328.278 550.461 328.278C551.368 328.278 551.989 327.604 551.989 326.795ZM551.989 356.32C551.989 355.511 551.295 354.837 550.461 354.837C549.628 354.837 548.933 355.511 548.933 356.32C548.933 357.129 549.628 357.803 550.461 357.803C551.368 357.803 551.989 357.129 551.989 356.32ZM551.989 385.912C551.989 385.103 551.295 384.429 550.461 384.429C549.628 384.429 548.933 385.103 548.933 385.912C548.933 386.721 549.628 387.395 550.461 387.395C551.368 387.395 551.989 386.721 551.989 385.912ZM551.989 415.437C551.989 414.628 551.295 413.954 550.461 413.954C549.628 413.954 548.933 414.628 548.933 415.437C548.933 416.246 549.628 416.92 550.461 416.92C551.368 416.92 551.989 416.246 551.989 415.437ZM551.989 444.962C551.989 444.153 551.295 443.478 550.461 443.478C549.628 443.478 548.933 444.153 548.933 444.962C548.933 445.771 549.628 446.445 550.461 446.445C551.368 446.445 551.989 445.771 551.989 444.962ZM551.989 474.554C551.989 473.745 551.295 473.07 550.461 473.07C549.628 473.07 548.933 473.745 548.933 474.554C548.933 475.363 549.628 476.037 550.461 476.037C551.368 476.037 551.989 475.363 551.989 474.554ZM521.54 1.75398C521.54 0.945073 520.845 0.270996 520.012 0.270996C519.178 0.270996 518.484 0.945073 518.484 1.75398C518.484 2.56287 519.178 3.23695 520.012 3.23695C520.845 3.23695 521.54 2.56287 521.54 1.75398ZM521.54 31.2787C521.54 30.4698 520.845 29.7957 520.012 29.7957C519.178 29.7957 518.484 30.4698 518.484 31.2787C518.484 32.0875 519.178 32.7617 520.012 32.7617C520.845 32.7617 521.54 32.0875 521.54 31.2787ZM521.54 60.8708C521.54 60.0619 520.845 59.3878 520.012 59.3878C519.178 59.3878 518.484 60.0619 518.484 60.8708C518.484 61.6797 519.178 62.3538 520.012 62.3538C520.845 62.3538 521.54 61.6797 521.54 60.8708ZM521.54 90.3957C521.54 89.5866 520.845 88.9125 520.012 88.9125C519.178 88.9125 518.484 89.5866 518.484 90.3957C518.484 91.2047 519.178 91.8781 520.012 91.8781C520.845 91.8781 521.54 91.2047 521.54 90.3957ZM521.54 119.92C521.54 119.111 520.845 118.438 520.012 118.438C519.178 118.438 518.484 119.111 518.484 119.92C518.484 120.729 519.178 121.403 520.012 121.403C520.845 121.403 521.54 120.729 521.54 119.92ZM521.54 149.512C521.54 148.703 520.845 148.03 520.012 148.03C519.178 148.03 518.484 148.703 518.484 149.512C518.484 150.321 519.178 150.995 520.012 150.995C520.845 150.995 521.54 150.321 521.54 149.512ZM521.54 179.037C521.54 178.228 520.845 177.554 520.012 177.554C519.178 177.554 518.484 178.228 518.484 179.037C518.484 179.846 519.178 180.52 520.012 180.52C520.845 180.52 521.54 179.846 521.54 179.037ZM521.54 208.561C521.54 207.753 520.845 207.079 520.012 207.079C519.178 207.079 518.484 207.753 518.484 208.561C518.484 209.37 519.178 210.045 520.012 210.045C520.845 210.045 521.54 209.438 521.54 208.561ZM521.54 238.154C521.54 237.345 520.845 236.671 520.012 236.671C519.178 236.671 518.484 237.345 518.484 238.154C518.484 238.963 519.178 239.637 520.012 239.637C520.845 239.637 521.54 238.963 521.54 238.154ZM521.54 267.679C521.54 266.87 520.845 266.195 520.012 266.195C519.178 266.195 518.484 266.87 518.484 267.679C518.484 268.488 519.178 269.162 520.012 269.162C520.845 269.162 521.54 268.488 521.54 267.679ZM521.54 297.271C521.54 296.462 520.845 295.788 520.012 295.788C519.178 295.788 518.484 296.462 518.484 297.271C518.484 298.08 519.178 298.754 520.012 298.754C520.845 298.686 521.54 298.08 521.54 297.271ZM521.54 326.795C521.54 325.987 520.845 325.313 520.012 325.313C519.178 325.313 518.484 325.987 518.484 326.795C518.484 327.604 519.178 328.278 520.012 328.278C520.845 328.278 521.54 327.604 521.54 326.795ZM521.54 356.32C521.54 355.511 520.845 354.837 520.012 354.837C519.178 354.837 518.484 355.511 518.484 356.32C518.484 357.129 519.178 357.803 520.012 357.803C520.845 357.803 521.54 357.129 521.54 356.32ZM521.54 385.912C521.54 385.103 520.845 384.429 520.012 384.429C519.178 384.429 518.484 385.103 518.484 385.912C518.484 386.721 519.178 387.395 520.012 387.395C520.845 387.395 521.54 386.721 521.54 385.912ZM521.54 415.437C521.54 414.628 520.845 413.954 520.012 413.954C519.178 413.954 518.484 414.628 518.484 415.437C518.484 416.246 519.178 416.92 520.012 416.92C520.845 416.92 521.54 416.246 521.54 415.437ZM521.54 444.962C521.54 444.153 520.845 443.478 520.012 443.478C519.178 443.478 518.484 444.153 518.484 444.962C518.484 445.771 519.178 446.445 520.012 446.445C520.845 446.445 521.54 445.771 521.54 444.962ZM521.54 474.554C521.54 473.745 520.845 473.07 520.012 473.07C519.178 473.07 518.484 473.745 518.484 474.554C518.484 475.363 519.178 476.037 520.012 476.037C520.845 476.037 521.54 475.363 521.54 474.554ZM491.091 1.75398C491.091 0.945073 490.396 0.270996 489.562 0.270996C488.729 0.270996 488.034 0.945073 488.034 1.75398C488.034 2.56287 488.729 3.23695 489.562 3.23695C490.396 3.23695 491.091 2.56287 491.091 1.75398ZM491.091 31.2787C491.091 30.4698 490.396 29.7957 489.562 29.7957C488.729 29.7957 488.034 30.4698 488.034 31.2787C488.034 32.0875 488.729 32.7617 489.562 32.7617C490.396 32.7617 491.091 32.0875 491.091 31.2787ZM491.091 60.8708C491.091 60.0619 490.396 59.3878 489.562 59.3878C488.729 59.3878 488.034 60.0619 488.034 60.8708C488.034 61.6797 488.729 62.3538 489.562 62.3538C490.396 62.3538 491.091 61.6797 491.091 60.8708ZM491.091 90.3957C491.091 89.5866 490.396 88.9125 489.562 88.9125C488.729 88.9125 488.034 89.5866 488.034 90.3957C488.034 91.2047 488.729 91.8781 489.562 91.8781C490.396 91.8781 491.091 91.2047 491.091 90.3957ZM491.091 119.92C491.091 119.111 490.396 118.438 489.562 118.438C488.729 118.438 488.034 119.111 488.034 119.92C488.034 120.729 488.729 121.403 489.562 121.403C490.396 121.403 491.091 120.729 491.091 119.92ZM491.091 149.512C491.091 148.703 490.396 148.03 489.562 148.03C488.729 148.03 488.034 148.703 488.034 149.512C488.034 150.321 488.729 150.995 489.562 150.995C490.396 150.995 491.091 150.321 491.091 149.512ZM491.091 179.037C491.091 178.228 490.396 177.554 489.562 177.554C488.729 177.554 488.034 178.228 488.034 179.037C488.034 179.846 488.729 180.52 489.562 180.52C490.396 180.52 491.091 179.846 491.091 179.037ZM491.091 208.561C491.091 207.753 490.396 207.079 489.562 207.079C488.729 207.079 488.034 207.753 488.034 208.561C488.034 209.37 488.729 210.045 489.562 210.045C490.396 210.045 491.091 209.438 491.091 208.561ZM491.091 238.154C491.091 237.345 490.396 236.671 489.562 236.671C488.729 236.671 488.034 237.345 488.034 238.154C488.034 238.963 488.729 239.637 489.562 239.637C490.396 239.637 491.091 238.963 491.091 238.154ZM491.091 267.679C491.091 266.87 490.396 266.195 489.562 266.195C488.729 266.195 488.034 266.87 488.034 267.679C488.034 268.488 488.729 269.162 489.562 269.162C490.396 269.162 491.091 268.488 491.091 267.679ZM491.091 297.271C491.091 296.462 490.396 295.788 489.562 295.788C488.729 295.788 488.034 296.462 488.034 297.271C488.034 298.08 488.729 298.754 489.562 298.754C490.396 298.686 491.091 298.08 491.091 297.271ZM491.091 326.795C491.091 325.987 490.396 325.313 489.562 325.313C488.729 325.313 488.034 325.987 488.034 326.795C488.034 327.604 488.729 328.278 489.562 328.278C490.396 328.278 491.091 327.604 491.091 326.795ZM491.091 356.32C491.091 355.511 490.396 354.837 489.562 354.837C488.729 354.837 488.034 355.511 488.034 356.32C488.034 357.129 488.729 357.803 489.562 357.803C490.396 357.803 491.091 357.129 491.091 356.32ZM491.091 385.912C491.091 385.103 490.396 384.429 489.562 384.429C488.729 384.429 488.034 385.103 488.034 385.912C488.034 386.721 488.729 387.395 489.562 387.395C490.396 387.395 491.091 386.721 491.091 385.912ZM491.091 415.437C491.091 414.628 490.396 413.954 489.562 413.954C488.729 413.954 488.034 414.628 488.034 415.437C488.034 416.246 488.729 416.92 489.562 416.92C490.396 416.92 491.091 416.246 491.091 415.437ZM491.091 444.962C491.091 444.153 490.396 443.478 489.562 443.478C488.729 443.478 488.034 444.153 488.034 444.962C488.034 445.771 488.729 446.445 489.562 446.445C490.396 446.445 491.091 445.771 491.091 444.962ZM491.091 474.554C491.091 473.745 490.396 473.07 489.562 473.07C488.729 473.07 488.034 473.745 488.034 474.554C488.034 475.363 488.729 476.037 489.562 476.037C490.396 476.037 491.091 475.363 491.091 474.554ZM460.568 1.75398C460.568 0.945073 459.873 0.270996 459.04 0.270996C458.206 0.270996 457.511 0.945073 457.511 1.75398C457.511 2.56287 458.206 3.23695 459.04 3.23695C459.873 3.23695 460.568 2.56287 460.568 1.75398ZM460.568 31.2787C460.568 30.4698 459.873 29.7957 459.04 29.7957C458.206 29.7957 457.511 30.4698 457.511 31.2787C457.511 32.0875 458.206 32.7617 459.04 32.7617C459.873 32.7617 460.568 32.0875 460.568 31.2787ZM460.568 60.8708C460.568 60.0619 459.873 59.3878 459.04 59.3878C458.206 59.3878 457.511 60.0619 457.511 60.8708C457.511 61.6797 458.206 62.3538 459.04 62.3538C459.873 62.3538 460.568 61.6797 460.568 60.8708ZM460.568 90.3957C460.568 89.5866 459.873 88.9125 459.04 88.9125C458.206 88.9125 457.511 89.5866 457.511 90.3957C457.511 91.2047 458.206 91.8781 459.04 91.8781C459.873 91.8781 460.568 91.2047 460.568 90.3957ZM460.568 119.92C460.568 119.111 459.873 118.438 459.04 118.438C458.206 118.438 457.511 119.111 457.511 119.92C457.511 120.729 458.206 121.403 459.04 121.403C459.873 121.403 460.568 120.729 460.568 119.92ZM460.568 149.512C460.568 148.703 459.873 148.03 459.04 148.03C458.206 148.03 457.511 148.703 457.511 149.512C457.511 150.321 458.206 150.995 459.04 150.995C459.873 150.995 460.568 150.321 460.568 149.512ZM460.568 179.037C460.568 178.228 459.873 177.554 459.04 177.554C458.206 177.554 457.511 178.228 457.511 179.037C457.511 179.846 458.206 180.52 459.04 180.52C459.873 180.52 460.568 179.846 460.568 179.037ZM460.568 208.561C460.568 207.753 459.873 207.079 459.04 207.079C458.206 207.079 457.511 207.753 457.511 208.561C457.511 209.37 458.206 210.045 459.04 210.045C459.873 210.045 460.568 209.438 460.568 208.561ZM460.568 238.154C460.568 237.345 459.873 236.671 459.04 236.671C458.206 236.671 457.511 237.345 457.511 238.154C457.511 238.963 458.206 239.637 459.04 239.637C459.873 239.637 460.568 238.963 460.568 238.154ZM460.568 267.679C460.568 266.87 459.873 266.195 459.04 266.195C458.206 266.195 457.511 266.87 457.511 267.679C457.511 268.488 458.206 269.162 459.04 269.162C459.873 269.162 460.568 268.488 460.568 267.679ZM460.568 297.271C460.568 296.462 459.873 295.788 459.04 295.788C458.206 295.788 457.511 296.462 457.511 297.271C457.511 298.08 458.206 298.754 459.04 298.754C459.873 298.686 460.568 298.08 460.568 297.271ZM460.568 326.795C460.568 325.987 459.873 325.313 459.04 325.313C458.206 325.313 457.511 325.987 457.511 326.795C457.511 327.604 458.206 328.278 459.04 328.278C459.873 328.278 460.568 327.604 460.568 326.795ZM460.568 356.32C460.568 355.511 459.873 354.837 459.04 354.837C458.206 354.837 457.511 355.511 457.511 356.32C457.511 357.129 458.206 357.803 459.04 357.803C459.873 357.803 460.568 357.129 460.568 356.32ZM460.568 385.912C460.568 385.103 459.873 384.429 459.04 384.429C458.206 384.429 457.511 385.103 457.511 385.912C457.511 386.721 458.206 387.395 459.04 387.395C459.873 387.395 460.568 386.721 460.568 385.912ZM460.568 415.437C460.568 414.628 459.873 413.954 459.04 413.954C458.206 413.954 457.511 414.628 457.511 415.437C457.511 416.246 458.206 416.92 459.04 416.92C459.873 416.92 460.568 416.246 460.568 415.437ZM460.568 444.962C460.568 444.153 459.873 443.478 459.04 443.478C458.206 443.478 457.511 444.153 457.511 444.962C457.511 445.771 458.206 446.445 459.04 446.445C459.873 446.445 460.568 445.771 460.568 444.962ZM460.568 474.554C460.568 473.745 459.873 473.07 459.04 473.07C458.206 473.07 457.511 473.745 457.511 474.554C457.511 475.363 458.206 476.037 459.04 476.037C459.873 476.037 460.568 475.363 460.568 474.554ZM430.118 1.75398C430.118 0.945073 429.424 0.270996 428.59 0.270996C427.757 0.270996 427.062 0.945073 427.062 1.75398C427.062 2.56287 427.757 3.23695 428.59 3.23695C429.424 3.23695 430.118 2.56287 430.118 1.75398ZM430.118 31.2787C430.118 30.4698 429.424 29.7957 428.59 29.7957C427.757 29.7957 427.062 30.4698 427.062 31.2787C427.062 32.0875 427.757 32.7617 428.59 32.7617C429.424 32.7617 430.118 32.0875 430.118 31.2787ZM430.118 60.8708C430.118 60.0619 429.424 59.3878 428.59 59.3878C427.757 59.3878 427.062 60.0619 427.062 60.8708C427.062 61.6797 427.757 62.3538 428.59 62.3538C429.424 62.3538 430.118 61.6797 430.118 60.8708ZM430.118 90.3957C430.118 89.5866 429.424 88.9125 428.59 88.9125C427.757 88.9125 427.062 89.5866 427.062 90.3957C427.062 91.2047 427.757 91.8781 428.59 91.8781C429.424 91.8781 430.118 91.2047 430.118 90.3957ZM430.118 119.92C430.118 119.111 429.424 118.438 428.59 118.438C427.757 118.438 427.062 119.111 427.062 119.92C427.062 120.729 427.757 121.403 428.59 121.403C429.424 121.403 430.118 120.729 430.118 119.92ZM430.118 149.512C430.118 148.703 429.424 148.03 428.59 148.03C427.757 148.03 427.062 148.703 427.062 149.512C427.062 150.321 427.757 150.995 428.59 150.995C429.424 150.995 430.118 150.321 430.118 149.512ZM430.118 179.037C430.118 178.228 429.424 177.554 428.59 177.554C427.757 177.554 427.062 178.228 427.062 179.037C427.062 179.846 427.757 180.52 428.59 180.52C429.424 180.52 430.118 179.846 430.118 179.037ZM430.118 208.561C430.118 207.753 429.424 207.079 428.59 207.079C427.757 207.079 427.062 207.753 427.062 208.561C427.062 209.37 427.757 210.045 428.59 210.045C429.424 210.045 430.118 209.438 430.118 208.561ZM430.118 238.154C430.118 237.345 429.424 236.671 428.59 236.671C427.757 236.671 427.062 237.345 427.062 238.154C427.062 238.963 427.757 239.637 428.59 239.637C429.424 239.637 430.118 238.963 430.118 238.154ZM430.118 267.679C430.118 266.87 429.424 266.195 428.59 266.195C427.757 266.195 427.062 266.87 427.062 267.679C427.062 268.488 427.757 269.162 428.59 269.162C429.424 269.162 430.118 268.488 430.118 267.679ZM430.118 297.271C430.118 296.462 429.424 295.788 428.59 295.788C427.757 295.788 427.062 296.462 427.062 297.271C427.062 298.08 427.757 298.754 428.59 298.754C429.424 298.686 430.118 298.08 430.118 297.271ZM430.118 326.795C430.118 325.987 429.424 325.313 428.59 325.313C427.757 325.313 427.062 325.987 427.062 326.795C427.062 327.604 427.757 328.278 428.59 328.278C429.424 328.278 430.118 327.604 430.118 326.795ZM430.118 356.32C430.118 355.511 429.424 354.837 428.59 354.837C427.757 354.837 427.062 355.511 427.062 356.32C427.062 357.129 427.757 357.803 428.59 357.803C429.424 357.803 430.118 357.129 430.118 356.32ZM430.118 385.912C430.118 385.103 429.424 384.429 428.59 384.429C427.757 384.429 427.062 385.103 427.062 385.912C427.062 386.721 427.757 387.395 428.59 387.395C429.424 387.395 430.118 386.721 430.118 385.912ZM430.118 415.437C430.118 414.628 429.424 413.954 428.59 413.954C427.757 413.954 427.062 414.628 427.062 415.437C427.062 416.246 427.757 416.92 428.59 416.92C429.424 416.92 430.118 416.246 430.118 415.437ZM430.118 444.962C430.118 444.153 429.424 443.478 428.59 443.478C427.757 443.478 427.062 444.153 427.062 444.962C427.062 445.771 427.757 446.445 428.59 446.445C429.424 446.445 430.118 445.771 430.118 444.962ZM430.118 474.554C430.118 473.745 429.424 473.07 428.59 473.07C427.757 473.07 427.062 473.745 427.062 474.554C427.062 475.363 427.757 476.037 428.59 476.037C429.424 476.037 430.118 475.363 430.118 474.554ZM399.669 1.75398C399.669 0.945073 398.974 0.270996 398.141 0.270996C397.299 0.270996 396.604 0.945073 396.604 1.75398C396.604 2.56287 397.299 3.23695 398.141 3.23695C398.974 3.23695 399.669 2.56287 399.669 1.75398ZM399.669 31.2787C399.669 30.4698 398.974 29.7957 398.141 29.7957C397.299 29.7957 396.604 30.4698 396.604 31.2787C396.604 32.0875 397.299 32.7617 398.141 32.7617C398.974 32.7617 399.669 32.0875 399.669 31.2787ZM399.669 60.8708C399.669 60.0619 398.974 59.3878 398.141 59.3878C397.299 59.3878 396.604 60.0619 396.604 60.8708C396.604 61.6797 397.299 62.3538 398.141 62.3538C398.974 62.3538 399.669 61.6797 399.669 60.8708ZM399.669 90.3957C399.669 89.5866 398.974 88.9125 398.141 88.9125C397.299 88.9125 396.604 89.5866 396.604 90.3957C396.604 91.2047 397.299 91.8781 398.141 91.8781C398.974 91.8781 399.669 91.2047 399.669 90.3957ZM399.669 119.92C399.669 119.111 398.974 118.438 398.141 118.438C397.299 118.438 396.604 119.111 396.604 119.92C396.604 120.729 397.299 121.403 398.141 121.403C398.974 121.403 399.669 120.729 399.669 119.92ZM399.669 149.512C399.669 148.703 398.974 148.03 398.141 148.03C397.299 148.03 396.604 148.703 396.604 149.512C396.604 150.321 397.299 150.995 398.141 150.995C398.974 150.995 399.669 150.321 399.669 149.512ZM399.669 179.037C399.669 178.228 398.974 177.554 398.141 177.554C397.299 177.554 396.604 178.228 396.604 179.037C396.604 179.846 397.299 180.52 398.141 180.52C398.974 180.52 399.669 179.846 399.669 179.037ZM399.669 208.561C399.669 207.753 398.974 207.079 398.141 207.079C397.299 207.079 396.604 207.753 396.604 208.561C396.604 209.37 397.299 210.045 398.141 210.045C398.974 210.045 399.669 209.438 399.669 208.561ZM399.669 238.154C399.669 237.345 398.974 236.671 398.141 236.671C397.299 236.671 396.604 237.345 396.604 238.154C396.604 238.963 397.299 239.637 398.141 239.637C398.974 239.637 399.669 238.963 399.669 238.154ZM399.669 267.679C399.669 266.87 398.974 266.195 398.141 266.195C397.299 266.195 396.604 266.87 396.604 267.679C396.604 268.488 397.299 269.162 398.141 269.162C398.974 269.162 399.669 268.488 399.669 267.679ZM399.669 297.271C399.669 296.462 398.974 295.788 398.141 295.788C397.299 295.788 396.604 296.462 396.604 297.271C396.604 298.08 397.299 298.754 398.141 298.754C398.974 298.686 399.669 298.08 399.669 297.271ZM399.669 326.795C399.669 325.987 398.974 325.313 398.141 325.313C397.299 325.313 396.604 325.987 396.604 326.795C396.604 327.604 397.299 328.278 398.141 328.278C398.974 328.278 399.669 327.604 399.669 326.795ZM399.669 356.32C399.669 355.511 398.974 354.837 398.141 354.837C397.299 354.837 396.604 355.511 396.604 356.32C396.604 357.129 397.299 357.803 398.141 357.803C398.974 357.803 399.669 357.129 399.669 356.32ZM399.669 385.912C399.669 385.103 398.974 384.429 398.141 384.429C397.299 384.429 396.604 385.103 396.604 385.912C396.604 386.721 397.299 387.395 398.141 387.395C398.974 387.395 399.669 386.721 399.669 385.912ZM399.669 415.437C399.669 414.628 398.974 413.954 398.141 413.954C397.299 413.954 396.604 414.628 396.604 415.437C396.604 416.246 397.299 416.92 398.141 416.92C398.974 416.92 399.669 416.246 399.669 415.437ZM399.669 444.962C399.669 444.153 398.974 443.478 398.141 443.478C397.299 443.478 396.604 444.153 396.604 444.962C396.604 445.771 397.299 446.445 398.141 446.445C398.974 446.445 399.669 445.771 399.669 444.962ZM399.669 474.554C399.669 473.745 398.974 473.07 398.141 473.07C397.299 473.07 396.604 473.745 396.604 474.554C396.604 475.363 397.299 476.037 398.141 476.037C398.974 476.037 399.669 475.363 399.669 474.554ZM369.146 1.75398C369.146 0.945073 368.452 0.270996 367.618 0.270996C366.784 0.270996 366.09 0.945073 366.09 1.75398C366.09 2.56287 366.784 3.23695 367.618 3.23695C368.452 3.23695 369.146 2.56287 369.146 1.75398ZM369.146 31.2787C369.146 30.4698 368.452 29.7957 367.618 29.7957C366.784 29.7957 366.09 30.4698 366.09 31.2787C366.09 32.0875 366.784 32.7617 367.618 32.7617C368.452 32.7617 369.146 32.0875 369.146 31.2787ZM369.146 60.8708C369.146 60.0619 368.452 59.3878 367.618 59.3878C366.784 59.3878 366.09 60.0619 366.09 60.8708C366.09 61.6797 366.784 62.3538 367.618 62.3538C368.452 62.3538 369.146 61.6797 369.146 60.8708ZM369.146 90.3957C369.146 89.5866 368.452 88.9125 367.618 88.9125C366.784 88.9125 366.09 89.5866 366.09 90.3957C366.09 91.2047 366.784 91.8781 367.618 91.8781C368.452 91.8781 369.146 91.2047 369.146 90.3957ZM369.146 119.92C369.146 119.111 368.452 118.438 367.618 118.438C366.784 118.438 366.09 119.111 366.09 119.92C366.09 120.729 366.784 121.403 367.618 121.403C368.452 121.403 369.146 120.729 369.146 119.92ZM369.146 149.512C369.146 148.703 368.452 148.03 367.618 148.03C366.784 148.03 366.09 148.703 366.09 149.512C366.09 150.321 366.784 150.995 367.618 150.995C368.452 150.995 369.146 150.321 369.146 149.512ZM369.146 179.037C369.146 178.228 368.452 177.554 367.618 177.554C366.784 177.554 366.09 178.228 366.09 179.037C366.09 179.846 366.784 180.52 367.618 180.52C368.452 180.52 369.146 179.846 369.146 179.037ZM369.146 208.561C369.146 207.753 368.452 207.079 367.618 207.079C366.784 207.079 366.09 207.753 366.09 208.561C366.09 209.37 366.784 210.045 367.618 210.045C368.452 210.045 369.146 209.438 369.146 208.561ZM369.146 238.154C369.146 237.345 368.452 236.671 367.618 236.671C366.784 236.671 366.09 237.345 366.09 238.154C366.09 238.963 366.784 239.637 367.618 239.637C368.452 239.637 369.146 238.963 369.146 238.154ZM369.146 267.679C369.146 266.87 368.452 266.195 367.618 266.195C366.784 266.195 366.09 266.87 366.09 267.679C366.09 268.488 366.784 269.162 367.618 269.162C368.452 269.162 369.146 268.488 369.146 267.679ZM369.146 297.271C369.146 296.462 368.452 295.788 367.618 295.788C366.784 295.788 366.09 296.462 366.09 297.271C366.09 298.08 366.784 298.754 367.618 298.754C368.452 298.686 369.146 298.08 369.146 297.271ZM369.146 326.795C369.146 325.987 368.452 325.313 367.618 325.313C366.784 325.313 366.09 325.987 366.09 326.795C366.09 327.604 366.784 328.278 367.618 328.278C368.452 328.278 369.146 327.604 369.146 326.795ZM369.146 356.32C369.146 355.511 368.452 354.837 367.618 354.837C366.784 354.837 366.09 355.511 366.09 356.32C366.09 357.129 366.784 357.803 367.618 357.803C368.452 357.803 369.146 357.129 369.146 356.32ZM369.146 385.912C369.146 385.103 368.452 384.429 367.618 384.429C366.784 384.429 366.09 385.103 366.09 385.912C366.09 386.721 366.784 387.395 367.618 387.395C368.452 387.395 369.146 386.721 369.146 385.912ZM369.146 415.437C369.146 414.628 368.452 413.954 367.618 413.954C366.784 413.954 366.09 414.628 366.09 415.437C366.09 416.246 366.784 416.92 367.618 416.92C368.452 416.92 369.146 416.246 369.146 415.437ZM369.146 444.962C369.146 444.153 368.452 443.478 367.618 443.478C366.784 443.478 366.09 444.153 366.09 444.962C366.09 445.771 366.784 446.445 367.618 446.445C368.452 446.445 369.146 445.771 369.146 444.962ZM369.146 474.554C369.146 473.745 368.452 473.07 367.618 473.07C366.784 473.07 366.09 473.745 366.09 474.554C366.09 475.363 366.784 476.037 367.618 476.037C368.452 476.037 369.146 475.363 369.146 474.554ZM338.697 1.75398C338.697 0.945073 338.002 0.270996 337.169 0.270996C336.327 0.270996 335.632 0.945073 335.632 1.75398C335.632 2.56287 336.327 3.23695 337.169 3.23695C338.002 3.23695 338.697 2.56287 338.697 1.75398ZM338.697 31.2787C338.697 30.4698 338.002 29.7957 337.169 29.7957C336.327 29.7957 335.632 30.4698 335.632 31.2787C335.632 32.0875 336.327 32.7617 337.169 32.7617C338.002 32.7617 338.697 32.0875 338.697 31.2787ZM338.697 60.8708C338.697 60.0619 338.002 59.3878 337.169 59.3878C336.327 59.3878 335.632 60.0619 335.632 60.8708C335.632 61.6797 336.327 62.3538 337.169 62.3538C338.002 62.3538 338.697 61.6797 338.697 60.8708ZM338.697 90.3957C338.697 89.5866 338.002 88.9125 337.169 88.9125C336.327 88.9125 335.632 89.5866 335.632 90.3957C335.632 91.2047 336.327 91.8781 337.169 91.8781C338.002 91.8781 338.697 91.2047 338.697 90.3957ZM338.697 119.92C338.697 119.111 338.002 118.438 337.169 118.438C336.327 118.438 335.632 119.111 335.632 119.92C335.632 120.729 336.327 121.403 337.169 121.403C338.002 121.403 338.697 120.729 338.697 119.92ZM338.697 149.512C338.697 148.703 338.002 148.03 337.169 148.03C336.327 148.03 335.632 148.703 335.632 149.512C335.632 150.321 336.327 150.995 337.169 150.995C338.002 150.995 338.697 150.321 338.697 149.512ZM338.697 179.037C338.697 178.228 338.002 177.554 337.169 177.554C336.327 177.554 335.632 178.228 335.632 179.037C335.632 179.846 336.327 180.52 337.169 180.52C338.002 180.52 338.697 179.846 338.697 179.037ZM338.697 208.561C338.697 207.753 338.002 207.079 337.169 207.079C336.327 207.079 335.632 207.753 335.632 208.561C335.632 209.37 336.327 210.045 337.169 210.045C338.002 210.045 338.697 209.438 338.697 208.561ZM338.697 238.154C338.697 237.345 338.002 236.671 337.169 236.671C336.327 236.671 335.632 237.345 335.632 238.154C335.632 238.963 336.327 239.637 337.169 239.637C338.002 239.637 338.697 238.963 338.697 238.154ZM338.697 267.679C338.697 266.87 338.002 266.195 337.169 266.195C336.327 266.195 335.632 266.87 335.632 267.679C335.632 268.488 336.327 269.162 337.169 269.162C338.002 269.162 338.697 268.488 338.697 267.679ZM338.697 297.271C338.697 296.462 338.002 295.788 337.169 295.788C336.327 295.788 335.632 296.462 335.632 297.271C335.632 298.08 336.327 298.754 337.169 298.754C338.002 298.686 338.697 298.08 338.697 297.271ZM338.697 326.795C338.697 325.987 338.002 325.313 337.169 325.313C336.327 325.313 335.632 325.987 335.632 326.795C335.632 327.604 336.327 328.278 337.169 328.278C338.002 328.278 338.697 327.604 338.697 326.795ZM338.697 356.32C338.697 355.511 338.002 354.837 337.169 354.837C336.327 354.837 335.632 355.511 335.632 356.32C335.632 357.129 336.327 357.803 337.169 357.803C338.002 357.803 338.697 357.129 338.697 356.32ZM338.697 385.912C338.697 385.103 338.002 384.429 337.169 384.429C336.327 384.429 335.632 385.103 335.632 385.912C335.632 386.721 336.327 387.395 337.169 387.395C338.002 387.395 338.697 386.721 338.697 385.912ZM338.697 415.437C338.697 414.628 338.002 413.954 337.169 413.954C336.327 413.954 335.632 414.628 335.632 415.437C335.632 416.246 336.327 416.92 337.169 416.92C338.002 416.92 338.697 416.246 338.697 415.437ZM338.697 444.962C338.697 444.153 338.002 443.478 337.169 443.478C336.327 443.478 335.632 444.153 335.632 444.962C335.632 445.771 336.327 446.445 337.169 446.445C338.002 446.445 338.697 445.771 338.697 444.962ZM338.697 474.554C338.697 473.745 338.002 473.07 337.169 473.07C336.327 473.07 335.632 473.745 335.632 474.554C335.632 475.363 336.327 476.037 337.169 476.037C338.002 476.037 338.697 475.363 338.697 474.554ZM308.174 1.75398C308.174 0.945073 307.479 0.270996 306.646 0.270996C305.812 0.270996 305.117 0.945073 305.117 1.75398C305.117 2.56287 305.812 3.23695 306.646 3.23695C307.545 3.23695 308.174 2.56287 308.174 1.75398ZM308.174 31.2787C308.174 30.4698 307.479 29.7957 306.646 29.7957C305.812 29.7957 305.117 30.4698 305.117 31.2787C305.117 32.0875 305.812 32.7617 306.646 32.7617C307.545 32.7617 308.174 32.0875 308.174 31.2787ZM308.174 60.8708C308.174 60.0619 307.479 59.3878 306.646 59.3878C305.812 59.3878 305.117 60.0619 305.117 60.8708C305.117 61.6797 305.812 62.3538 306.646 62.3538C307.545 62.3538 308.174 61.6797 308.174 60.8708ZM308.174 90.3957C308.174 89.5866 307.479 88.9125 306.646 88.9125C305.812 88.9125 305.117 89.5866 305.117 90.3957C305.117 91.2047 305.812 91.8781 306.646 91.8781C307.545 91.8781 308.174 91.2047 308.174 90.3957ZM308.174 119.92C308.174 119.111 307.479 118.438 306.646 118.438C305.812 118.438 305.117 119.111 305.117 119.92C305.117 120.729 305.812 121.403 306.646 121.403C307.545 121.403 308.174 120.729 308.174 119.92ZM308.174 149.512C308.174 148.703 307.479 148.03 306.646 148.03C305.812 148.03 305.117 148.703 305.117 149.512C305.117 150.321 305.812 150.995 306.646 150.995C307.545 150.995 308.174 150.321 308.174 149.512ZM308.174 179.037C308.174 178.228 307.479 177.554 306.646 177.554C305.812 177.554 305.117 178.228 305.117 179.037C305.117 179.846 305.812 180.52 306.646 180.52C307.545 180.52 308.174 179.846 308.174 179.037ZM308.174 208.561C308.174 207.753 307.479 207.079 306.646 207.079C305.812 207.079 305.117 207.753 305.117 208.561C305.117 209.37 305.812 210.045 306.646 210.045C307.545 210.045 308.174 209.438 308.174 208.561ZM308.174 238.154C308.174 237.345 307.479 236.671 306.646 236.671C305.812 236.671 305.117 237.345 305.117 238.154C305.117 238.963 305.812 239.637 306.646 239.637C307.545 239.637 308.174 238.963 308.174 238.154ZM308.174 267.679C308.174 266.87 307.479 266.195 306.646 266.195C305.812 266.195 305.117 266.87 305.117 267.679C305.117 268.488 305.812 269.162 306.646 269.162C307.545 269.162 308.174 268.488 308.174 267.679ZM308.174 297.271C308.174 296.462 307.479 295.788 306.646 295.788C305.812 295.788 305.117 296.462 305.117 297.271C305.117 298.08 305.812 298.754 306.646 298.754C307.545 298.686 308.174 298.08 308.174 297.271ZM308.174 326.795C308.174 325.987 307.479 325.313 306.646 325.313C305.812 325.313 305.117 325.987 305.117 326.795C305.117 327.604 305.812 328.278 306.646 328.278C307.545 328.278 308.174 327.604 308.174 326.795ZM308.174 356.32C308.174 355.511 307.479 354.837 306.646 354.837C305.812 354.837 305.117 355.511 305.117 356.32C305.117 357.129 305.812 357.803 306.646 357.803C307.545 357.803 308.174 357.129 308.174 356.32ZM308.174 385.912C308.174 385.103 307.479 384.429 306.646 384.429C305.812 384.429 305.117 385.103 305.117 385.912C305.117 386.721 305.812 387.395 306.646 387.395C307.545 387.395 308.174 386.721 308.174 385.912ZM308.174 415.437C308.174 414.628 307.479 413.954 306.646 413.954C305.812 413.954 305.117 414.628 305.117 415.437C305.117 416.246 305.812 416.92 306.646 416.92C307.545 416.92 308.174 416.246 308.174 415.437ZM308.174 444.962C308.174 444.153 307.479 443.478 306.646 443.478C305.812 443.478 305.117 444.153 305.117 444.962C305.117 445.771 305.812 446.445 306.646 446.445C307.545 446.445 308.174 445.771 308.174 444.962ZM308.174 474.554C308.174 473.745 307.479 473.07 306.646 473.07C305.812 473.07 305.117 473.745 305.117 474.554C305.117 475.363 305.812 476.037 306.646 476.037C307.545 476.037 308.174 475.363 308.174 474.554ZM277.724 1.75398C277.724 0.945073 277.03 0.270996 276.196 0.270996C275.355 0.270996 274.66 0.945073 274.66 1.75398C274.66 2.56287 275.355 3.23695 276.196 3.23695C277.03 3.23695 277.724 2.56287 277.724 1.75398ZM277.724 31.2787C277.724 30.4698 277.03 29.7957 276.196 29.7957C275.355 29.7957 274.66 30.4698 274.66 31.2787C274.66 32.0875 275.355 32.7617 276.196 32.7617C277.03 32.7617 277.724 32.0875 277.724 31.2787ZM277.724 60.8708C277.724 60.0619 277.03 59.3878 276.196 59.3878C275.355 59.3878 274.66 60.0619 274.66 60.8708C274.66 61.6797 275.355 62.3538 276.196 62.3538C277.03 62.3538 277.724 61.6797 277.724 60.8708ZM277.724 90.3957C277.724 89.5866 277.03 88.9125 276.196 88.9125C275.355 88.9125 274.66 89.5866 274.66 90.3957C274.66 91.2047 275.355 91.8781 276.196 91.8781C277.03 91.8781 277.724 91.2047 277.724 90.3957ZM277.724 119.92C277.724 119.111 277.03 118.438 276.196 118.438C275.355 118.438 274.66 119.111 274.66 119.92C274.66 120.729 275.355 121.403 276.196 121.403C277.03 121.403 277.724 120.729 277.724 119.92ZM277.724 149.512C277.724 148.703 277.03 148.03 276.196 148.03C275.355 148.03 274.66 148.703 274.66 149.512C274.66 150.321 275.355 150.995 276.196 150.995C277.03 150.995 277.724 150.321 277.724 149.512ZM277.724 179.037C277.724 178.228 277.03 177.554 276.196 177.554C275.355 177.554 274.66 178.228 274.66 179.037C274.66 179.846 275.355 180.52 276.196 180.52C277.03 180.52 277.724 179.846 277.724 179.037ZM277.724 208.561C277.724 207.753 277.03 207.079 276.196 207.079C275.355 207.079 274.66 207.753 274.66 208.561C274.66 209.37 275.355 210.045 276.196 210.045C277.03 210.045 277.724 209.438 277.724 208.561ZM277.724 238.154C277.724 237.345 277.03 236.671 276.196 236.671C275.355 236.671 274.66 237.345 274.66 238.154C274.66 238.963 275.355 239.637 276.196 239.637C277.03 239.637 277.724 238.963 277.724 238.154ZM277.724 267.679C277.724 266.87 277.03 266.195 276.196 266.195C275.355 266.195 274.66 266.87 274.66 267.679C274.66 268.488 275.355 269.162 276.196 269.162C277.03 269.162 277.724 268.488 277.724 267.679ZM277.724 297.271C277.724 296.462 277.03 295.788 276.196 295.788C275.355 295.788 274.66 296.462 274.66 297.271C274.66 298.08 275.355 298.754 276.196 298.754C277.03 298.686 277.724 298.08 277.724 297.271ZM277.724 326.795C277.724 325.987 277.03 325.313 276.196 325.313C275.355 325.313 274.66 325.987 274.66 326.795C274.66 327.604 275.355 328.278 276.196 328.278C277.03 328.278 277.724 327.604 277.724 326.795ZM277.724 356.32C277.724 355.511 277.03 354.837 276.196 354.837C275.355 354.837 274.66 355.511 274.66 356.32C274.66 357.129 275.355 357.803 276.196 357.803C277.03 357.803 277.724 357.129 277.724 356.32ZM277.724 385.912C277.724 385.103 277.03 384.429 276.196 384.429C275.355 384.429 274.66 385.103 274.66 385.912C274.66 386.721 275.355 387.395 276.196 387.395C277.03 387.395 277.724 386.721 277.724 385.912ZM277.724 415.437C277.724 414.628 277.03 413.954 276.196 413.954C275.355 413.954 274.66 414.628 274.66 415.437C274.66 416.246 275.355 416.92 276.196 416.92C277.03 416.92 277.724 416.246 277.724 415.437ZM277.724 444.962C277.724 444.153 277.03 443.478 276.196 443.478C275.355 443.478 274.66 444.153 274.66 444.962C274.66 445.771 275.355 446.445 276.196 446.445C277.03 446.445 277.724 445.771 277.724 444.962ZM277.724 474.554C277.724 473.745 277.03 473.07 276.196 473.07C275.355 473.07 274.66 473.745 274.66 474.554C274.66 475.363 275.355 476.037 276.196 476.037C277.03 476.037 277.724 475.363 277.724 474.554ZM247.267 1.75398C247.267 0.945073 246.572 0.270996 245.739 0.270996C244.905 0.270996 244.211 0.945073 244.211 1.75398C244.211 2.56287 244.905 3.23695 245.739 3.23695C246.572 3.23695 247.267 2.56287 247.267 1.75398ZM247.267 31.2787C247.267 30.4698 246.572 29.7957 245.739 29.7957C244.905 29.7957 244.211 30.4698 244.211 31.2787C244.211 32.0875 244.905 32.7617 245.739 32.7617C246.572 32.7617 247.267 32.0875 247.267 31.2787ZM247.267 60.8708C247.267 60.0619 246.572 59.3878 245.739 59.3878C244.905 59.3878 244.211 60.0619 244.211 60.8708C244.211 61.6797 244.905 62.3538 245.739 62.3538C246.572 62.3538 247.267 61.6797 247.267 60.8708ZM247.267 90.3957C247.267 89.5866 246.572 88.9125 245.739 88.9125C244.905 88.9125 244.211 89.5866 244.211 90.3957C244.211 91.2047 244.905 91.8781 245.739 91.8781C246.572 91.8781 247.267 91.2047 247.267 90.3957ZM247.267 119.92C247.267 119.111 246.572 118.438 245.739 118.438C244.905 118.438 244.211 119.111 244.211 119.92C244.211 120.729 244.905 121.403 245.739 121.403C246.572 121.403 247.267 120.729 247.267 119.92ZM247.267 149.512C247.267 148.703 246.572 148.03 245.739 148.03C244.905 148.03 244.211 148.703 244.211 149.512C244.211 150.321 244.905 150.995 245.739 150.995C246.572 150.995 247.267 150.321 247.267 149.512ZM247.267 179.037C247.267 178.228 246.572 177.554 245.739 177.554C244.905 177.554 244.211 178.228 244.211 179.037C244.211 179.846 244.905 180.52 245.739 180.52C246.572 180.52 247.267 179.846 247.267 179.037ZM247.267 208.561C247.267 207.753 246.572 207.079 245.739 207.079C244.905 207.079 244.211 207.753 244.211 208.561C244.211 209.37 244.905 210.045 245.739 210.045C246.572 210.045 247.267 209.438 247.267 208.561ZM247.267 238.154C247.267 237.345 246.572 236.671 245.739 236.671C244.905 236.671 244.211 237.345 244.211 238.154C244.211 238.963 244.905 239.637 245.739 239.637C246.572 239.637 247.267 238.963 247.267 238.154ZM247.267 267.679C247.267 266.87 246.572 266.195 245.739 266.195C244.905 266.195 244.211 266.87 244.211 267.679C244.211 268.488 244.905 269.162 245.739 269.162C246.572 269.162 247.267 268.488 247.267 267.679ZM247.267 297.271C247.267 296.462 246.572 295.788 245.739 295.788C244.905 295.788 244.211 296.462 244.211 297.271C244.211 298.08 244.905 298.754 245.739 298.754C246.572 298.686 247.267 298.08 247.267 297.271ZM247.267 326.795C247.267 325.987 246.572 325.313 245.739 325.313C244.905 325.313 244.211 325.987 244.211 326.795C244.211 327.604 244.905 328.278 245.739 328.278C246.572 328.278 247.267 327.604 247.267 326.795ZM247.267 356.32C247.267 355.511 246.572 354.837 245.739 354.837C244.905 354.837 244.211 355.511 244.211 356.32C244.211 357.129 244.905 357.803 245.739 357.803C246.572 357.803 247.267 357.129 247.267 356.32ZM247.267 385.912C247.267 385.103 246.572 384.429 245.739 384.429C244.905 384.429 244.211 385.103 244.211 385.912C244.211 386.721 244.905 387.395 245.739 387.395C246.572 387.395 247.267 386.721 247.267 385.912ZM247.267 415.437C247.267 414.628 246.572 413.954 245.739 413.954C244.905 413.954 244.211 414.628 244.211 415.437C244.211 416.246 244.905 416.92 245.739 416.92C246.572 416.92 247.267 416.246 247.267 415.437ZM247.267 444.962C247.267 444.153 246.572 443.478 245.739 443.478C244.905 443.478 244.211 444.153 244.211 444.962C244.211 445.771 244.905 446.445 245.739 446.445C246.572 446.445 247.267 445.771 247.267 444.962ZM247.267 474.554C247.267 473.745 246.572 473.07 245.739 473.07C244.905 473.07 244.211 473.745 244.211 474.554C244.211 475.363 244.905 476.037 245.739 476.037C246.572 476.037 247.267 475.363 247.267 474.554ZM216.752 1.75398C216.752 0.945073 216.058 0.270996 215.224 0.270996C214.382 0.270996 213.688 0.945073 213.688 1.75398C213.688 2.56287 214.382 3.23695 215.224 3.23695C216.123 3.23695 216.752 2.56287 216.752 1.75398ZM216.752 31.2787C216.752 30.4698 216.058 29.7957 215.224 29.7957C214.382 29.7957 213.688 30.4698 213.688 31.2787C213.688 32.0875 214.382 32.7617 215.224 32.7617C216.123 32.7617 216.752 32.0875 216.752 31.2787ZM216.752 60.8708C216.752 60.0619 216.058 59.3878 215.224 59.3878C214.382 59.3878 213.688 60.0619 213.688 60.8708C213.688 61.6797 214.382 62.3538 215.224 62.3538C216.123 62.3538 216.752 61.6797 216.752 60.8708ZM216.752 90.3957C216.752 89.5866 216.058 88.9125 215.224 88.9125C214.382 88.9125 213.688 89.5866 213.688 90.3957C213.688 91.2047 214.382 91.8781 215.224 91.8781C216.123 91.8781 216.752 91.2047 216.752 90.3957ZM216.752 119.92C216.752 119.111 216.058 118.438 215.224 118.438C214.382 118.438 213.688 119.111 213.688 119.92C213.688 120.729 214.382 121.403 215.224 121.403C216.123 121.403 216.752 120.729 216.752 119.92ZM216.752 149.512C216.752 148.703 216.058 148.03 215.224 148.03C214.382 148.03 213.688 148.703 213.688 149.512C213.688 150.321 214.382 150.995 215.224 150.995C216.123 150.995 216.752 150.321 216.752 149.512ZM216.752 179.037C216.752 178.228 216.058 177.554 215.224 177.554C214.382 177.554 213.688 178.228 213.688 179.037C213.688 179.846 214.382 180.52 215.224 180.52C216.123 180.52 216.752 179.846 216.752 179.037ZM216.752 208.561C216.752 207.753 216.058 207.079 215.224 207.079C214.382 207.079 213.688 207.753 213.688 208.561C213.688 209.37 214.382 210.045 215.224 210.045C216.123 210.045 216.752 209.438 216.752 208.561ZM216.752 238.154C216.752 237.345 216.058 236.671 215.224 236.671C214.382 236.671 213.688 237.345 213.688 238.154C213.688 238.963 214.382 239.637 215.224 239.637C216.123 239.637 216.752 238.963 216.752 238.154ZM216.752 267.679C216.752 266.87 216.058 266.195 215.224 266.195C214.382 266.195 213.688 266.87 213.688 267.679C213.688 268.488 214.382 269.162 215.224 269.162C216.123 269.162 216.752 268.488 216.752 267.679ZM216.752 297.271C216.752 296.462 216.058 295.788 215.224 295.788C214.382 295.788 213.688 296.462 213.688 297.271C213.688 298.08 214.382 298.754 215.224 298.754C216.123 298.686 216.752 298.08 216.752 297.271ZM216.752 326.795C216.752 325.987 216.058 325.313 215.224 325.313C214.382 325.313 213.688 325.987 213.688 326.795C213.688 327.604 214.382 328.278 215.224 328.278C216.123 328.278 216.752 327.604 216.752 326.795ZM216.752 356.32C216.752 355.511 216.058 354.837 215.224 354.837C214.382 354.837 213.688 355.511 213.688 356.32C213.688 357.129 214.382 357.803 215.224 357.803C216.123 357.803 216.752 357.129 216.752 356.32ZM216.752 385.912C216.752 385.103 216.058 384.429 215.224 384.429C214.382 384.429 213.688 385.103 213.688 385.912C213.688 386.721 214.382 387.395 215.224 387.395C216.123 387.395 216.752 386.721 216.752 385.912ZM216.752 415.437C216.752 414.628 216.058 413.954 215.224 413.954C214.382 413.954 213.688 414.628 213.688 415.437C213.688 416.246 214.382 416.92 215.224 416.92C216.123 416.92 216.752 416.246 216.752 415.437ZM216.752 444.962C216.752 444.153 216.058 443.478 215.224 443.478C214.382 443.478 213.688 444.153 213.688 444.962C213.688 445.771 214.382 446.445 215.224 446.445C216.123 446.445 216.752 445.771 216.752 444.962ZM216.752 474.554C216.752 473.745 216.058 473.07 215.224 473.07C214.382 473.07 213.688 473.745 213.688 474.554C213.688 475.363 214.382 476.037 215.224 476.037C216.123 476.037 216.752 475.363 216.752 474.554ZM186.295 1.75398C186.295 0.945073 185.6 0.270996 184.767 0.270996C183.933 0.270996 183.238 0.945073 183.238 1.75398C183.238 2.56287 183.933 3.23695 184.767 3.23695C185.6 3.23695 186.295 2.56287 186.295 1.75398ZM186.295 31.2787C186.295 30.4698 185.6 29.7957 184.767 29.7957C183.933 29.7957 183.238 30.4698 183.238 31.2787C183.238 32.0875 183.933 32.7617 184.767 32.7617C185.6 32.7617 186.295 32.0875 186.295 31.2787ZM186.295 60.8708C186.295 60.0619 185.6 59.3878 184.767 59.3878C183.933 59.3878 183.238 60.0619 183.238 60.8708C183.238 61.6797 183.933 62.3538 184.767 62.3538C185.6 62.3538 186.295 61.6797 186.295 60.8708ZM186.295 90.3957C186.295 89.5866 185.6 88.9125 184.767 88.9125C183.933 88.9125 183.238 89.5866 183.238 90.3957C183.238 91.2047 183.933 91.8781 184.767 91.8781C185.6 91.8781 186.295 91.2047 186.295 90.3957ZM186.295 119.92C186.295 119.111 185.6 118.438 184.767 118.438C183.933 118.438 183.238 119.111 183.238 119.92C183.238 120.729 183.933 121.403 184.767 121.403C185.6 121.403 186.295 120.729 186.295 119.92ZM186.295 149.512C186.295 148.703 185.6 148.03 184.767 148.03C183.933 148.03 183.238 148.703 183.238 149.512C183.238 150.321 183.933 150.995 184.767 150.995C185.6 150.995 186.295 150.321 186.295 149.512ZM186.295 179.037C186.295 178.228 185.6 177.554 184.767 177.554C183.933 177.554 183.238 178.228 183.238 179.037C183.238 179.846 183.933 180.52 184.767 180.52C185.6 180.52 186.295 179.846 186.295 179.037ZM186.295 208.561C186.295 207.753 185.6 207.079 184.767 207.079C183.933 207.079 183.238 207.753 183.238 208.561C183.238 209.37 183.933 210.045 184.767 210.045C185.6 210.045 186.295 209.438 186.295 208.561ZM186.295 238.154C186.295 237.345 185.6 236.671 184.767 236.671C183.933 236.671 183.238 237.345 183.238 238.154C183.238 238.963 183.933 239.637 184.767 239.637C185.6 239.637 186.295 238.963 186.295 238.154ZM186.295 267.679C186.295 266.87 185.6 266.195 184.767 266.195C183.933 266.195 183.238 266.87 183.238 267.679C183.238 268.488 183.933 269.162 184.767 269.162C185.6 269.162 186.295 268.488 186.295 267.679ZM186.295 297.271C186.295 296.462 185.6 295.788 184.767 295.788C183.933 295.788 183.238 296.462 183.238 297.271C183.238 298.08 183.933 298.754 184.767 298.754C185.6 298.686 186.295 298.08 186.295 297.271ZM186.295 326.795C186.295 325.987 185.6 325.313 184.767 325.313C183.933 325.313 183.238 325.987 183.238 326.795C183.238 327.604 183.933 328.278 184.767 328.278C185.6 328.278 186.295 327.604 186.295 326.795ZM186.295 356.32C186.295 355.511 185.6 354.837 184.767 354.837C183.933 354.837 183.238 355.511 183.238 356.32C183.238 357.129 183.933 357.803 184.767 357.803C185.6 357.803 186.295 357.129 186.295 356.32ZM186.295 385.912C186.295 385.103 185.6 384.429 184.767 384.429C183.933 384.429 183.238 385.103 183.238 385.912C183.238 386.721 183.933 387.395 184.767 387.395C185.6 387.395 186.295 386.721 186.295 385.912ZM186.295 415.437C186.295 414.628 185.6 413.954 184.767 413.954C183.933 413.954 183.238 414.628 183.238 415.437C183.238 416.246 183.933 416.92 184.767 416.92C185.6 416.92 186.295 416.246 186.295 415.437ZM186.295 444.962C186.295 444.153 185.6 443.478 184.767 443.478C183.933 443.478 183.238 444.153 183.238 444.962C183.238 445.771 183.933 446.445 184.767 446.445C185.6 446.445 186.295 445.771 186.295 444.962ZM186.295 474.554C186.295 473.745 185.6 473.07 184.767 473.07C183.933 473.07 183.238 473.745 183.238 474.554C183.238 475.363 183.933 476.037 184.767 476.037C185.6 476.037 186.295 475.363 186.295 474.554ZM155.845 1.75398C155.845 0.945073 155.151 0.270996 154.317 0.270996C153.484 0.270996 152.789 0.945073 152.789 1.75398C152.789 2.56287 153.484 3.23695 154.317 3.23695C155.151 3.23695 155.845 2.56287 155.845 1.75398ZM155.845 31.2787C155.845 30.4698 155.151 29.7957 154.317 29.7957C153.484 29.7957 152.789 30.4698 152.789 31.2787C152.789 32.0875 153.484 32.7617 154.317 32.7617C155.151 32.7617 155.845 32.0875 155.845 31.2787ZM155.845 60.8708C155.845 60.0619 155.151 59.3878 154.317 59.3878C153.484 59.3878 152.789 60.0619 152.789 60.8708C152.789 61.6797 153.484 62.3538 154.317 62.3538C155.151 62.3538 155.845 61.6797 155.845 60.8708ZM155.845 90.3957C155.845 89.5866 155.151 88.9125 154.317 88.9125C153.484 88.9125 152.789 89.5866 152.789 90.3957C152.789 91.2047 153.484 91.8781 154.317 91.8781C155.151 91.8781 155.845 91.2047 155.845 90.3957ZM155.845 119.92C155.845 119.111 155.151 118.438 154.317 118.438C153.484 118.438 152.789 119.111 152.789 119.92C152.789 120.729 153.484 121.403 154.317 121.403C155.151 121.403 155.845 120.729 155.845 119.92ZM155.845 149.512C155.845 148.703 155.151 148.03 154.317 148.03C153.484 148.03 152.789 148.703 152.789 149.512C152.789 150.321 153.484 150.995 154.317 150.995C155.151 150.995 155.845 150.321 155.845 149.512ZM155.845 179.037C155.845 178.228 155.151 177.554 154.317 177.554C153.484 177.554 152.789 178.228 152.789 179.037C152.789 179.846 153.484 180.52 154.317 180.52C155.151 180.52 155.845 179.846 155.845 179.037ZM155.845 208.561C155.845 207.753 155.151 207.079 154.317 207.079C153.484 207.079 152.789 207.753 152.789 208.561C152.789 209.37 153.484 210.045 154.317 210.045C155.151 210.045 155.845 209.438 155.845 208.561ZM155.845 238.154C155.845 237.345 155.151 236.671 154.317 236.671C153.484 236.671 152.789 237.345 152.789 238.154C152.789 238.963 153.484 239.637 154.317 239.637C155.151 239.637 155.845 238.963 155.845 238.154ZM155.845 267.679C155.845 266.87 155.151 266.195 154.317 266.195C153.484 266.195 152.789 266.87 152.789 267.679C152.789 268.488 153.484 269.162 154.317 269.162C155.151 269.162 155.845 268.488 155.845 267.679ZM155.845 297.271C155.845 296.462 155.151 295.788 154.317 295.788C153.484 295.788 152.789 296.462 152.789 297.271C152.789 298.08 153.484 298.754 154.317 298.754C155.151 298.686 155.845 298.08 155.845 297.271ZM155.845 326.795C155.845 325.987 155.151 325.313 154.317 325.313C153.484 325.313 152.789 325.987 152.789 326.795C152.789 327.604 153.484 328.278 154.317 328.278C155.151 328.278 155.845 327.604 155.845 326.795ZM155.845 356.32C155.845 355.511 155.151 354.837 154.317 354.837C153.484 354.837 152.789 355.511 152.789 356.32C152.789 357.129 153.484 357.803 154.317 357.803C155.151 357.803 155.845 357.129 155.845 356.32ZM155.845 385.912C155.845 385.103 155.151 384.429 154.317 384.429C153.484 384.429 152.789 385.103 152.789 385.912C152.789 386.721 153.484 387.395 154.317 387.395C155.151 387.395 155.845 386.721 155.845 385.912ZM155.845 415.437C155.845 414.628 155.151 413.954 154.317 413.954C153.484 413.954 152.789 414.628 152.789 415.437C152.789 416.246 153.484 416.92 154.317 416.92C155.151 416.92 155.845 416.246 155.845 415.437ZM155.845 444.962C155.845 444.153 155.151 443.478 154.317 443.478C153.484 443.478 152.789 444.153 152.789 444.962C152.789 445.771 153.484 446.445 154.317 446.445C155.151 446.445 155.845 445.771 155.845 444.962ZM155.845 474.554C155.845 473.745 155.151 473.07 154.317 473.07C153.484 473.07 152.789 473.745 152.789 474.554C152.789 475.363 153.484 476.037 154.317 476.037C155.151 476.037 155.845 475.363 155.845 474.554ZM125.322 1.75398C125.322 0.945073 124.628 0.270996 123.794 0.270996C122.961 0.270996 122.266 0.945073 122.266 1.75398C122.266 2.56287 122.961 3.23695 123.794 3.23695C124.628 3.23695 125.322 2.56287 125.322 1.75398ZM125.322 31.2787C125.322 30.4698 124.628 29.7957 123.794 29.7957C122.961 29.7957 122.266 30.4698 122.266 31.2787C122.266 32.0875 122.961 32.7617 123.794 32.7617C124.628 32.7617 125.322 32.0875 125.322 31.2787ZM125.322 60.8708C125.322 60.0619 124.628 59.3878 123.794 59.3878C122.961 59.3878 122.266 60.0619 122.266 60.8708C122.266 61.6797 122.961 62.3538 123.794 62.3538C124.628 62.3538 125.322 61.6797 125.322 60.8708ZM125.322 90.3957C125.322 89.5866 124.628 88.9125 123.794 88.9125C122.961 88.9125 122.266 89.5866 122.266 90.3957C122.266 91.2047 122.961 91.8781 123.794 91.8781C124.628 91.8781 125.322 91.2047 125.322 90.3957ZM125.322 119.92C125.322 119.111 124.628 118.438 123.794 118.438C122.961 118.438 122.266 119.111 122.266 119.92C122.266 120.729 122.961 121.403 123.794 121.403C124.628 121.403 125.322 120.729 125.322 119.92ZM125.322 149.512C125.322 148.703 124.628 148.03 123.794 148.03C122.961 148.03 122.266 148.703 122.266 149.512C122.266 150.321 122.961 150.995 123.794 150.995C124.628 150.995 125.322 150.321 125.322 149.512ZM125.322 179.037C125.322 178.228 124.628 177.554 123.794 177.554C122.961 177.554 122.266 178.228 122.266 179.037C122.266 179.846 122.961 180.52 123.794 180.52C124.628 180.52 125.322 179.846 125.322 179.037ZM125.322 208.561C125.322 207.753 124.628 207.079 123.794 207.079C122.961 207.079 122.266 207.753 122.266 208.561C122.266 209.37 122.961 210.045 123.794 210.045C124.628 210.045 125.322 209.438 125.322 208.561ZM125.322 238.154C125.322 237.345 124.628 236.671 123.794 236.671C122.961 236.671 122.266 237.345 122.266 238.154C122.266 238.963 122.961 239.637 123.794 239.637C124.628 239.637 125.322 238.963 125.322 238.154ZM125.322 267.679C125.322 266.87 124.628 266.195 123.794 266.195C122.961 266.195 122.266 266.87 122.266 267.679C122.266 268.488 122.961 269.162 123.794 269.162C124.628 269.162 125.322 268.488 125.322 267.679ZM125.322 297.271C125.322 296.462 124.628 295.788 123.794 295.788C122.961 295.788 122.266 296.462 122.266 297.271C122.266 298.08 122.961 298.754 123.794 298.754C124.628 298.686 125.322 298.08 125.322 297.271ZM125.322 326.795C125.322 325.987 124.628 325.313 123.794 325.313C122.961 325.313 122.266 325.987 122.266 326.795C122.266 327.604 122.961 328.278 123.794 328.278C124.628 328.278 125.322 327.604 125.322 326.795ZM125.322 356.32C125.322 355.511 124.628 354.837 123.794 354.837C122.961 354.837 122.266 355.511 122.266 356.32C122.266 357.129 122.961 357.803 123.794 357.803C124.628 357.803 125.322 357.129 125.322 356.32ZM125.322 385.912C125.322 385.103 124.628 384.429 123.794 384.429C122.961 384.429 122.266 385.103 122.266 385.912C122.266 386.721 122.961 387.395 123.794 387.395C124.628 387.395 125.322 386.721 125.322 385.912ZM125.322 415.437C125.322 414.628 124.628 413.954 123.794 413.954C122.961 413.954 122.266 414.628 122.266 415.437C122.266 416.246 122.961 416.92 123.794 416.92C124.628 416.92 125.322 416.246 125.322 415.437ZM125.322 444.962C125.322 444.153 124.628 443.478 123.794 443.478C122.961 443.478 122.266 444.153 122.266 444.962C122.266 445.771 122.961 446.445 123.794 446.445C124.628 446.445 125.322 445.771 125.322 444.962ZM125.322 474.554C125.322 473.745 124.628 473.07 123.794 473.07C122.961 473.07 122.266 473.745 122.266 474.554C122.266 475.363 122.961 476.037 123.794 476.037C124.628 476.037 125.322 475.363 125.322 474.554ZM94.8731 1.75398C94.8731 0.945073 94.1784 0.270996 93.3449 0.270996C92.5113 0.270996 91.8167 0.945073 91.8167 1.75398C91.8167 2.56287 92.5113 3.23695 93.3449 3.23695C94.1784 3.23695 94.8731 2.56287 94.8731 1.75398ZM94.8731 31.2787C94.8731 30.4698 94.1784 29.7957 93.3449 29.7957C92.5113 29.7957 91.8167 30.4698 91.8167 31.2787C91.8167 32.0875 92.5113 32.7617 93.3449 32.7617C94.1784 32.7617 94.8731 32.0875 94.8731 31.2787ZM94.8731 60.8708C94.8731 60.0619 94.1784 59.3878 93.3449 59.3878C92.5113 59.3878 91.8167 60.0619 91.8167 60.8708C91.8167 61.6797 92.5113 62.3538 93.3449 62.3538C94.1784 62.3538 94.8731 61.6797 94.8731 60.8708ZM94.8731 90.3957C94.8731 89.5866 94.1784 88.9125 93.3449 88.9125C92.5113 88.9125 91.8167 89.5866 91.8167 90.3957C91.8167 91.2047 92.5113 91.8781 93.3449 91.8781C94.1784 91.8781 94.8731 91.2047 94.8731 90.3957ZM94.8731 119.92C94.8731 119.111 94.1784 118.438 93.3449 118.438C92.5113 118.438 91.8167 119.111 91.8167 119.92C91.8167 120.729 92.5113 121.403 93.3449 121.403C94.1784 121.403 94.8731 120.729 94.8731 119.92ZM94.8731 149.512C94.8731 148.703 94.1784 148.03 93.3449 148.03C92.5113 148.03 91.8167 148.703 91.8167 149.512C91.8167 150.321 92.5113 150.995 93.3449 150.995C94.1784 150.995 94.8731 150.321 94.8731 149.512ZM94.8731 179.037C94.8731 178.228 94.1784 177.554 93.3449 177.554C92.5113 177.554 91.8167 178.228 91.8167 179.037C91.8167 179.846 92.5113 180.52 93.3449 180.52C94.1784 180.52 94.8731 179.846 94.8731 179.037ZM94.8731 208.561C94.8731 207.753 94.1784 207.079 93.3449 207.079C92.5113 207.079 91.8167 207.753 91.8167 208.561C91.8167 209.37 92.5113 210.045 93.3449 210.045C94.1784 210.045 94.8731 209.438 94.8731 208.561ZM94.8731 238.154C94.8731 237.345 94.1784 236.671 93.3449 236.671C92.5113 236.671 91.8167 237.345 91.8167 238.154C91.8167 238.963 92.5113 239.637 93.3449 239.637C94.1784 239.637 94.8731 238.963 94.8731 238.154ZM94.8731 267.679C94.8731 266.87 94.1784 266.195 93.3449 266.195C92.5113 266.195 91.8167 266.87 91.8167 267.679C91.8167 268.488 92.5113 269.162 93.3449 269.162C94.1784 269.162 94.8731 268.488 94.8731 267.679ZM94.8731 297.271C94.8731 296.462 94.1784 295.788 93.3449 295.788C92.5113 295.788 91.8167 296.462 91.8167 297.271C91.8167 298.08 92.5113 298.754 93.3449 298.754C94.1784 298.686 94.8731 298.08 94.8731 297.271ZM94.8731 326.795C94.8731 325.987 94.1784 325.313 93.3449 325.313C92.5113 325.313 91.8167 325.987 91.8167 326.795C91.8167 327.604 92.5113 328.278 93.3449 328.278C94.1784 328.278 94.8731 327.604 94.8731 326.795ZM94.8731 356.32C94.8731 355.511 94.1784 354.837 93.3449 354.837C92.5113 354.837 91.8167 355.511 91.8167 356.32C91.8167 357.129 92.5113 357.803 93.3449 357.803C94.1784 357.803 94.8731 357.129 94.8731 356.32ZM94.8731 385.912C94.8731 385.103 94.1784 384.429 93.3449 384.429C92.5113 384.429 91.8167 385.103 91.8167 385.912C91.8167 386.721 92.5113 387.395 93.3449 387.395C94.1784 387.395 94.8731 386.721 94.8731 385.912ZM94.8731 415.437C94.8731 414.628 94.1784 413.954 93.3449 413.954C92.5113 413.954 91.8167 414.628 91.8167 415.437C91.8167 416.246 92.5113 416.92 93.3449 416.92C94.1784 416.92 94.8731 416.246 94.8731 415.437ZM94.8731 444.962C94.8731 444.153 94.1784 443.478 93.3449 443.478C92.5113 443.478 91.8167 444.153 91.8167 444.962C91.8167 445.771 92.5113 446.445 93.3449 446.445C94.1784 446.445 94.8731 445.771 94.8731 444.962ZM94.8731 474.554C94.8731 473.745 94.1784 473.07 93.3449 473.07C92.5113 473.07 91.8167 473.745 91.8167 474.554C91.8167 475.363 92.5113 476.037 93.3449 476.037C94.1784 476.037 94.8731 475.363 94.8731 474.554ZM64.4237 1.75398C64.4237 0.945073 63.7291 0.270996 62.8955 0.270996C62.062 0.270996 61.3673 0.945073 61.3673 1.75398C61.3673 2.56287 62.062 3.23695 62.8955 3.23695C63.7291 3.23695 64.4237 2.56287 64.4237 1.75398ZM64.4237 31.2787C64.4237 30.4698 63.7291 29.7957 62.8955 29.7957C62.062 29.7957 61.3673 30.4698 61.3673 31.2787C61.3673 32.0875 62.062 32.7617 62.8955 32.7617C63.7291 32.7617 64.4237 32.0875 64.4237 31.2787ZM64.4237 60.8708C64.4237 60.0619 63.7291 59.3878 62.8955 59.3878C62.062 59.3878 61.3673 60.0619 61.3673 60.8708C61.3673 61.6797 62.062 62.3538 62.8955 62.3538C63.7291 62.3538 64.4237 61.6797 64.4237 60.8708ZM64.4237 90.3957C64.4237 89.5866 63.7291 88.9125 62.8955 88.9125C62.062 88.9125 61.3673 89.5866 61.3673 90.3957C61.3673 91.2047 62.062 91.8781 62.8955 91.8781C63.7291 91.8781 64.4237 91.2047 64.4237 90.3957ZM64.4237 119.92C64.4237 119.111 63.7291 118.438 62.8955 118.438C62.062 118.438 61.3673 119.111 61.3673 119.92C61.3673 120.729 62.062 121.403 62.8955 121.403C63.7291 121.403 64.4237 120.729 64.4237 119.92ZM64.4237 149.512C64.4237 148.703 63.7291 148.03 62.8955 148.03C62.062 148.03 61.3673 148.703 61.3673 149.512C61.3673 150.321 62.062 150.995 62.8955 150.995C63.7291 150.995 64.4237 150.321 64.4237 149.512ZM64.4237 179.037C64.4237 178.228 63.7291 177.554 62.8955 177.554C62.062 177.554 61.3673 178.228 61.3673 179.037C61.3673 179.846 62.062 180.52 62.8955 180.52C63.7291 180.52 64.4237 179.846 64.4237 179.037ZM64.4237 208.561C64.4237 207.753 63.7291 207.079 62.8955 207.079C62.062 207.079 61.3673 207.753 61.3673 208.561C61.3673 209.37 62.062 210.045 62.8955 210.045C63.7291 210.045 64.4237 209.438 64.4237 208.561ZM64.4237 238.154C64.4237 237.345 63.7291 236.671 62.8955 236.671C62.062 236.671 61.3673 237.345 61.3673 238.154C61.3673 238.963 62.062 239.637 62.8955 239.637C63.7291 239.637 64.4237 238.963 64.4237 238.154ZM64.4237 267.679C64.4237 266.87 63.7291 266.195 62.8955 266.195C62.062 266.195 61.3673 266.87 61.3673 267.679C61.3673 268.488 62.062 269.162 62.8955 269.162C63.7291 269.162 64.4237 268.488 64.4237 267.679ZM64.4237 297.271C64.4237 296.462 63.7291 295.788 62.8955 295.788C62.062 295.788 61.3673 296.462 61.3673 297.271C61.3673 298.08 62.062 298.754 62.8955 298.754C63.7291 298.686 64.4237 298.08 64.4237 297.271ZM64.4237 326.795C64.4237 325.987 63.7291 325.313 62.8955 325.313C62.062 325.313 61.3673 325.987 61.3673 326.795C61.3673 327.604 62.062 328.278 62.8955 328.278C63.7291 328.278 64.4237 327.604 64.4237 326.795ZM64.4237 356.32C64.4237 355.511 63.7291 354.837 62.8955 354.837C62.062 354.837 61.3673 355.511 61.3673 356.32C61.3673 357.129 62.062 357.803 62.8955 357.803C63.7291 357.803 64.4237 357.129 64.4237 356.32ZM64.4237 385.912C64.4237 385.103 63.7291 384.429 62.8955 384.429C62.062 384.429 61.3673 385.103 61.3673 385.912C61.3673 386.721 62.062 387.395 62.8955 387.395C63.7291 387.395 64.4237 386.721 64.4237 385.912ZM64.4237 415.437C64.4237 414.628 63.7291 413.954 62.8955 413.954C62.062 413.954 61.3673 414.628 61.3673 415.437C61.3673 416.246 62.062 416.92 62.8955 416.92C63.7291 416.92 64.4237 416.246 64.4237 415.437ZM64.4237 444.962C64.4237 444.153 63.7291 443.478 62.8955 443.478C62.062 443.478 61.3673 444.153 61.3673 444.962C61.3673 445.771 62.062 446.445 62.8955 446.445C63.7291 446.445 64.4237 445.771 64.4237 444.962ZM64.4237 474.554C64.4237 473.745 63.7291 473.07 62.8955 473.07C62.062 473.07 61.3673 473.745 61.3673 474.554C61.3673 475.363 62.062 476.037 62.8955 476.037C63.7291 476.037 64.4237 475.363 64.4237 474.554ZM33.9008 1.75398C33.9008 0.945073 33.2062 0.270996 32.3726 0.270996C31.5391 0.270996 30.8444 0.945073 30.8444 1.75398C30.8444 2.56287 31.5391 3.23695 32.3726 3.23695C33.2062 3.23695 33.9008 2.56287 33.9008 1.75398ZM33.9008 31.2787C33.9008 30.4698 33.2062 29.7957 32.3726 29.7957C31.5391 29.7957 30.8444 30.4698 30.8444 31.2787C30.8444 32.0875 31.5391 32.7617 32.3726 32.7617C33.2062 32.7617 33.9008 32.0875 33.9008 31.2787ZM33.9008 60.8708C33.9008 60.0619 33.2062 59.3878 32.3726 59.3878C31.5391 59.3878 30.8444 60.0619 30.8444 60.8708C30.8444 61.6797 31.5391 62.3538 32.3726 62.3538C33.2062 62.3538 33.9008 61.6797 33.9008 60.8708ZM33.9008 90.3957C33.9008 89.5866 33.2062 88.9125 32.3726 88.9125C31.5391 88.9125 30.8444 89.5866 30.8444 90.3957C30.8444 91.2047 31.5391 91.8781 32.3726 91.8781C33.2062 91.8781 33.9008 91.2047 33.9008 90.3957ZM33.9008 119.92C33.9008 119.111 33.2062 118.438 32.3726 118.438C31.5391 118.438 30.8444 119.111 30.8444 119.92C30.8444 120.729 31.5391 121.403 32.3726 121.403C33.2062 121.403 33.9008 120.729 33.9008 119.92ZM33.9008 149.512C33.9008 148.703 33.2062 148.03 32.3726 148.03C31.5391 148.03 30.8444 148.703 30.8444 149.512C30.8444 150.321 31.5391 150.995 32.3726 150.995C33.2062 150.995 33.9008 150.321 33.9008 149.512ZM33.9008 179.037C33.9008 178.228 33.2062 177.554 32.3726 177.554C31.5391 177.554 30.8444 178.228 30.8444 179.037C30.8444 179.846 31.5391 180.52 32.3726 180.52C33.2062 180.52 33.9008 179.846 33.9008 179.037ZM33.9008 208.561C33.9008 207.753 33.2062 207.079 32.3726 207.079C31.5391 207.079 30.8444 207.753 30.8444 208.561C30.8444 209.37 31.5391 210.045 32.3726 210.045C33.2062 210.045 33.9008 209.438 33.9008 208.561ZM33.9008 238.154C33.9008 237.345 33.2062 236.671 32.3726 236.671C31.5391 236.671 30.8444 237.345 30.8444 238.154C30.8444 238.963 31.5391 239.637 32.3726 239.637C33.2062 239.637 33.9008 238.963 33.9008 238.154ZM33.9008 267.679C33.9008 266.87 33.2062 266.195 32.3726 266.195C31.5391 266.195 30.8444 266.87 30.8444 267.679C30.8444 268.488 31.5391 269.162 32.3726 269.162C33.2062 269.162 33.9008 268.488 33.9008 267.679ZM33.9008 297.271C33.9008 296.462 33.2062 295.788 32.3726 295.788C31.5391 295.788 30.8444 296.462 30.8444 297.271C30.8444 298.08 31.5391 298.754 32.3726 298.754C33.2062 298.686 33.9008 298.08 33.9008 297.271ZM33.9008 326.795C33.9008 325.987 33.2062 325.313 32.3726 325.313C31.5391 325.313 30.8444 325.987 30.8444 326.795C30.8444 327.604 31.5391 328.278 32.3726 328.278C33.2062 328.278 33.9008 327.604 33.9008 326.795ZM33.9008 356.32C33.9008 355.511 33.2062 354.837 32.3726 354.837C31.5391 354.837 30.8444 355.511 30.8444 356.32C30.8444 357.129 31.5391 357.803 32.3726 357.803C33.2062 357.803 33.9008 357.129 33.9008 356.32ZM33.9008 385.912C33.9008 385.103 33.2062 384.429 32.3726 384.429C31.5391 384.429 30.8444 385.103 30.8444 385.912C30.8444 386.721 31.5391 387.395 32.3726 387.395C33.2062 387.395 33.9008 386.721 33.9008 385.912ZM33.9008 415.437C33.9008 414.628 33.2062 413.954 32.3726 413.954C31.5391 413.954 30.8444 414.628 30.8444 415.437C30.8444 416.246 31.5391 416.92 32.3726 416.92C33.2062 416.92 33.9008 416.246 33.9008 415.437ZM33.9008 444.962C33.9008 444.153 33.2062 443.478 32.3726 443.478C31.5391 443.478 30.8444 444.153 30.8444 444.962C30.8444 445.771 31.5391 446.445 32.3726 446.445C33.2062 446.445 33.9008 445.771 33.9008 444.962ZM32.3726 476.037C31.5391 476.037 30.8444 475.363 30.8444 474.554C30.8444 473.745 31.5391 473.07 32.3726 473.07C33.2062 473.07 33.9008 473.745 33.9008 474.554C33.9008 475.363 33.2062 476.037 32.3726 476.037Z" fill="#2D8CCC"></path>
</svg>
